<svg width="720" height="640" viewBox="0 0 720 640" fill="black" xmlns="http://www.w3.org/2000/svg">
  <g xmlns="http://www.w3.org/2000/svg" fill="none" fill-rule="evenodd">
    <rect width="720" height="640"/>
  </g>
<g transform="translate(120, 80)"><path xmlns="http://www.w3.org/2000/svg" d="M238.4 48s2.3-2.1 5-1.8c4.1.6 7.2 5 9.6 8.9 2.7 4.3 3.4 9 3 14.8-.2 3.9.8 36.3 1.2 47.6.1 2.1-1.6 3.9-3.8 4l-38.6.7L238.4 48z" fill="#321011"/><path xmlns="http://www.w3.org/2000/svg" d="M226.1 78.8l-7.5 24.5-2.2 5.7s3.2 4.1 10.8 5.7c5.2 1.1 8.7 1.2 11 1 1.9-.2 4.2-.6 3-4.1-1.7-5.2-1.1-8.5-1.1-8.5l2.7-14.7-16.7-9.6z" fill="#ea9d7d"/><linearGradient xmlns="http://www.w3.org/2000/svg" id="hd-A" gradientUnits="userSpaceOnUse" x1="229.186" y1="95.719" x2="236.058" y2="86.871"><stop offset="0" stop-color="#bc5a32" stop-opacity="0"/><stop offset=".99" stop-color="#bc5a32"/></linearGradient><path xmlns="http://www.w3.org/2000/svg" d="M224.9 92c2.5 3.8 6.9 7 9.4 8.2 3.5 1.7 6 2.1 6 2.1l2.2-12.2-16.4-11.3-.9 1.7-.7 2.8c-.1.1-1.9 5.2.4 8.7z" fill="url(#hd-A)"/><use xmlns="http://www.w3.org/2000/svg" xmlns:xlink="http://www.w3.org/1999/xlink" xlink:href="#hd-E" fill="#cf7653"/><g xmlns="http://www.w3.org/2000/svg" fill="#a84d3b"><path d="M228.9 84.6l.2.5.4-.4z"/><path d="M228.9 84l-.3.9 1.1-.2zm5.3 3.8v1.1l1.1-.5zm-2.7-1.7l-.1 1.1 1.1-.4zM230 85l-.2 1.1 1.2-.3z"/><path d="M228.2 83l-.4 1h1.2zm7.5 7.2l-.5-.6-.4.7zm-1.4-1.1l-.6-.8-.3.9zm4.1 2.1l-.7-.7-.2.8zm3 1.1l-.7-.8-.3.9zm-5.3-3.6l-.6-.3v.9zm1.4 3.1l-.5-.5-.3.7zm-3.9-4l-.6-.4-.1.9zm5.3 2.1l-1-.4.1 1.2zm1.9.3l-.8-.1.2.9zm1.3 1.6h-.8l.3.7zm-2.8-.2l-.3-.7-.5.7zm2.4 2.3l.1-.7-.8.2zm-.2 1.3l.1-.7-.8.2zm-1.7 0l-.4.3.5.3zm.3-3.9l-.4.4.6.3zm2.3-.7l-.6-.1.2.6zm-1.9 5.8l-.4.3.6.3zM230.6 86l-.4.3.5.3zm6.7 4.8l-.3-.3-.1.5zm-2.8-.8l.1-.4h-.5zm1.4.9l.2-.4h-.5zm2.1 2l.2.5.5-.4zm2.9-2l-.3.3.4.2z"/><path d="M241.1 90.4l-.5.4.6.3zm-1.2.4l-.4.3.4.2zm.4 7.1l-.4.2.4.3zm-1.1-1.1l.2.4.3-.4zm-.1-2.4l.2.4.3-.4zm1.9.9l-.3-.2-.1.4zm-13.9-4.7l.2.2.2-.3zm1.9-1.2l-.2.2h.3zm2 3.5l-.3-.1.1.4zm-1-1.7l-.2.3h.4zm6.9 3.2l-.1.6.6-.3zm-.9-4.5v.5l.5-.2zm0-1v.5l.6-.3zm-7.7-3.1v.6l.5-.3zm12 7.3l-.5.1.4.4zm-1.5 4.2l-.2-.4-.4.4zm.3-5.2l.3.4.3-.5zm1.6.6l.3.5.3-.6zm1-1.9l-.3.4.5.1zm-.6 3.2l-.4-.3v.6zm-11.3-8.9l-.6.4.7.4zm-2 .8l-.3-.3-.1.5zm-2-1l-.2-.2-.1.4zm-.5 3.1l.1-.4h-.4zm3.8-2.2l.2.4.4-.4zm-1.2-1l.3.6.5-.5zm-.2-2.7l-.4.6.8.1zm3 4.8l-.3.2.4.3zm.8-.4l-.3.2.4.2zm.8.4l-.3.2.3.3zm-1.5 2.7l-.2-.2-.1.4zm-6-3.4l.2.3.3-.4zm2.3-2.3l-.3.2.4.2zm-.1 3.7l-.3-.2-.1.4zm.3-4.1l.2.3.3-.4zm1 .5l.2.4.3-.4zm-2.3-1l-.3.3.4.1zm.3-1l-.3-.2-.1.4zm5.3 5.5v.4l.5-.2zm1.9.8l-.4.1.3.3zm-.8-.8l-.4.1.3.3zm6.7 3l-.4.1.3.3zm-1.5-.6l-.3.1.2.3zm-4.7.7l-.1-.3-.3.3zm5.6 5l-.1-.3-.3.3zm-6.1-6l-.2-.3-.3.3zm2.6-.6v.5l.4-.2zm1.6.4v.4l.4-.2zm1.8.9l-.4.1.3.3zm-1.4 2l-.2-.3-.2.3zm-4.3-.1v.4l.4-.2zm1.9-1l-.3.1.2.3zm3.4.8l-.1-.3-.3.3z"/></g><path xmlns="http://www.w3.org/2000/svg" d="M248.5 56c3.2 1.8 4.3 3.9 5.7 6.6.5 1.4.5 2.6.5 3.7 0 4.2-.3 10.1-.8 13.4-1 5.7-3.7 9.1-6.9 10.1s-9-1.1-12.9-3.1c-3.3-1.7-5.2-3.5-5.7-5.6-.5-2.2-1.5-5-1.5-5l-5.7-3.9s-6-8.5 3.7-15c8.3-5.6 17.2-4 23.6-1.2z" fill="#ea9d7d"/><path xmlns="http://www.w3.org/2000/svg" d="M243.4 90.6c-1.1 0-2-.2-4-.7-3.2-.8-7.7-3.3-10-5.5-2.2-2.2-2-4.3-2-4.4 0-.2 0-.5.2-.5s.3.2.4.4c.1.4.1 2.1 1.9 3.9 2.1 2.1 6.6 4.5 9.6 5.3 3.1.7 3.7.9 6 .7 2.2-.2 3.4-.9 3.4-.9.4-.3.5-.3.3 0-.2.2-1.4 1.2-3.6 1.6-.9.1-1.5.1-2.2.1z" fill="#b76349"/><path xmlns="http://www.w3.org/2000/svg" d="M238.3 68.4a.78.78 0 0 1-.2-1c.1-.1 1.7-2.5 5.3-2.2.4 0 .7.4.7.8s-.4.7-.8.7c-2.7-.2-3.8 1.5-3.9 1.6-.3.3-1 .2-1.1.1zm14.9-1.8c-.1 0-.3 0-.4-.1-.7-.5-1.5-.4-1.6-.4-.4.1-.8-.2-.9-.6s.2-.8.6-.9c.1 0 1.5-.4 2.8.7.3.2.3.7.1 1-.1.2-.4.3-.6.3z" fill="#4f2b23"/><path xmlns="http://www.w3.org/2000/svg" d="M243.8 84.4h0c-3.8-.2-5.4-2.9-5.8-4.4-.1-.4.1-.8.5-.9s.8.1.9.5c0 .1.8 3.1 4.4 3.3.4 0 .7.4.7.7 0 .5-.3.8-.7.8z" fill="#cf7653"/><path xmlns="http://www.w3.org/2000/svg" d="M247 78.9h-.2c-.4 0-.6-.4-.6-.7 0-.4.4-.6.7-.6.2 0 .7 0 .9-.6s-.3-1.5-.5-1.8-.2-.7.1-.9.7-.2.9.1c.1.2 1.2 1.6.8 3-.4 1.2-1.4 1.5-2.1 1.5z" fill="#b4603f"/><g xmlns="http://www.w3.org/2000/svg" fill="#4f2b23"><circle cx="241.8" cy="72.1" r="1.4"/><path d="M241.5 71.7c-.2 0-.7 0-.8-.2-.1-.3.3-.7.6-.8 1-.5 1.8-.4 2.1-.4a.47.47 0 1 1 0 1c-.3 0-.9 0-1.7.3 0 .1-.1.1-.2.1z"/><circle cx="252.2" cy="71.3" r="1.4"/><path d="M251.9 70.9c-.2 0-.8.1-.9-.1-.1-.3.4-.7.7-.9 1-.5 1.8-.4 2.1-.4a.47.47 0 1 1 0 1 4.54 4.54 0 0 0-1.7.3c0 .1-.1.1-.2.1z"/></g><g xmlns="http://www.w3.org/2000/svg" fill="#f4b9a6"><path d="M244.6 76.5l.7-.4-.8-.4zm-7.6-1l-.2-.5-.5.5zm9.7.4l.7.1-.4-1zm-1.6-3.1l.7.5.2-.8zm.4-.9l.9-.5-.8-.6zm1.6 8.1l.8-.4-.7-.7zm2.3-.9l.5-1h-1.1zm-5-3.4l-.7.1.4.7z"/><path d="M245 74.8l-.8.1.5.6zm-.5 3.7l.2.7.7-.5zm.2 1.4l.6.4.3-.7zm3.4 2.5l-.7.1.5.6zm-1.5-15.3l-.3.5h.8zm.3 4.4l-.6-.2.2.7zm.8-2.1l-.6-.2.2.7zm-4.2 2.8l-.2.6.9-.1zm.8-3.1l-.6.3.6.5zm-2.9.7l-.4.1.2.4zm5.5 12.4l-.6.2.4.5zm-.7-.4l-.6.1.4.6zm-4.8-4.3h-.7l.3.6zm1.3 1.3h-.6l.3.6zm-1.7-3.4l-.1.6.7-.2zm3.2-.4l-.1-.5-.6.5zm6 5.8l.3-.4-.6-.1zm-2.2-1.9l.3.1.1-.4zm4.2-3.9l-.1.5.4-.2zm-2.1 1.9l.5.1-.1-.5z"/><path d="M252.3 75.8l.1-.4h-.5zm-12.5-4.6l-.3.4.5.1zm6-2.3l.8-.1-.6-.7zm-.2 8.8l1-.1-.7-.8zm-.6-5.8l-.6-.1.2.6zm-4.9 3.9l.1-.6-.8.3zm4-5.6l.1.7.7-.4zm-.9 1.3l.1.7.8-.3zm.8-.5l-.1.7.8-.4zm5.9.2l.6.3v-.7zm-5 2.8l-.3-.4-.4.5zm2.3 7.6l-.5.1.4.5zm-2.3-4l-.2.4.6-.1zm.3 3l-.2-.5-.3.5zm.9.5l.4-.3-.6-.2zm.3-1l.5-.3-.6-.4zm-.2-.8l.6-.3-.6-.4zm.1-2.6l.4-.3-.5-.4zm-1.3.1l.4.4.3-.5zm4.9 4.6l-.5.1.4.5zm-2.3-5.2l-.3.4.5.2zm.9 5.5l-.4-.4-.3.4zm-3.3 1.5l.1.6.6-.3zm-1.2-3l-.5.2.4.4zm-5-6.3l-.3-.4-.3.5zm5.2 7.7l.4.2.1-.6zm-1.4-1.2l.4.3v-.6zm-1.2 3.9l-.3.4h.6zm-.8-.7l-.5-.1.1.5zm-1-.2h-.5l.1.5zm5.7-7.7l1.1-.2-.8-.9zm-.6-2.5l.2.5.4-.5z"/><path d="M244.9 74.1l.5.9.8-.9zm2.7-1.1l-.7.7 1 .3zm-6.7 1l.1-.4-.6.2zm6.1 0l-.4.3.5.2zm-1.8-3.3l.7-.1-.4-.5zm3.8 1.7l.7-.1-.5-.6zm-4.2-.3l.7-.1-.5-.6zm4.6-2.6l.6-.1-.4-.5zm-2-1.5l-.4.2.5.3zm-4.9 1.3v-.4l-.6.2zm-.1 7.9l-.1.7.8-.2zm-.9-.5l-.6.1.3.6zm1.1 2.9l-.2.6.8-.2zm1.1-2.6v.7l.7-.3zm-.7 1.3v.8l.8-.4zm-.7-2l.1-.6-.6.3zm8.2-3.5l.6-.1-.4-.5zm-2.1-2.2l.2.4.4-.4zm3.9 7.4l.6-.2-.4-.3zm-8.7-8.7v-.4l-.5.2zm3.7 1.5l-.2.6.7-.2zm-.7-1.2l-.2.6.8-.2zm1.4 4.5l.9.6.4-1zm1.2 1.6l1.1-.2-.7-1zm-3.4.3l.4.1v-.3zm.1-2.5l-.3.4.7.1zm1.1-1.2h-.6l.4.6zm1.9.4l-.6.1.3.6z"/><path d="M247.1 73l1-.5-1-.7zm1.8-4.4l.4-.6-.9-.1zm-3 9.9l.4-.6h-.9zm.2-4.4l.9-.4-.8-.6zm1.3-4.1l.3.3.3-.5zm1.2 1.1l-.7.8 1.3.2zm1-1.2l-.3.4.6.1zm.3 3.9l.3.4.3-.5zm-1.3-4.5l-.3.4h.6zm-8.2 4.4l-.7.2.5.5zm2.8-.8l-.4.5h.7zm-.5.8l-.1-.4-.4.3zm-.7.5v-.4l-.5.3z"/></g><use xmlns="http://www.w3.org/2000/svg" xmlns:xlink="http://www.w3.org/1999/xlink" xlink:href="#hd-E" x="-0.2" fill="#cf7653"/><linearGradient xmlns="http://www.w3.org/2000/svg" id="hd-B" gradientUnits="userSpaceOnUse" x1="241.863" y1="64.523" x2="238.292" y2="59.574"><stop offset="0" stop-color="#bc5a32" stop-opacity="0"/><stop offset=".99" stop-color="#bc5a32"/></linearGradient><path xmlns="http://www.w3.org/2000/svg" d="M232 70.4l10.7-6.1c5.9-2.6 11.2-2.3 11.2-2.3s-.8-1.7-2.5-3.8c-1.1-1.3-2.5-2.1-2.5-2.1l-6.1-1.8L232 70.4z" fill="url(#hd-B)"/><path xmlns="http://www.w3.org/2000/svg" d="M227.2 81.4l-.4.3.5.3z" fill="#a84d3b"/><path xmlns="http://www.w3.org/2000/svg" d="M230 45.8c-4.4 1.5-9.8 5.7-15.1 16s-6.4 17.1-7.3 28.8l-2.2 26.7c-.2 2.7 1.9 5 4.6 5h7.9s6.6-19.7 7.6-28.8l2.6-22.3s3.2 2.9 4.6.7c7.5-11.8 16.7-15.6 16.7-15.6l-11-8.3c0 0-4.7-3.5-8.4-2.2z" fill="#321011"/><ellipse xmlns="http://www.w3.org/2000/svg" cx="224.4" cy="75.3" rx="5.3" ry="5.7" fill="#ea9d7d"/><linearGradient xmlns="http://www.w3.org/2000/svg" id="hd-C" gradientUnits="userSpaceOnUse" x1="224.487" y1="78.668" x2="224.824" y2="73.34"><stop offset="0" stop-color="#cc7a5e" stop-opacity="0"/><stop offset=".924" stop-color="#aa5f4b"/></linearGradient><ellipse xmlns="http://www.w3.org/2000/svg" cx="224.7" cy="75.3" rx="2.4" ry="2.5" fill="url(#hd-C)"/><path xmlns="http://www.w3.org/2000/svg" d="M227.9 79.1c-.9 1-2.2 1.5-3.5 1.5-2.7 0-4.9-2.4-4.9-5.3s2.2-5.3 4.9-5.3c1.9 0 3.6 1.2 4.4 2.9 0 0 .2.1.5-.1s.2-.6.2-.6c-1-1.8-2.9-3.1-5-3.1-3.2 0-5.8 2.7-5.8 6.1 0 3.3 2.6 6.1 5.8 6.1 1.4 0 2.5-.4 3.5-1.2l-.1-1z" fill="#b76349"/><g xmlns="http://www.w3.org/2000/svg" fill="#964c38"><path d="M226.9 75.9v-.4l-.4.1zm-1.7-3l-.4.1.3.4z"/><path d="M225.1 73l-.5.6.9.2zm-.9-.1l-.6.2.5.5zm2.6 1.5l-.3.2.4.2zm-.9-.5l-.3.3.4.1z"/><path d="M226.5 74.6l-.2.3.4.2zm-2.2-.8l-.3.2.5.2z"/><path d="M223.8 73.5l-.4.5.7.2zm1.7 1.8l.2.2.1-.3zm1.1-1.2l-.1.2h.3zm.2.9l-.1.3h.3zm-3.6-1.6l-.4.4.6.1zm.8 1.5h-.2l.1.3zm.6.9l-.1-.3-.2.2zm.8-2.5l.2-.2-.3-.2zm-1.2 0l-.3.3.5.1zm-.5.3l-.3-.2v.4z"/><path d="M223.7 73.6v-.3h-.3zm2.4.4l.2.3.2-.3zm-.4-.9l-.1.7.7-.2z"/><path d="M225.4 73.6l.3.2.1-.4zm-2.4.9l-.2.3h.3zm1.8-1.6l-.3-.1.1.4zm-.6 1.8l.2.3.2-.4zm.8 1.3l-.1.2.3.1zm-2.1-2.2l-.2.3.4.1z"/><path d="M223.8 76l-.3-.1.1.3zm-1.1-1.6l.3-.1-.2-.3z"/><path d="M222.4 75.5h.2l-.1-.3zm.2-1l.2-.1-.1-.2zm.7-.3v.3l.3-.2zm-1 .9h.4l-.2-.4zm.6.1v.2l.3-.2zm2-1.3l-.3.2.3.2zm1.4 1.5l.1.4.3-.2zm-2-2.2l.1.4.3-.3zm1 1.1l-.2-.2-.1.3z"/></g><g xmlns="http://www.w3.org/2000/svg" fill="#633535"><path d="M227.6 46.8l.9.7.2-1.2zm8.7 4.9l-.5-.1.1.5zm4.2-1.4v-.4l-.3.2zm-9.9-4.1l-.1.7.8-.1zm8.7 2.5l-.2.6.7-.2zm-12.8-1.2l-.7.5.9.5z"/><path d="M225.8 48l-.8.6.9.5zm-.4 2.3l-.7 1 1.3.4zm-1.5-.7l-.7.6.9.4zm11.5-3.3l-.9-.2-.1 1.1zm-3.3 1.3l-.2-1-.8.6zm1.6.2v-.9l-.9.4zm1.6.5l.5.9.6-1.2zm.3-1.9l.2 1.4 1.2-.6zm-.5 2.8l-.3.4.5.1zm-6.8 1.6l-.1.5.5-.1zm-1.9 0l-.1.5.5-.1zm.1-.8l-.2.4h.5zm-1.5 1.9l-.2.4h.5zm-.7-.3l-.2.4h.6zm-.7.3l-.2.5h.5zm16.2-1.5l-.1.4h.4zm-2.6-.5l.4.3.1-.5zm-10.5 2.8l.4.1-.1-.5zm.7-2.3v.3l.4-.2zm2.7 1.8h-.3l.2.3zm-.9-.8l.1.3.3-.3zm3 1.7l-.3.1.2.2zm1.2-.5l-.1-.3-.3.2zm-.1-6.8l.3 1 .8-.8zm-6.1 2.9l.4.5.3-.6zm11.2-.7l-1.1-.7.1 1.5z"/><path d="M239 48.5l-.5-.3-.2.5zm-1.5-1.1l-1.1.6.2-1zm-.9 1.6l.5.4.1-.7zm.3-.8l.3.4.2-.7zm-4 1.8l-.1.5.4-.1zm6.1-1.1h-.5l.2.6zM223.9 51l-.2.5.6-.1zm-.5-.5l-.2.5.6-.1zm-.7 1.2l.7.2-.1-.9zm-.4 0l-.3.6h.8z"/><path d="M227.3 47.9h-.4l.3.4zm-4.6 3.9l-.3-.8-.7.7z"/><path d="M223.4 51.2l-.3-.9-.8.7zm2.1-2.4l.9.5v-1.1zm.7.7l.7.5.2-.9zm2-.9l.3.2.1-.6z"/><path d="M227.8 47.2l-.6 1.2h1.5zm-2.9 1.5l-.7.5.8.6zm2.8-1.9l-1.1.6.8.3zm1.2 2.5h-.4l.2.3zm-3.2 1.3l.4.2v-.6zm-.6-.8l.9.1-.6-1zm-2.2 3.5l-.2.3h.4zm1.8-3.1h-.5l.4.7z"/><path d="M224.7 49.7l-.6-.3v1.1zm-.4 3.4l.5.2-.1-.5zm2.3.6v.5l.4-.2zm-5.3-1.3l-.2.9 1-.1z"/><path d="M221.7 51.7l-.6.7.9.3zm3.2 2.8h-.4l.2.5zm-2.5-1.3l.4-.2-.3-.3zm3.4-.7l.3-.1-.3-.4zm-5.4.7l.9.2-.3-.9zm-.6.8l.9.2-.3-.9zm-.8 1l1.1.1-.5-.9zm-.8 1l1.1.2-.4-1.1zm7.2-2.6l.2.3.2-.4zm1-1.1l.4-.2-.3-.4zm-3.5 1.8l.1.3.3-.3zm5.4-2.4l-.3.3.4.2zm-.2 2l-.3.3.5.1zm.5-6.2l.3.4.2-.5zm2.3-1.9l-1 .2.5.9zm-1.2.3l-.9.4.8 1zm1.3 2.7l-.7-.5-.2.9zm6.5 2.7l-.2-.2-.1.4zm-7.1-3.4l-.3-.1v.4zm1.7-2.4l.4 1 .7-.8zm-.6 3.8l.3.4.3-.5zm-.5-3.7l.5.8.5-.9zm2.3 3.2l.3.5.3-.4zm.7 1.3l.1.5.4-.4zm1.3-3.4l-.4.2.4.2zm-1.2.5l-.3-.2v.4zm1 1.2l-.3-.3v.5zm4.7 1.4l.5-.2-.5-.4zm.9.7l-.2.3h.5zm-1.4-.7l-.4-.2v.5zm-7.7.7l.2.4.3-.4zm.9-2.2l-.2.3.3.2zm1 3.6l-.4-.3v.4zM222 58l-.3-.1.2.4zm4-.1l-.3.2.3.1zm-3.9 3.8h-.3l.2.3zm5.5-4.9l-.2-.2-.2.3zm-6.3 6.4l-.2-.2-.2.2zm2-4.3l-.2-.2-.2.2zm1.1-3.3l.4.4.1-.5zm3 .6l-.4-.2.1.4zm8.3-8.6l-.3-.2-.1.5zm-3.1-.2h-.8l.4.9zm.3-.7l-.5.1.2.5zm-2.8 2.9l-.2-.5-.3.4z"/><path d="M229.1 48.2l-.3 1.1 1.2-.2zm-.5 0v.3l.3-.1zm1.5 1l.1.4.2-.2zm.3-2.1l-.5-.1.2.5zm-.2-.8l-.6-.1.1.7zm-1.1.4l-.6-.1.2.7zm3.3-.7l-.6-.3v.8zm1.1.1l-.6-.3v.7zm-2.3 1.6l-.1-.4-.4.3zm-.1 1.5l-.1-.4-.4.3z"/><path d="M230.8 47.8l.4.4.2-.7zm3.2.6l.5.2-.1-.7zm-6.7 1.3h.5l-.1-.5zm2.5-1.5l.4.3.1-.5zm3-.8l-.3.4h.4zm-.7 1l-.5-.1.1.5zm1.1.8l-.3-.3.1.5zm-2.5 1l-.2.4h.5zm2.8-2l-.3-.1v.5zm2.2 1.6l.2.5.4-.4zm2.4 0l.2.4.3-.5zm-.9-.6l-.4.2.4.2zm-.8-.1l-.3-.2-.1.5zm1.7 1.1l-.4-.1.1.5zm0-1.1l-.4-.1v.5zm11.3 1h-.4l.2.5zm-1.3.2v-.5l-.5.2zm-2-.6l-.2.5h.6zm1.8-1.2l-.2 1.1 1-.3z"/><path d="M247 47.8l-.1 1 1-.3zm-3.2-1.5l.3 1 .9-.7zm3.9 5.2l-.2.4h.4zm-6.1-3.9l.3.3.1-.6zm3.4 1.6l.4.3.1-.5zm2.3-.1l-.5-.1.2.5zm-1.2-1.9l-1.1-.5.2 1.4zm-4.6-.9l.7.9.5-1z"/><path d="M243.8 46.3l-1.2-.1.7 1.2zm-4.4.9l1 .6.1-1.1z"/><path d="M241.6 46.3l-1.2.4 1.2.8zm5.4 1.5l-.9-.6-.4 1zm-3-.2l-.4-.3v.6zm-5 .3l-.2-.2-.3.2zm7.8.3h-.5l.3.5zm-1.8-1.1h-.5l.3.6zm-2.1-.5l-.5.1.3.6zm-2 .5l-.4.2.4.5z"/><path d="M239.4 47.2l-.4.3.5.4zm8.1 2.2l.5-.3-.5-.3zm-3.9-2.1l.5-.3-.6-.2zm4.5 3.1l-.2.5h.6zm1 1.2l.1.2.2-.2zm-.8-1.7l.5.3.1-.6zm1.2.4l-.3.6h.7zm-2.1-.4l-.3-.2v.5zm-4.5-2.5l-.1.5.6-.1zm3 1.7l.2.4.3-.5zm-.9-1.2l-.3-.1.1.5zm-5-.2l-.3-.1.2.5zm5.9.7l-.4-.1v.5zM230 50.2l-.3-.2-.1.5zm-17.4 16.4l1.1-.1-.5-1.1zm3.3 4.5l-.4.1.3.3zm-6.5 9.3l-.2-.5-.4.4zm5.6-16.2l.6.8.6-1zm4.8-8.8l.5.1-.1-.7zm2.3-2l.3.5.3-.5zm-10.7 16l-.5 1.7 1.4-.1zm-.6 2.1l-.3 1.1.8-.6zm2.2-.3l-.1.5.7-.1zm-1.5.7v.5l.5-.2zm4.8-12.6l-.4.7 1.2.2zm.5 4.3l-.3-.2-.1.5zm1.1-1.8l-.8-.3v.9zm.8-3l.3-.3-.6-.3zm.9 1.1l.4.4.2-.5zm-5.6 9.9l-.1.4.5-.1zm-2.1 3.8l-.1.4.5-.1zm16.5-21.3l.2.5.3-.5z"/><path d="M221.7 56.4l.1.5.3-.3zm-.7 1.3l-.3.1.3.4zm0-1.6l.3.3.1-.4zm2-.2l-.2.4h.5zm.2-1.5l.4.3.1-.5zm-1.8.5l.3-.4-.6-.1zm-2 1.7l.3-.4-.6-.1zm.5-2.4v.5l.5-.2zm-7.2 18.1h.3l-.1-.4zm.5-2.7l.1.3.4-.2zm3.8 1l-.3.1.3.3zm-2-.5l.1.3.3-.2zm-1 2.9l-.2.3.3.1zm-1.3 2.4l-.2-.2-.1.4zm8.1-14.8h.5l-.3-.6zm-5.5.4l1.4.2-.9-1.1zm-2.5 7.2l.4.4.1-.7zm5.5-12l.4.3.2-.4zm3.5-1.1l-.3.4h.7zm-.3-1.7l-.3.7h.9zm-.9.9l-.4.8 1.1-.1zm-2.1 3.8l-.9-.9-.7 1z"/><path d="M219.2 56.2l.3-.6-.7.4zm-1.1.3l-.5.7 1.2.1zm-.2 7.3l.4.5.5-.5zm1.4-8.8v.4l.5-.3zm-7.2 17.5l-.1.4.5-.2zm.8-4.5l-.3.1.3.3zm-2.2 5.9l-.4.1.2.4zm.8-.7l-.1-.4-.3.4z"/><path d="M211.8 69.4l.5.1-.1-.5zm1.7-1.8h.5l-.1-.5zm-1-.8l-.3 1h1.2zm.1 3.2l-.1.7.7-.2zm1.8-2l-.8.3.6.7zm-2.8.8h.8l-.4-.7zm-1.2 4.3l-.3 1 1.2-.2zm2.1-1.9l-.8.1.7.8zm-1.8 1.7l.4.1-.1-.5zm1.8.6l-.1.5.5-.3zm-1.3.9l-.4.1.3.3zm6.3-12.2l-.1.7.7-.2z"/><path d="M215.9 62l-.1.5.7-.1zm.8-1.5l-.1.6.5-.2zm-.1 3l-.1.4.5-.1zm.6-.9h.5l-.2-.4zm-4.6 6.3l.5.7.5-.8zm1.8-2l.2.3.2-.3zm3-8.2l.4-.1-.2-.5zm-.1 1.2l.3-.1v-.4zm-2.8 6l.3.2.1-.4zm2.2-3.2l-.1.5.6-.2zm-.6.5l-.3-.6-.5.5zm.9-1.4l-.4.2.2.3zm.2 1.8v.3l.3-.2zm-2.1.7h-.8l.5.9zM211.6 76l.3-.3-.3-.2zm-2.1 1.2l.2-.4-.3-.1z"/><path d="M211.3 75.6l.3-.1-.4-.3zm-1.6 3.7l.4.2.1-.4zm1-2.5l.4-.3-.4-.3zm-1-2.1l.6.5.3-.8z"/><path d="M209.7 75.6l-.1 1 1.1-.3zm.3 2.6l-.2.3h.4zm3.8-11.7l.3.2.1-.5zm-.1-2.3l-.4 1 1.1-.1zm.6 1.1l-.2.4h.5zm2.8.9h-.8l.2.7zm3.6-10.2l-.1.3h.4zm-.4.8l.3-.4h-.6zm-2.5 4.7h.9l-.5-1zm1.7-2.8h.7l-.4-.7zm-1.5 1.5l1-.7-1.2-.6zm-1.6 4.9l.6-.3-.5-.4zm2.4-7.1l.5-.4-.6-.3zm3.3-2.8l.9-.6-1.1-.7zm-1.8 1l1-.7-1.2-.6zm-4.9 5.7l1.1-.2-.8-1z"/><path d="M221.6 59l-.4.3.5.2zm-1.9-2.4l-.8.5 1 .4zm1.5-3.3l-.7.5.9.4zm-1.1 5.6l-.4.2.4.2zm-4.6 7.5l-.4-.1.2.5zm-.7-4.2h1.3l-.9-.9zm5.2-4.4h1l-.5-.9zm-6 5.8l1.4.2-.9-1.2zm5-1.7h.4l-.2-.6zm-5.5 9.2l.4.4v-.6zm2.9-11.9l.9.1-.6-.7zm1.2 1.3l-.4.2.4.3zm1.3-.8l-.3.2.4.2zm-.9 8.1l.4.3.1-.5zm-.2-1.4l-.1.4.5-.1zm-1.9-.4l-.3-.4-.3.4zm.6 2.9l-.1.5.6-.3zm-.4-3.7l-.5.3.7.4zm2.3.2l.3.2.1-.3zm-3.6 1.6l-.5.5.8.2zm-.1 1.7l.4.3.1-.5zm2-1.7l.4.3.1-.5zm-7.6 11.5l.4.3.1-.4zm6.3-11.6l-.1.4.5.1zm5 .9h-.4l.1.4zm-2.5-9.2l-.3.4.5.1zm-1.5 10.3l-.4-.2.1.5z"/></g><defs xmlns="http://www.w3.org/2000/svg"><path id="hd-E" d="M217 109.2h-.1a.55.55 0 0 1-.3-.5l4.7-14.4c.9-3 3.6-13.1 3.6-13.1a.55.55 0 0 1 .5-.3.55.55 0 0 1 .3.5l-3.6 13.1c-.8 2.7-4.7 14.3-4.7 14.3 0 .3-.2.4-.4.4z"/></defs><path xmlns="http://www.w3.org/2000/svg" d="M134.8 415.6c-1.8-4.7-3.1-6.7 2-11.8 3.3-3.3 9.1-15 11.9-20 12.6-23.3 13.8-34.9 22.1-50.6 9.9-18.7 19.2-29 22.5-34.5 4.9-8 13.5-35.1 13.5-35.1l38.3.5s-5.6 20.2-9.5 30.9c-3 8-12.5 20-15 22.5-34.2 42.4-54.6 73.6-58.4 83.2-.8 1 7.2 13.4 8.9 15.1 5.6 2.6 13.2 3.7 13.2 6.6s-1.7 3.2-1.7 3.2l-19.7-2.9-28.1-7.1z" fill="#e79a7a"/><linearGradient xmlns="http://www.w3.org/2000/svg" id="bt-A" gradientUnits="userSpaceOnUse" x1="192.4296" y1="334.0496" x2="224.406" y2="354.4005"><stop offset="0" stop-color="#cc7a5e" stop-opacity="0"/><stop offset=".9241" stop-color="#aa5f4b"/></linearGradient><path xmlns="http://www.w3.org/2000/svg" d="M162.5 399.8c4.6-9.6 25.4-42.3 59.3-84.1 2.5-2.6 13.7-16.4 15.2-22.5 3.9-11.6 6.3-26.2 6-28l-7.7-1.3 13.6 2.1c-.8 1.3-30.3-5-32.9-.2-2.7 5.1-15.1 48.3-27 63.2-11.8 15-43 63.6-41.7 74.2.7 6.4 12.1 18.7 21.1 11.2-4.3-10.3-7.1-12-5.9-14.6z" fill="url(#bt-A)"/><path xmlns="http://www.w3.org/2000/svg" d="M308.3 422.6c-3 0-3.6-2.9-2.9-7.6.5-3.5-2.3-10.4-3.5-13.9-1.6-4.5-10.1-21.9-22.8-49.5-8.3-19.2-11.6-35.5-13.5-44.2-1-4.4-24.2-45.7-24.2-45.7l39.6-12.4 14 44.4c3.6 12.2 7.6 32.4 12.6 53.6 6.2 25.8 12.8 48.5 15.7 52.4 1.9 2.5 11.2 3.7 24.4 6 6.4.6 12-.2 14.5 1.8.9.7 1.6 3.5 1.6 3.5l-55.5 11.6z" fill="#e79a7a"/><linearGradient xmlns="http://www.w3.org/2000/svg" id="bt-B" gradientUnits="userSpaceOnUse" x1="295.8011" y1="335.1079" x2="329.9069" y2="326.5792"><stop offset="0" stop-color="#cc7a5e" stop-opacity="0"/><stop offset=".9241" stop-color="#aa5f4b"/></linearGradient><path xmlns="http://www.w3.org/2000/svg" d="M322.3 398.2c-2.9-4.4-10.4-29.7-17.8-64.3-2.7-12.7-5.4-24.3-9.4-39.3-.8-3.5-10.9-34.5-14.9-43.2-4.9-8-16.4 3.8-18.1 3.1h-.2v.1c.7 1.4-11.9 12-9.3 16.9 2.7 5.1 31.8 49.8 37.5 68s18.1 71.6 27.5 76.5c3.9 2.1 18.1 2.4 26.6-1.7 3.9-1.9 4.1-3.7 4.9-7-14.9-.7-23.1-2.8-26.8-9.1z" fill="url(#bt-B)"/><linearGradient xmlns="http://www.w3.org/2000/svg" id="bt-C" gradientUnits="userSpaceOnUse" x1="206.7728" y1="309.7982" x2="217.0454" y2="291.3856"><stop offset="0" stop-color="#cc7a5e" stop-opacity="0"/><stop offset=".9241" stop-color="#aa5f4b"/></linearGradient><path xmlns="http://www.w3.org/2000/svg" d="M200.5 318.1c9.8 4.4 12.9 8.2 12.9 8.2l9.5-11.6c8.3-10 10.9-15.3 10.9-15.3l-37.6-6.7c-1.2 2.6-3 6.2-4.5 8.4-1.3 2-5.5 7.5-5.5 7.5 1.3.7 6.1 5.9 14.3 9.5z" fill="url(#bt-C)"/><g xmlns="http://www.w3.org/2000/svg" fill="#ad5c49"><path d="M218.8 313.2l1.2-.1-.8-1.2zm-12.1-11.6l1.6-.2-1.1-1.5zm1-2.8l1.5-.2-1.1-1.5zm9.9 20.5l.3 1 .9-1zm-21.8-14.9l.6.5.2-.8zm-3.3-2.9l.7.5.2-.8zm14.6 7.5l.9.3-.1-.9zm4.2 5.6l.8.3v-1zm3.6.1l-.7-.2.2.7zm5.7-6.8v1.4l1.6-.6zm-8.3-6.1v1.4l1.5-.7zm5.5 3.3h1.2l-.8-1.4zm-15.8-7.2l-.2 1 1.1-.2zm-5.1 2.4l.4 1 .8-.8zm19.4 3.4l-.4-1.5-1.2 1zm-.7 2.4l.9-.5-1-.8z"/><path d="M213.7 306.2l1.1-.5-1-.9zm4.9 8.9l.9 1 .5-1.3zm-1.9 6.6l1.1-1.2-2-.2zm3.4-9.4l-.6 2 2.5-.2zM198.2 294l.4 3 2.7-2zm1 4.9l1.9-.4-1-1.7zm-3.8-3.4l1.8-.4-.9-1.7zm25.7 18.7l.2.8.6-.5zm-2.1-4l.3.8.6-.5zm1.9.2l.2.9.7-.6zm-14.3-11.3l-.2.7.9-.1zm11 11.8l.1.8.7-.5zm.6-1.9v.8l.8-.5zm2.6-5.4l.2.8.8-.4zm1.5 4.2v.9l.8-.4zm1.9-2.1l.1.8.7-.4zm3.7-3l.1.9.7-.4zm-2.2.9l.2 1.9 1.9-1.1zm-6.7-3.4l-.3.7h.9zm1.4-.6l-.3.7h.8zm2.4 9.7l.2.8.6-.5zm2.2-1.1l.1 1.3 1.4-.8zM202.9 296l.2.9.8-.7zm12.6 2l-2.9-.4 1.2 3.1z"/><path d="M220.6 298.7l-2.9-.3 1 2.5zm3.8.4l-2.9-.3 1 2.6zm-7 15.3v1l.9-.4zm1.5-13.4l-2.1-.4.8 2.4zm-5.6-.7l-1.6-1.4-.6 2.3zm4.6-.7l-1.6-1.4-.6 2.4zm-7.1-2.3l-2.1-.5.7 2.4zm18.1 9.4l-2.1-.4.8 2.3z"/><path d="M231 303.7l-2.2-.3.8 2.4zm2.7-4.1h-3.1l1.5 2.5zm-7.6.8l-1.7-1.3-.4 2.4zm-8.6 7.4l-.2-.9-.7.5zm-3.4.6v-.8l-.8.5zm-19.6-.7l-.2-.8-.7.5zm20.9 3.3l-.3-.8-.6.7zm-18.1-11.3l-.1-.8-.8.4zm19 19.3h.8l-.5-.8zm3.5-13.1l.4 1.1 1-.9zm-25.8-6.1l1.2-.1-.7-1.2zm2.9-2.5l.9-.5-1-.7zm7.3 2l.5 1.2.9-1zm13.7 18.4l-.3-1.4-1.3.9zm.5-10.1l1.1-.6-1.1-.8zm-15.6-9.8l.2 1.2 1.1-.7zm-1.6-2.9l.3 1.7 1.5-1zm11.2 25l.4.8.8-.6zm.5 4.3l.8.4.3-.9zm-7.1-21.8l-.6-.6-.3.7zm-5.2 1.5l-.6-.5-.4.8zm2.2 1.2l.9.5.2-1zm-2.4-2.4l.6.5.2-.8zm9.9 4.7l.8.2-.1-.9zm-2.9-4.1l.9.5.2-1zm13.2 14l1.2-1.4-2.1-.4zm-2.7 0l1-.5-1.1-1zm1.3 1.4l1-1.2-1.7-.4zm3.1-7.8l.8 1 .5-1.4zm.2-7.5l.8 1 .5-1.3zm-8.3-3.3l.3 1.2 1.1-.8zm-5.5-.1l.3 1.2 1.1-.8zm1.4-1.6l.3 1.2 1.1-.8zm13.7 12.1l.9.9.4-1.2zm-.5-2.8l.3 1.2 1.1-.9zm1.2-5.7l.6 1.8 1.5-1.3zm2.1-.6l.4 1.5 1.2-1zm2.8-1.2l.4 1.5 1.3-1.1zm.3 1.7l.3 1.4 1.3-1.1zm-9.4-.3l.5 1.6 1.4-1.1z"/><path d="M226.7 309.9l-1.5-.2.4 1.6zm-2.4 3l1.1-1.4-2.1-.3zm-2.8.2l1.1-.5-1.1-.9zm1.6 1.4l.8-1.2-1.6-.3zM204.9 296l.7 2.3 1.8-1.7zm12.2 17.5l-.7 1 1.3.4zm6.6-8.8l-.9 1 1.4.3zm-.2-3.5l-.8 1 1.4.3zm3.5-2l-1.2.4 1 1zm3.1.2l-2.6-.2.6 1.7zm-1.6 5.5l-1 .6 1.2.8zm-2.3 1.7l-1.1.6 1.2.8z"/></g><linearGradient xmlns="http://www.w3.org/2000/svg" id="bt-D" gradientUnits="userSpaceOnUse" x1="283.8815" y1="315.6732" x2="275.1664" y2="287.7827"><stop offset="0" stop-color="#cc7a5e" stop-opacity="0"/><stop offset=".9241" stop-color="#aa5f4b"/></linearGradient><path xmlns="http://www.w3.org/2000/svg" d="M275.7 318.9c10.6-2 23-9.9 23-9.9s-2.3-8.5-2.9-11.6c-1.6-6.9-3.7-12.5-3.7-12.5l-32 11.7s4.1 6.5 4.9 9c1.4 4.5 2.1 15.5 10.7 13.3z" fill="url(#bt-D)"/><linearGradient xmlns="http://www.w3.org/2000/svg" id="bt-E" gradientUnits="userSpaceOnUse" x1="239.8485" y1="264.4784" x2="258.14" y2="303.8447"><stop offset="0" stop-color="#cc7a5e" stop-opacity="0"/><stop offset=".9241" stop-color="#aa5f4b"/></linearGradient><path xmlns="http://www.w3.org/2000/svg" d="M242.6 270.3h0v.2-.2z" fill="url(#bt-E)"/><linearGradient xmlns="http://www.w3.org/2000/svg" id="bt-F" gradientUnits="userSpaceOnUse" x1="239.9066" y1="264.4513" x2="258.1982" y2="303.8176"><stop offset="0" stop-color="#cc7a5e" stop-opacity="0"/><stop offset=".9241" stop-color="#aa5f4b"/></linearGradient><path xmlns="http://www.w3.org/2000/svg" d="M242.6 270.2s-.1 0 0 0h0z" fill="url(#bt-F)"/><linearGradient xmlns="http://www.w3.org/2000/svg" id="bt-G" gradientUnits="userSpaceOnUse" x1="199.5132" y1="253.5268" x2="350.6362" y2="253.5268"><stop offset="0" stop-color="#874130"/><stop offset="1" stop-color="#531700"/></linearGradient><path xmlns="http://www.w3.org/2000/svg" d="M181.3 281.9c-.6.9-.4 2.2.4 2.9 3.9 3.7 17.3 13.6 49.6 14.6 34 1 57.9-12.3 64.4-16.3 1-.7 1.5-1.9 1.1-3.1-1.7-5.4-6.9-21.3-15.4-41.4-5.5-13-15.6-31-15.6-31l-67.5.05s.5 20.75-6.4 49.35c-2.6 11-8.4 21.2-10.6 24.9z" fill="url(#bt-G)"/><linearGradient xmlns="http://www.w3.org/2000/svg" id="bt-H" gradientUnits="userSpaceOnUse" x1="238.502" y1="235.2071" x2="240.8023" y2="191.9887"><stop offset="0" stop-color="#330900" stop-opacity="0"/><stop offset=".9975" stop-color="#330900"/></linearGradient><path xmlns="http://www.w3.org/2000/svg" d="M194.1 247.3s14.3-7.5 26-9.9c31.9-6.7 61.9 2.7 61.9 2.7l-7.1-15.5c-2.9-5.8-9.2-17.1-9.2-17.1l-67.4.1s-.4 12.3-1.5 20.8c-.8 7.1-2.7 18.9-2.7 18.9z" fill="url(#bt-H)"/><g xmlns="http://www.w3.org/2000/svg" fill="#491913"><path d="M243.1 212.4l.2 1.4-1.5-.4zm2.1-3.2l.2 1.4-1.5-.4zm-5.6.5h-.8l.4-.9zm5.1 5.2l-1.3.9-.3-1.9zm4.2-5.4l-1.4.9-.3-1.8zm3.5-.5l-1.4.9-.2-1.9zm-7.6 0l-1.4.9-.3-1.8zm-.6 2.1l-1.4 1-.3-1.9zm2.9-.2l-1.3.9-.3-1.8zm-7.3.1l-1.4.9-.3-1.8zm1.9-.4l-1.4.9-.3-1.8zm17.6 2.3l-1.4.9-.3-1.8zm-5.9 1l-.4-1.6 1.8.3zm2.7-1.2l-.5-1.6 1.9.3zm-7 .6l.3 1.4-1.6-.4zm-7.7 0l.2 1.4-1.5-.5zm17.1 1.6l.2 1.4-1.5-.4zm-7.3-2.3l.2 1-1.1-.2zm-6.3 0h.8l-.4.9zm4.3 6.7l.2-.8.7.6zm-2.1 3.3l-1 .2.3-1.1zm0-6.4v.9l-.8-.4zm-6.6 4.3l.7.2-.6.7zm17.7 5.3l-.9.2.2-1zm.1-6.3v.8l-.8-.4zm-6.7 4.3l.8.2-.6.7zm19.7.6l-.9.4v-1.1zm-1.6-6.2l.2.8-.9-.2zm-5.4 5.8l.8.1-.4.8zm1.3-1.4l-.9.3.1-1.1zm.1-6.2l-.1.8-.8-.5zm-6.8 4.2l.8.2-.6.7z"/><path d="M268.1 215.1l-.3 1-.8-.8zm-5.3-3.3l.7.4-.8.5zm.1 8l.5-.6.3.9zm-4.6-4.4v1.8l-1.8-.9zm-4 3.3l.8.2-.6.7zm5.9-2.4l-.4-.9h1zm-4-.1l-.7-.7.9-.4zm5.2-3.6l-.7.5-.1-.9z"/><path d="M254.1 209.5l.2.8-.9-.1zm4.2 7.4l-1.3.1.5-1.4zm1.3-8.4l-.2 1.1-1-.7zm-9.8 4.5l1.1.4-1 .8zm12.3 4.5l-1.1-.5 1.1-.8zm5.1-5.8l-.6.7-.5-1zm-9.7-1.5l.5.9-1.1.1zm-6.8 6.4l-.7-.6 1-.5z"/><path d="M255.9 213l-.7.5-.1-.9zm-7.4-3l.3.8-.9-.1zm2.3-1l.2 1.4-1.5-.4zm1.5 1.6l-.7 2.1-1.8-1.6zm-2.6 1.2l-1.8 1.1-.4-2.4zm9.1-.7l-1.9 1.1-.3-2.4zm4.7.1l-1.9 1.1-.3-2.4zm.8 1.1l-.7-2.1 2.4.2z"/><path d="M262.5 214.4l.4-1.6 1.4 1.2zm4.6.7l.1-1.6 1.6.8zm-8.6-2l.5-1.5 1.4 1.1zm6.4.4l.1-1.6 1.6.8zm.1-3.9l-1.9 1.1-.3-2.4zm-10.7.7l.2 1.4-1.5-.4zm.5-1.8l.2 1.4-1.5-.4zm-10.6 9.5l-.9.1.2-1zm-2.1-1.4l-.4-.8h.9zm2.6 3.1l-.1.8-.8-.4zM256 210h-.8l.3-.9zm-7.6 3.2l-.1.8-.8-.5zm11.5-4.5l-1.4.9-.3-1.8z"/><path d="M255.4 207.8h3.1l-1.3 3.2zm3.3 0l3.1-.1-1.3 3.2zm-7.3 0l3.1-.1-1.3 3.2zm12 0l2.32-.22-.52 3.32zm6.4 11.4l1.3-1.6 1.1 2zm-22.2-11.4l3.1-.1-1.2 3.3zm-3.2 0l3.1.1-1.5 3.1zm-3.9 0h3.2l-1.5 3.2z"/><path d="M265.7 209.4l-1.4.9-.3-1.8zm-3.3-1.2l.3 1.6-1.8-.5zm3.7 2.1l1-.05-.3 1.75zm1.65 1.1l1.08 2.22-2.03.08zm2.25 4.1l1 2-2.1.1zm-4.4-2.1l.4 2.4-2.2-.5zm-3.4-2.1l.6 3-2.9-.6zm11.3 11.2l.6 1.4h-1.4zm-2.4-1.9l.6 1.2h-1.3zm-4.9-2.4l.2 1.1-1-.2zm-7.8-5.8l.4 2.1-2-.4zm6.2 3.4l-.7 2-1.5-1.3z"/><path d="M268.3 215.9l.8 1.7-1.8.1zm-6 2.4l-.8-.5.8-.7zm4.2-4.8l-.5.6-.4-.8zm-7.9-1.1l.5.6-.9.2zm-4.5 4.6l-.6-.5.8-.4zm-2.1 1.9l-1.1-.8 1.4-.7z"/><path d="M256.4 217.7l-.6-.5.8-.4zm-2-1l-.5-.5.7-.4zm5.7 1.2l.2.6h-.7zm-8.7 4.1l-.8-.7 1-.6z"/><path d="M257 217.6l-.8.5-.2-1zm-8.5-2.9l.3.8h-1zm-25.5-2.3l.2 1.4-1.5-.4zm2.1-3.2l.2 1.4-1.5-.5zm-.4 5.6l-1.4.9-.3-1.8zm4.1-5.3l-1.4.9-.3-1.8zm3.8-.6l-1.3.9-.3-1.9zm-7.9 0l-1.4 1-.3-1.9zm-.6 2.2l-1.4.9-.3-1.8zm2.9-.2l-1.3.9-.3-1.8zm-5.4-.3l-1.4.9-.3-1.8zm-3.4-.5l.2 1.7-1.7-.5zm-1.8.6l-.7-1.5 1.8-.1zm23.2 2l-1.4.9-.3-1.8zm-5.8.9l-.5-1.6 1.9.3zm2.5-1l-.4-1.6 1.8.2zm-6.8.4l.2 1.4-1.5-.4zm-8.2.2l.3 1.4-1.6-.4zm-1.7-1.1l.2 1.4-1.5-.4zm11.5.5l.2.9-1.1-.2zm-6.3 0h.8l-.4.8zm4.3 6.7l.2-.8.7.6zm-2.1 3.2l-.9.2.2-1zm.1-6.3l-.1.8-.8-.4zm-6.7 4.3l.7.2-.5.7zm-.7 1l-.9.1.2-1zm.1-6.4v.8l-.8-.3zm-6.7 4.3l.8.2-.6.7zm25.5 6.1l-.9.3.2-1.1zm.1-6.3v.8l-.8-.4zm-6.7 4.3l.7.2-.5.7zm6.7-8.4l-.1 1.8-1.7-.9z"/><path d="M234.7 218.4l.8.2-.6.7zm3.6-2.4l-.7-.6 1-.5zm5.2-3.6l-.7.4-.2-.8zm-7.4-3l.3.7-.9-.1zm4.3 7.2l-1.2.2.4-1.4zm1.2-8.3l-.2 1-1-.6zm-9.7 4.5l1.1.5-1 .8zm11.3 3.2l-.9-.8 1.2-.5z"/><path d="M249.6 211.6l-.8.6-.2-1.2zm-9.1-3.8l.3 1-1.1-.1zm-9.9 8.8l-.7-.6 1-.5zm5.2-3.6l-.7.4-.1-.8zm-7.4-3l.3.7-.9-.1zm2.8-1.3l.2 1.4-1.5-.4zm1.3 1.8l-.6 2.1-1.8-1.6zm-2.9 1.3l-1.8 1.1-.4-2.4zm11.2-1L239 212l-.4-2.4zm-6.3-.7l.2 1.4-1.5-.4zm.5-1.7l.2 1.4-1.5-.4zm-10.9 9.6l-.9.1.3-1zm-4.8-.7l-.9.2.3-1.1zm2.8-.8l-.4-.7h.9zm-5.6-.8l-.4-.8h.9zm8.1 4v.8l-.8-.4z"/><path d="M236.2 209.8h-.8l.3-.9zm-7.9 3.4l-.1.8-.8-.6zm11.7-4.1l-1.4.9-.3-1.8z"/><path d="M235.4 207.9l3.2-.1-1.3 3.3zm-3.9.1l3.1-.1-1.3 3.2zm-3.6-.1l3.1-.1-1.3 3.2zm-10.4-.2h3.1l-2 2.5z"/><path d="M214 207.7h3.2l-2 2.5zm10.3.1l3.2.1-1.5 3.1zm-3.8-.1l3.1.1-1.4 3.2zm14 9l-.6-.5.8-.4z"/><path d="M232.4 218.6l-1.1-.8 1.4-.7zm4.4-1.2l-.6-.5.8-.4zm-2-1l-.6-.5.8-.4zm-3 5.3l-.9-.7 1.1-.6z"/><path d="M237.3 217.3l-.7.5-.2-1zm-8.5-2.9l.4.8h-1zm-20.3-1.6l.2 1.4-1.5-.5zm2.1-3.2l.2 1.4-1.5-.5zm-5.5.4h-.8l.3-.9zm5 5.3l-1.4.8-.3-1.8zm.1-5.9l-1.3.9-.3-1.9zm-.6 2.1l-1.4.9-.3-1.8zm3.4-.4l-1.4.9-.2-1.8zm1.4-1.7l-1.4.8-.3-1.8zm-9.2 1.9l-1.4.9-.3-1.8zm1.9-.4l-1.4.9-.2-1.8zm-.3 2.7l.2 1.4-1.5-.5zm10.3-.8l.1 1-1-.2zm-6.3-.1h.8l-.4.9zm4.1 6.8l.3-.8.7.6z"/><path d="M215.8 210.9l.2 1-1-.2zm-6.3-.1h.9l-.4.9zm4.2 6.8l.3-.8.7.6zm-.9 5.1l-.9.2.2-1zm.2-6.3l-.1.8-.8-.4zm-6.8 4.2l.8.2-.6.7zm3.3-2.2l-.9.1.3-1.1zm-2-1.5l-.4-.7h.9zm2.9 2.9v.8l-.8-.4zm-.5-11.9l3.1-.1-1.3 3.2zm-3.8-.2h3.2l-2 2.7zM205 213l-1.4.9-.3-1.9zm-6.5.8l-.2-1.7 1.8.6zm2.8-.5l-.4-1.6 1.8.3zm1.4.2v1.7l-1.8-.9zm-1.5 4.9l.8.2-.6.7z"/><path d="M204.6 217.5l-.7-.6.9-.5zm5.2-3.5l-.7.4-.1-.9zm-7.3-3.2l.3.8-.9-.1zm2.4 4.8l-.9-.8 1.3-.5zm9.6-3.2l-.8.6-.2-1.2zm-8.5-3.8l.4 1-1.2-.1zm63.15 5.46l.65 1.14h-1.6zm-68.15.24l-.5 1.7-1.4-1.3zm-.7-4.1l.2 1.4-1.5-.4zm.5-1.7l.2 1.3-1.5-.4z"/><path d="M201.7 210h-.9l.4-.8zm3.7-.6l-1.4.8-.2-1.8z"/><path d="M201.4 207.9l3.2-.1-1.4 3.3zm-3.12-.25l2.82-.05-1.3 3.3zm2.92 9.15l-.6-.5.8-.3zm.6 4.7l-1.1-.8 1.4-.7zm-1.8-3.2l-.6-.5.8-.3z"/></g><g xmlns="http://www.w3.org/2000/svg" fill="#441b18"><path d="M131.1 416.1c-.8 2.7 3.3 3.9 4.8 4.6l25 12c.7.3 1.4.4 2.1.4l25.1-.2c1.4.2 2.7-1 2.8-2.4l.2-2.9-27.6-.1-31.5-14.1-.9 2.7z"/><path d="M138.7 402.1c-.5-.3-1.3.1-1.9.7-1 1-3 2.6-3.9 6.3l-.8 4.3 31.4 14.2 27.6.1s.1-3.7-4.3-7c-2.6-1.9-10.5-2.4-16.1-7.7-.8-.8-7.2-8.8-7.2-8.8s-1-1.4-2.5.3c-1.5 1.6-3 2.7-2.1 5 1.1 1.8 3.1 5.4 3.1 5.4s-.9 1.1-2.4.2c-1.5-1.1-3.7-4.6-4.4-4.5s-5.3 0-9-1.2c-6-2.2-5.7-6-7.5-7.3z"/></g><path xmlns="http://www.w3.org/2000/svg" d="M191.2 428.2l-26.2-.1c-1.3 0-2.6-.2-3.8-.7l-29.6-13.7.4-.9 29.5 13.7c1.1.4 2.2.6 3.4.6l26.2.1.1 1zm-21.1-16s-.4 1.8-3.1 4.7l-3.8 4c-1.3 1.3.2 2.8 1.6 3.1 2.4.7 25.5.8 25.5.8s-1.1-2.9-3.8-4.6c-2-1.2-7.1-3.4-11.9-5-1.8-.6-4.5-3-4.5-3z" fill="#cf8580"/><g xmlns="http://www.w3.org/2000/svg" fill="#823d3d"><path d="M150.2 410.2l2.1.2-1 1.9zm2.3.2l2.3.1-.9 1.4zm8.1 1.6l-1.2-1.9 1.6-.1zm1.2 2l-1.1-1.8 1.7-.1zm.8 1.3l-.7-1.2 1.1-.1zm-3.6-6.1l-.4-1.2 1.4.3zm-.2-1.6l.4-1 1.1.8zm-10.8 2.2l2.1.3-1.2 2z"/><path d="M146 409.1l2 .6-1.4 1.8zm-2.4-1l1.9 1-1.7 1.5zm-3.2-3.2l1 1.6-1.6-.3zm1.5 1.8l1.6 1.4-1.7.3zm7.4 5.5l.8-.5.1.9zm-.6.6l.3-.8.6.7zm-.8-1.7l.7-.5.2.9zm-2.7.3l.5-1 .8 1z"/><path d="M143.8 410.3l.5-1.1.9 1zm.5 1.9l-1-.8 1.2-.5zm-1.2-2.1l-.9-.7 1.2-.6zm-1.9-1.3l-1.2-.3.9-1z"/><path d="M140.9 407.5l-1.2-.3.9-1zm1 2.7l-1 .5.1-1.1zm1.1-1.3l-1 .6v-1.2zm-.9-1.6l-.9.4v-1.2zm3.3 5.3l-.9-.8 1.1-.6zm-4.2-.8l-.7-.9 1.2-.3zm11 1.3v-1l.9.4zm2.4-1.3l-.1-.9.9.3zm-.9 1.1l.7-.7.4.9zm-3.3 1.5l.1-.7.7.3zm-1.6-1l-.6-.5.8-.3zm-1.6-.5l-.5-.5.7-.3zm.2-1.2l-.6-.4.7-.4zm-1.8-1.3l-.4-.5.7-.3zm5.3 1.8l-.5-.6.6-.2zm1.5 1.9l-.6-.5.6-.3z"/><path d="M154 413.7l-.6-.4.6-.4zm1.9-1.2l-.6-.4.6-.4zm5.8-.2l-.8-.7 1-.5zm-.8-1v-1l1 .5zm-1.5-1.1l-.5-.9h1.2zm-4.2 5.2l-.6-.4.7-.4zm1.7-3.4h-.8l.3-.7zm-.7-.7l-.8.2.2-.8zm1.9 4.3l-.6-.4.7-.4zm4.7-1.3l-.7-.7 1-.5zm-5.5-1.3l-.6.3v-.6zm3.2-3.1l-.6.2.1-.5zm2 5.6l-.6.3.1-.7zm.5-2.8l-.6.2.1-.6zm-7.6 5.7l-.6.3v-.6zm-17.2-8.3h-.6l.2-.6zm15.4 1.9l-.6-.4.6-.4zm-10.1-1l-.5-.5.7-.2zm-3.5-2.7l-.3-.7h.8zm-.7-5.6l.9 1.7-1.7-.4z"/><path d="M139.4 405.5l-1.1-.6.9-.8zm-4 .5l-1-.3.6-.9zm.7-1.4l-.8-.2.6-.8zm2.7 1.9l-.3-.7.8.1zm-1-2.8l-.1-.7.7.1zm-1.1 0l-.3-.7.8.1zm16.1 12.7l-.4-.3.5-.3zm-2.7-1.1l-.5-.3.6-.3zm11.4-6l-.2.6-.6-.4zm-1.7-1.6l-.2.6-.6-.5zm.6.9l-.1.7-.7-.6zm3.2 2.8l.5.3-.6.3zm-1.1-1.8l-.1.4-.4-.3zm-1.9-1.3l-.4.2-.1-.5zm0 .6l-.2-.4h.5zm-.9-1.7l-.2-.4.5-.1zm3.1 4.4l-.2.5-.4-.3zm-2.4-5.6l-.2.5-.3-.4zm-21.8 2.3l-.1-.6.5.1zm2.6 5.2l-.3-.5h.6zm-1.7-2.7l-.2-.5h.5zm8.8 4.3l-.4.4-.2-.5zm-5.6-3.9l-.4.3-.1-.6zm3.9 1.4l-.4.3-.1-.6zm-2.6 1.9l-.4.3-.1-.6zm2.9-.1l-.5.3-.1-.4zm-1.8-1.3l-.5.2-.1-.5zm-5.5-5.4l-.5.1.1-.5zm-3.5-1.3l-.5.4.1-.6zm-1.7.2h-.5l.3-.4zm-.1 1.2l-.6-.1.4-.5zm4.1-1.3l-.4.3v-.6zm-.7-1.1l-.4.3-.2-.5zm-1.8-.5l-.5.3-.1-.6zm2.1-.4l-.6.2.1-.5z"/><path d="M137.6 404.2l.1.5h-.5zm-.6-.8l.1.5-.5-.1zm.7-.7l-.5.3v-.6zm1.3.2l-.5.1v-.5zm-2.5 1.1l-.5.4-.1-.6zm3.5.9l-.4.2v-.5z"/></g><g xmlns="http://www.w3.org/2000/svg" fill="#441b18"><path d="M308.9 431c.4 1.4 1.8 2.2 3.2 1.8l54.4-14.7c1.4-.4 2.2-1.8 1.8-3.2l-.8-2.8-59.4 16 .8 2.9z"/><path d="M305.9 417.1c-.6-.2-1.3.4-1.3 1 .1 1.3.4 3 .9 4.7.9 2.9 2.6 5.4 2.6 5.4l59.4-16s-1.2-3.5-6.5-5.1c-5.2-1.5-33.7-6-33.7-6s-1.3 0-1.7 2.1c-.3 2.1.4 3.6 2 4.3s6.8 3.2 6.8 3.2-.4 2-2.2 1.5-5.2-1.5-5.9-1.2c-.6.3-4.2 3.6-9 5.5-4.7 1.7-9.3 1.1-11.4.6z"/></g><path xmlns="http://www.w3.org/2000/svg" d="M308.0775 427.8226l59.3414-16.156.2627.965-59.3414 16.156zM339 402.8s.4 3.3-1.1 6.9c-.6 1.4-1.3 2.7-2 3.8-.7 1.2.2 2.6 1.6 2.5 2.5-.2 6.2-1 11-2.2l17.1-4.2s-1.5-2.1-4.7-2.7c-2.9-.6-21.9-4.1-21.9-4.1z" fill="#cf8580"/><g xmlns="http://www.w3.org/2000/svg" fill="#823d3d"><path d="M321.8 414l1.8-1.1.3 2.1zm2-1.4l1.8-1.3.2 1.6zm6.1-4.3l-2-1 1.3-.9zm2.3 1l-2-.9 1.3-1zm1.9 1l-1.9-.9 1.3-1zm-7.1-3.5l-.9-.8 1.2-.4zm-1-1l-.3-1.1 1.2.1zm-6.4 9.5l1.8-1.2.3 2.3z"/><path d="M317.3 416.4l1.9-1 .1 2.2zm-2.5.8l2.1-.7-.4 2.3zm-5.9.4l2 .1-1.2 1.2zm3.2 0l2.1-.5-.9 1.7zm9.7-1.6l.4-.8.7.7zm-.1 1.3l-.1-.9.9.4zm-1.6-1l.4-.9.7.8zm-2 2.2l-.3-1.2 1.3.2z"/><path d="M316.4 418.5l-.3-1.1 1.2.2zm1.6 1.2l-1.2.1.5-1.2zm-2.2-.8h-1.2l.4-1.2zm-2.6.4l-1 .7-.3-1.2zm-1.9-.5l-.8.8-.4-1.3zm3.5.7l-.3 1-.9-.6zm-.3-1.5l-.2 1-.9-.6zm-2.1-.5l-.2 1-.8-.6zm6.7 1.7l-1.2.1.5-1.2zm-3.4 1.8h-1.3l.5-1.2zm8.8-6.1l-.5-.9 1-.1zm1.9-2.7l-.6-.8 1.1-.2zm-.6 1.9l.2-1 .8.6zm-1.7 3l-.4-.5.8-.2zm-1.9.6l-.7-.1.4-.6zm-1.6.4l-.7-.1.5-.6z"/><path d="M320.1 417.1l-.7-.1.4-.6zm-2.3.4l-.8-.1.5-.7zm5.3-2.3l-.7-.1.5-.7zm2 .4l-.8-.1.4-.6zm1.3-.9l-.7-.2.3-.6zm1.1-1.9l-.7-.1.5-.7zm3.4-4.9l-.9-.1.6-1zm-1.1-.4l-.5-.8 1-.2zm-1.8-.1l-.9-.5.9-.6zm.2 8.3l-.7-.1.4-.7zm.2-4.8l-.5.5-.4-.7zm-1 0l-.5.4-.3-.6zm3.5 3.7l-.8-.2.5-.6zm2.2-5.7l-1-.2.6-.9zm1.9 1.8l-.9-.4.8-.7zm-5.3 1.2l-.3.5-.3-.5zm-.9-5.3l-.4.5-.3-.5zm6.1 2.3l-.3.5-.3-.5zm-2.6-1.3l-.3.4-.3-.5zm-2.7 10.7l-.3.5-.4-.6zm-17.7 4.1l-.3.5-.4-.5zm13.3-9.1l-.7-.2.4-.6zm-8.5 6.1l-.7-.1.3-.6zm-4.7.4l-.7-.1.5-.7zm-5.5-2.6l1.9.3-1.2 1.2z"/><path d="M308.8 418.8l-1.1.6v-1.3zm-2.4 3.5l-.7.7-.4-1zm-.5-1.3l-.6.4-.4-1zm3.4-1.1l-.7-.3.5-.5zm-2.9-.9l-.6-.2.5-.5zm-.8 1l-.8-.2.5-.6zm20.9-2.4l-.6-.1.4-.5zm-2.2.6l-.5-.1.2-.5zm4.9-12.7l.2.7-.7-.1zm-2.3-.4l.1.7-.6-.2zm1 .3l.3.8-.8-.1zm4.3.6l.5.2-.3.5z"/><path d="M330.2 405.1l.1.5-.5-.1zm-2.3.1l-.3.4-.2-.4zm.4.5l-.5-.2.4-.4zm-1.7-1l-.4-.2.3-.3zm5 2.1l.1.5-.5-.1zm-5.1-3.5l.1.5-.5-.1zM310.7 421l-.5-.1.3-.5zm6.3.9l-.5-.1.3-.3zm-3.7-.1l-.5-.1.2-.5zm9.4-2.8l-.1.5-.4-.4zm-6.5 1l-.1.5-.5-.4zm3.8-1.7l-.1.6-.4-.4zm-.7 3l-.1.5-.4-.4zm1.9-2l-.1.5-.5-.3zm-2 .5l-.1.5-.5-.4zm-8.5.1l-.1.5-.5-.4zm-3.4 2.2l-.1.5-.4-.3zm-.9 1.5l-.4.4-.3-.6zm.8.8l-.4.4-.1-.6zm2-4.3l-.2.6-.4-.4zm-2.1.6l-.1.5-.4-.4zm-1.1.6l-.1.5-.5-.3zm1.2-1.9l-.1.5-.5-.3zm-1 .5l.5.2-.5.3zm-.7-.4l.4.2-.4.4zm-.2-.8l-.1.4-.5-.3zm1.2-1l-.1.4-.5-.3zm-.9 2.7l-.1.5-.3-.4zm3.2-2.5l-.2.5-.4-.3z"/></g><g xmlns="http://www.w3.org/2000/svg" fill="#ad5c49"><path d="M288.6 289.1l.5-1.1-1.5.1zm5.1 3.7l.9.3-.3-1.3zm-11.1 7.7l.8-.4-.7-.6zm12.7 1.2l.7-.3-.6-.6zm-14.8-9.8l.5.5.3-.6zm7.9 1.4l-.4.5.7.1zm2.7 3.1l.9.4v-1.1zm-2.6-.3l.4-1.1-1.4.1zm-6.3-.1l1.1.1-.4-1.1zm-10.8 2.8h1.1l-.5-1.1zm-4.4-.8h1l-.4-1.1zm23.7-3.6l-1.4-.2.3 1.5zm-3.5 2.5v-1l-1.1.6zm-6.7 2.2l1.2-.4-1-1zm-1.8-1.6l1.2-.4-1-.9zm-5.8-.2l1.2-.4-1-1z"/><path d="M268.9 298.7l1.2-.4-1-.9zm3.4-4l1.2-.4-1-.9zm8.2 2.1l1.2-.4-.9-1zm-1.7-2.7l1.2-.4-.9-1zm15.5 2.3v-1.2l-1.3.6zm-4-6.4l1.2-.4-.9-1zm4.6 4.9l-.2-1.4-1.5 1.4zm-16.9 4.7l1-.3-.8-.8zm-3.4-2.4l1.1-.3-.8-.8zm-3.2-.9l.5 1 .7-.9zm16.7-9l1.8 1.8.3-2.9zm-7.1 3.1l1.3 1.5.8-2.4zm3.8.8l.4-1.8-1.9.1zm5.6-5.1l.9 1.5.2-2zm-10.2 9.3l.9-.4-.8-.7zm-7 5.7l.9-.4-.8-.6zm7.1-1.3l.6.5.4-.7zm7.1-12.1l-2.5 1.2 2.4 2.2zm1.8 3.2l.9.3v-1zm-15.7 2.4l1.4 1.3.9-2.1zm7.3-2.8l-1.7.7 1 1.7zm5.5 0l-1.2 1.8 2.5.2zm-.4 2.6l-.8-.2.1.8zm2.9 6.1l-.8-.2.1.8zm5.6.8l-.8-.3.1.9zm-1.5 1.9l-.5-.6-.5.7zm3.8 1.6l-.3-.7-.6.6zm-15.8-.9l-.8-.3.1.9zm-15.3-3.8l-.8-.2.1.8zm9-3.2l-.8-.2.1.8zm1.6-.9l-.7-.2.1.8zm16.7-.9l.3-.8-.9.1z"/><path d="M285 295.7l1.3.1-.5-1.3zm7.5-4l-1.5-.3.3 1.6zm-.1 3.1v-1.2l-1.3.7zm.1-7.5v-1.2l-1.3.7zm-10.5 7.9l1.2-.4-.9-1zm10.1 2.4h.9l-.2-1zm-1.5 1.8l1-.1-.3-.9zm-19.2.9l-.6-1.2-.9 1.5zm-4.9-3.7l-.6-1.2-.9 1.6zm1.3-.2l.6-1.7-1.5.5zm3.4 8.5l-.7-.1.2.8zm-3.8-2.3l-.7-.1.2.7zm8.6-2.1l-.7-.1.2.7zm-7.8.3l-.5-.6-.4.7zm26-1.8l.9.1-.1-1zm1 .7l.9-.1-.3-.9z"/><path d="M293.5 289.4l-.5-1.8-1.5 1.5zm-1.5 2.2l-.1-1.2-1.3.6zm-15.8.7l2 1.7.7-2.8zm-1.8 6.3l1.2.9.3-1.6zm-11.6-2.4l1 .8.6-1.2zm13.7-.5l1.2 1 .3-1.6zM294 291l-.4-1.3-1.2 1.2zm1.6 6.8l-.3-1.4-1.4 1zm-13.5-4l2.3-.5-1.6-2zm-13.3.8l1.6 1.4 1.1-2.1zm19.5-3.9l.6 1.1.9-1.1z"/></g><g xmlns="http://www.w3.org/2000/svg" fill="#9b583b"><path d="M184.1 280.5l.2.3.3-.4.3.1-.1-.3v-.1h-.1l-.1-.3.2.1.6 2 .8-1.3v.1l1.3-.8-1.4-.9.1.9-.8-.1.2-1.1h.6l1.7.7v-.6h.1l-.1-.1-.1-1.8-.7.7-.5-.7 1.8-1.5-2.7-1.3v1.5l-.7-.5-1.8 3.6.8-.2-.2.4h.2l-1.6 1.1 1.7.5zm.3-1.8h0l-.2.2-.1-.1.3-.1zm1.5 6.9l.7-1.8-2.3.2.6.6-.6.5 1 .4-.2-.8.8.9z"/><path d="M186.46 274.48h.9v.9l1.2-.8v.8l.1-.1.2 1.6-.9.2.7.6.2-.7 1.4-1 .1.3.8-.9-.3-.1-1.2-.7.5-.3-.5-.3.7-.7-.7-.3h1l-.4-.6.5-.2-.7-.5-.1.4-.6-.8-.5-.6-.9-1.2v.1l-.1-.1-1.1 2.4-.5 1h.1l-.1.1.5.4.1.6-.5-.8.1 1.3zm2.2-1.2v.6l-.8-.5v-.2l.8.1zm17.94-38.58l.9.1-.3-.9-.6.8zm-4.9 1h-.2l.2-.2-2.2-.9.7 2.3.7-.8.8-.4zm-2.1 18.4l-.2-1.6-1.4 1.1 1.6.5zm-1.7 8.2v-1.6l-1.4 1.1 1.4.5zm11.9-5.2v-1.6l-.3.2-1-.5.1 1 .9-.5-1.1.7 1.4.7zm-6.2-11.7l-1.4 1 1.4.6v-1.6zm-.8-2.2l-.1-1.6-1.4 1 1.5.6zm-6 25.6v-.4l.1.3 1.3-.9-1.5-.5v.2l-1 .8 1.1.5zm2-37.4l.1.2-.7.1.5.7.9-1.5.2-.4-.6.1-.4-.4v-.1l-.1.1-.2-.2.3-.2-.6-.2v.2l-.3-.9-.6 2.6.7-.2.8.1zm.1-.5h0zm-.9-2.5l1.1.5v-1.4l-1.1.9zm13.5 5.2l-.7.3.4.3-.2.3h.7l-.2-.3v-.6zm-11.3-1.1l.2-1-.9.5.7.5zm2.1-4.3l1-.1-.7-.7-.3.8zm14.9 3.2l-.4.6.6.1-.2-.7zm-1-2.9l.5-.3-.6-.2.1.5zm4.4 1.7l.5.4v-.6l-.5.2zm-16.2-4.4l.4-.8h-.8l.4.8zm-5.5 25.4h0l.4 1.2 1.5-1.4-2.1-.8.2 1zm6.5 4.9h-.9l.4.9.5-.9zm-9.5.3l.3 1.1 1.5-1.3.1.6-.1.1.2.1v.1l.7.3v-.5l1 .4-.2-1.9-1.2 1-.7-.3.5-.5h-.1l1.1-.2-.9-.7-.2 1-.8-.3.3.9h.1v.2l-1.3-.6-.1-.2-.1.1-.6-.3.2.9-.1.2.4-.2zm4.4-12.6l-.6 1h.3l-.1 2.1.4-.3-.2.3h.1l.1.3-.2-.1.3 1.4.2-.1.5.1-.1-.4.8-.6-.8-.2.1-.2-.6-.2h.5l-.3-.7 1-.6-1.5-.8h.4l-.3-1zm9 8.1h-1.2l.7.9.5-.9zm-1.2-5.3l.9-.4-1-.4.1.8zm-5.1 14v.8l.9-.4-.9-.4zm-5.5-1.9h-1l.6.7.4-.7zm7.6-9.6l.3-.6h-.8l.5.6zm-.5-4.6v.5l.5-.3-.5-.2zm.2-7.1l.1-.8-.6.2.5.6zm1.8 2.8h.7l-.3-.4-.4.4zm-5.2-.7l.2.6.4-.4-.6-.2zm8.7-10.1l-.6.2.5.5.1-.7zm-3.3 3.4l.4-.4-.6-.2.2.6zm-4.9-5.8l.2-.7-.6.2.4.5zm1.9 2.8h.6l-.3-.4-.3.4zm.4-6.9l-.3.4h.5l-.2-.4zm-3.9 0l-.5-.2.1.5.4-.3zm16.9 15.7l.6-.4-.6-.3v.7zm-3.4 5.2l-.6.1.5.4.1-.5zm-3.5-5.3l-.2.5h.6l-.4-.5zm3.1 15.7l.5-.1-.4-.4-.1.5zm-1.7-5.6l.4-.5h-.6l.2.5zm-8.8 7.9l.3-.1-.7-.7-.3 1.1.4-.2-.5.5-.5-1-.7 1-1-.4.7 2-.3.3-.1-.2-.6.8h1l-.1-.2h.5l-.2-.5 1.4-1.3 1.5.1-.8-1.2zm-1 1.1h0zm-5.5 12.7l1-.6-1.7-1-.2 2.3.9-.7.4 1.6 1.1-1-1.5-.6zm-3.5 4.4l-1.3-.5 1.7-1.2h-.1l.4-.3.1.2.7-.6-1-.4.1.6-.5-.3-.1.7-1.5-.8-.2 2.3.1-.1.4 1.4.3-.3.4 1.5 1.4-1.4-1.4-.5.5-.3zm5.6-4.1l.1-.6-.6.3.5.3zm8-14l-.9 1 1.4.1-.5-1.1zm-5.3 5.5l-.2-.3-.6.8h.6l.1.5.7-.6-.6-.4z"/><path d="M199.6 253.2l.8.6.2-1.1-1 .5zm2.8-20.8l-1.2.1.5.9.7-1zm3.8-3.7l-.3-.9-.6.6.9.3zm1 6.7l-.1.9.9-.5-.8-.4zm-9.9 1.3l.5-.6 1.6-.4-.8-.7.2.1v-.5l1.2.5v-.1l.8-.6-.9-.4v-.7l-1.1.9v-.4l.3-.2h-.6l.6-.5-1.6-.6.2 1h-.1l.1 1.1-.2.2-.7-.6-.5 2.6.5-.1h.5zm6.2 1.7l-.2-.5-.5 1h.4v.3l.4-.2h.1v-.1l.3-.2-.5-.3zm-.3-2.5l-1 .6 1.2.4-.2-1zm-.3-4.8l-.3-1-.6.6.9.4zm1.8 2.5l-.1 1 .9-.5-.8-.5zm-3.7-3.4l-.4-1.1-.6 1 1 .1zm.4-5.3l.1.9.8-.5-.9-.4zm8.3-1l-.6.3.6.5v-.8zm-8.6 1.8l-.1-1-.7.7.8.3zm-.6-5.8v.7l.8-.3-.8-.4zm5.6 4.7l.2-.8-.7.2.5.6zm-1.4 4.4l-.1 1 .9-.5-.8-.5zm-11.8 56v-1.4l-1.1.9 1.1.5zm-1.1 1.2v-1l-.8.6.8.4zm.4-5.8l-.1.7.8-.2-.7-.5zm4.3 5l.4.7.3-.7h-.7zm3.8-1.1l.4-.8h-1l.6.8zm-5.4-1.2l.7.1-.2-.8-.5.7zm5-4.3l.7-.4-.7-.3v.7zm1.9-1.3l.4-.8h-1l.6.8zm-4.7-1l-.2-.8-.5.6.7.2zm4.3-5.1v.7l.7-.4-.7-.3zm-12.5 14.2l.4-.7-1-.1.6.8zm-1 2.2l-.1-.8-.5.6.6.2zm1.2-7.3l-.1-1.1-1.9 1.3.4.1 1.2.5v-.1l.6.2v-.3l.5-.3-.7-.3zm-1 3.1l-.2-.8-.5.6.7.2zm-1.6 3.1h.7l-.3-.8-.4.8zm3.7 2.6l.9-.3-.8-.5-.1.8zm2.7-3.9l-.2.7-.3-.1.3 1.1.7-.6-.4-.1.7-.2-.8-.8zm5.5-21.5l-.5.4 1.6.7v-1.1l.3.1.8.6.3-1.2-.4.2-.4-1.4-.7.9-.2-.3-.3.4-.3-.7-.3.6v-.1l-.6.6.7.3zm.1-.3l-.1.1h.3l-.2.2-.1-.3h.1zM181 283l1.3 2.3 1.8-2.9.2-.1-.2-.4.3-.4-.4-.1-1.4-1.1-1 1.8 1.2.3-1.8.6zm20.1-27.7l-.2-1.9-1.5 1.3 1.7.6zm-2.9 21.6l-.4.3h-.1l-1.1.9 1.6.6v-1.1l.8.8.5-1.5h-1.3zm-.8-9.7l.1-1.3-1.1.8 1 .5zm.5-7.1l1.1-.2-.9-.7-.2.9zm6.5 7.1l.5-1.1-1 .1.5 1zm5.4-3.7h-1.3l.8 1.1.5-1.1zm-7.2-1.5l-.7.9 1 .2-.3-1.1zm7.4 16.7l.6-1.1h-1.3l.7 1.1zm-6.7-2.5l-.7.9 1 .2-.3-1.1zm6.3-5l1-.4-1-.5v.9zM198.5 291l1 .2-.2-1.1-.8.9zm7.1-5.9l1-.5-1.1-.5.1 1zm-1.8 3.6l.5-1-1.3-.1.8 1.1zm-7.5-1.6l1 .2-.3-1.1-.7.9zm6.9-5.8l1-.5-1-.5v1zm-3.4-4.9l-.5-2.4-1 1.1-.2-.4-.8 1h.5l-.1.1 2.1.6zm4-3.9l-1-.5v1l1-.5zm-10 7.8l-1-.4.3 1.1.7-.7zm6.9-14.1l-.8 1.1h1.4l-.6-1.1zm-5.8-2.9l.2-1.1-1 .6.8.5zm-5.2 21.2l1-2.1-1.9.1.9 2z"/><path d="M191.8 278.3v-.5l-.7.6H190l1 2 .6-1.3.2.1v-.6l.1-.3h-.1zm13.4-19.6h-1.3l.9 1.1.4-1.1zm1.5 2.2l1 .2-.3-1.1-.7.9zm-18.8 8.4l2.3-.2.4.1v-.1l.4-.1-.3.3-.8.1.3.3-.1.1.5.2.2.2-.6.5.3.1.5.5-.1.1.8.5.2-1.1-.4.2.1-.4h-.2l.1-.3h.1v-.3l.3-1.1-.4.1v-.2l.6-.1.2.6.9-.8h.2l-1.3 1.1 1.6.5-.1-1.8.3-.5.5-.5-.5-.2 1.7-.2-1.5-2.6-.9 2.2-.1-.4.6-.8-.6-.1v-1l1.1-.1.4.2.1-.8-.5.3-1.3-1.2 1-.9.2.2.3-.4.4 1.4-.2-.1.3 1.4.1-.1.1.3 1.8-2-2.7-1 .3-.5-1.2.1-.5-.2v-.2l-.1.1-.4-.2 2.2-.5.2.9 1.5-1.4-.7-.3-.5-1.9-.3.3v-.8l-1 .9v-.7l.9-.8-1.7-.6 1.2-.2-.1.2.9-.3 1.5-.3-.5-.4 1.5-1.4-.3-.1 1.3-1.3-.5-.2.5-.5-2-.8.2.9-.1-.1v.1l-.5-.2.1-.1-1.7-.6 2.1-.4.8.9.4-.9h-1.1l1.1-.2-1.2-1.2.1-.3.3.2.2-1.1-.4.2.1-.4-1.1.2.5.5-.2.1.3.2-.2.1-1.3-1.7-.7 3.5-.5 1.8.8-.3.2 1 .5-.5.3.3.2-.8.1-.1.2.8h-.4l.6.7v.1l-.9-.4.3 1.1-1.4-.3-.2-.5-.4-.6-.9 3.7.4 1.5-.5.4-.2-.7-.8 4 .7-.2.1.5-.4.3-.9-.3-1.1 3.3.8.1.3 1-1.3-.5-1.8 3.9zm7.4-15.7l.3 1.1-.8-.7.5-.4zm-1.9 4.7l-.2.1.9.4-.2.3-1.3-1.2.8.4zm-1 4.1h0l-.1-.1.1.1zm-.5 2.3h.3l-.5.4.2-.4zm-.4 1.9l.5.2.3.6.3-.4.4.1-.1.3h.6l.1.5-.8.1-1.3-1.4zm-1-1.7l.6-.1.3.3h-.1l.1.2-.9-.4zm9.9 5.7l-.2.2-.4-.2v.4l-.5.6h1.1l-.1-.3h.6l-.5-.7zm2.5-2.7l-1.2 1.4 1.9.1-.7-1.5zm-8.4 10.2l-.1-.2-.1.1-.5-.2.5-.2-.9-.8-.4 1.3.8-.3.1.6-.4.5h.5l.3 1.1 1.5-1.3-1.3-.6zm6 2.4l-.8.5.6.4.2-.9zm5.4-11.1l1.6.1-.6-1.2-1 1.1zm-4.4 4.9l-.8-.4-.2-.4-.2.2-.5.6h.7l.1.6.9-.6zm-3.5-24.5l1.9-1.4-1.7-.9-.2 2.3zm5.8-8.8l-.2-1.9-1.5 1.2 1.7.7zm11 13.3l.5-1.1H214l.8 1.1zM208 252l-.7.9 1 .2-.3-1.1zm7.1-5.6l-1-.5v1l1-.5zm-11.2 3.5l-.9 1-.2-.3-.3.4v-.1l-.2.2-.4-.7-.7.9h1l-.3.3.7.1 1.8.3-.5-2.1z"/><path d="M207.4 248.9l1-.5-1.1-.5.1 1zm-3.1 4l-1.8.2 1.2 1.3.6-1.5zm-2.6-8.3l1.3-.9-1.5-.5.2 1.4zm4-3.1h0v-.4l-.8.3.5.5-.5.7h1.4l-.6-1.1zm-6.5-3.1l.2 1.1 1.5-.9-1.1-.3.1-.6-.7.4-.2.1.2.2zm-3.8 3.3l-.9 3.7.7-.1-.1.6-.1.1-.1.3.5-.1 1.1.5v-.7h.1l-.1-.1v-.7l1.2-.2.3.3-.8.6.5.2.8.6v-.3l.4.2v-1.5l.2-.3h-.2v-.1l-.1.1-.4-.4 1.1.2-.3-1.1 1.7-.2-1.4-2.7-.7 1.4v-.1l-1.2 1.6-.8-.8.5-.5h.1l.4-.3.4.2v-1.3l.1-.1h-.1v-.1l1.6-.3-1.8-1.5.1-.1v.1l1-.9.1-.2.3-.3h-.1l.2-.4-.9.1-1.3-.5.6 1.8-.5-.2v.1l-1-1-.9 3.7 1.8-.4v.1l-.7.5-1-.4.2.8v.1h-.5zm3.2 3h0zm-2.6.5l-.1.1-.1-.1h.2zm8.9 1.3l-.4.5-.1-.2-.6.8h1.1l-.2-.3h.6l-.4-.8zm2.6-2.8l-1.3 1.4h1.9l-.6-1.4zm2.9 1.5h1.6l-.6-1.2-1 1.2zm-4.3 4.8l-.8-.4-.2-.4-.2.2-.5.6h.7l.1.6.9-.6zm-1.2-9.8l.7-.5-.5-.2v-.1l-.2.1-.1-.1v.1l-.9.4.9.7.1-.4zm-4.4-17.1l-1.1.2.9.8.2-1z"/></g><path xmlns="http://www.w3.org/2000/svg" d="M244.2 121.4s3.6 22.9 7.7 42.8c.8 6.7 2.8 11.6 5.1 15.6 2.7 4.9 9.4 10.1 21.3 17.9 17.7 11.6 38.2 21.5 38.2 21.5s4.5 5.5 12 7c7.6 1.6 8.7 2.3 9.8 2.1 1.8-.3.9-1.9.9-1.9s2.1.5 2.9-.7c.7-1-.74-1.74-.74-1.74s1.28.27 1.48-.93c.1-.9-1.55-2.63-3.95-3.83-2-1-6-4.6-6.8-5.1s1.8-.4 3.5-.2c1.8 0 3.6-1 .6-2-3-1.1-5.2-2.3-6-2.6-.9-.2-3.9-1.4-6.1-1.3-1.5 0-4 .8-6.9-1.1-5-3.2-16.4-14.5-23.5-21.4-5.1-5-12.5-11.5-14-14.8-3.9-12.7-21.2-48.7-21.2-48.7l-14.3-.6z" fill="#ea9d7d"/><linearGradient xmlns="http://www.w3.org/2000/svg" id="tp-A" gradientUnits="userSpaceOnUse" x1="329.225" y1="207.97" x2="333.09" y2="204.418"><stop offset="0" stop-color="#cc7a5e" stop-opacity="0"/><stop offset=".924" stop-color="#aa5f4b"/></linearGradient><path xmlns="http://www.w3.org/2000/svg" d="M315.8 206.7l3.8 1.8s1.9-.4 4.9-.3 10.3 3.1 11.9 3.7c1.7.6 1.5 1.1 1.4 1.6 0 .5-.9.8-1.7.8s-4.8-.4-4.8-.4-2.5 2.3-5.8 1.9c-3.1-.4-5.2-3.5-5.2-3.5l-4.5-5.6z" fill="url(#tp-A)"/><linearGradient xmlns="http://www.w3.org/2000/svg" id="tp-B" gradientUnits="userSpaceOnUse" x1="282.644" y1="185.761" x2="299.868" y2="169.218"><stop offset="0" stop-color="#cc7a5e" stop-opacity="0"/><stop offset=".924" stop-color="#aa5f4b"/></linearGradient><path xmlns="http://www.w3.org/2000/svg" d="M275 151.8l-12.3-5.4s-1.1-.5-2.3 10.5c1 10.6 7.2 22.7 9.4 25.6 2.8 3.6 26.6 20.3 35.9 26.4 8.3 5.5 6.6 5.4 10.4 2 1.6-1.4 4.2-2.7 4.2-2.7l-4.2-2.1-30-27.7c-1.3-1.3-4.2-2.4-5.5-6.1-2.8-4.1-5.6-20.5-5.6-20.5z" fill="url(#tp-B)"/><linearGradient xmlns="http://www.w3.org/2000/svg" id="tp-C" gradientUnits="userSpaceOnUse" x1="264.989" y1="169.237" x2="266.788" y2="146.089"><stop offset="0" stop-color="#cc7a5e" stop-opacity="0"/><stop offset=".924" stop-color="#aa5f4b"/></linearGradient><path xmlns="http://www.w3.org/2000/svg" d="M255.4 176.3s2.4-.4 7-.8c11.3-1 17.3-3.4 17.3-3.4l-5.1-20.7-23.6 5.7c-.3 2.7 2.1 14.3 4.4 19.2z" fill="url(#tp-C)"/><path xmlns="http://www.w3.org/2000/svg" d="M339.7 219.5a89.11 89.11 0 0 1-6.7-4.9c1.6.2 3.6.4 4.5-.1.5-.3.7-.7.7-1.1s-.2-.8-.6-1.1c-.2-.2-.4-.3-1-.5l-2-.9c-.3-.1-.7-.3-1.1-.5-2.7-1.3-6.4-3.1-9.5-2.8-2.7.2-4.3.3-5.8-.4s-2.4-1.5-19.1-17c-16-14.9-17.6-17.5-17.7-17.6-.2-.2-.5-.3-.7-.2-.2.2-.3.5-.2.7 0 .1 1.3 2.5 17.9 17.9 16.9 15.8 17.7 16.4 19.3 17.2 1.7.8 3.5.7 6.3.5s6.4 1.5 9 2.7c.4.2.8.3 1.1.5l2.1.9c.3.1.6.2.7.3.2.2.2.3.2.3l-.2.2c-.8.4-3.54-.05-5.34-.35-.2 0-.66.15-.76.35s-.1.5.1.6 5.2 4.2 8.3 6.1c2.3 1.3 3.33 1.94 3.1 2.64-.22.67-.7.46-.7.46l-9.3-5.2c-.3-.1-.6 0-.7.2-.1.3 0 .6.2.7l8.85 4.95c.02.08 1.2.64.75 1.45-.4.6-1.98-.1-2-.1l-8.2-4.2c-.3-.1-.6 0-.7.2-.1.3 0 .6.2.7l8.2 4.2c0 .1.66.3 1.42.54.73.23 1.72-.3 1.98-.84.26-.6.1-1.1-.2-1.6.2-.1.3-.1.4-.2.2-.2.6-.5.7-1.3 0-1.1-.8-1.8-3.5-3.4z" fill="#cc7a5e"/><linearGradient xmlns="http://www.w3.org/2000/svg" id="tp-D" gradientUnits="userSpaceOnUse" x1="325.896" y1="220.121" x2="326.332" y2="211.345"><stop offset="0" stop-color="#cc7a5e" stop-opacity="0"/><stop offset=".924" stop-color="#aa5f4b"/></linearGradient><path xmlns="http://www.w3.org/2000/svg" d="M322.74 214.86s-2.9 2.1-1.7 4.8c1.1 2.5 3.8 3.1 5.3 3.1 2.4 0 4.8-2.9 4.9-5 .2-2.2-.7-2.7-.7-2.7s-2 1.3-4 1.3c-2.5.1-3.8-1.5-3.8-1.5z" fill="url(#tp-D)"/><path xmlns="http://www.w3.org/2000/svg" d="M329.2 224.1c-.2-.1-.3-.4-.2-.7l.6-1c.5-.8.9-1.5 1.3-2.6l1.2-3.3c.1-.3.4-.4.6-.3.3.1.4.3.3.6 0 0-.2.7-1.3 3.4-.5 1.2-1 2-1.4 2.8-.2.3-.34.56-.5.9-.1.17-.35.26-.6.2zm-2.9-7.7c-2.7 0-4.5-2.1-4.6-2.2-.2-.2-.1-.5.1-.7s.5-.2.7.1c0 0 1.8 2 4.3 1.8 2.8-.3 4.2-2 4.2-2 .2-.2.5-.2.7-.1.2.2.2.5.1.7-.1.1-1.7 2-4.9 2.4h-.6z" fill="#cc7a5e"/><g xmlns="http://www.w3.org/2000/svg" fill="#ffc1a6"><path d="M257.2 175.7l.4-.6.5.7zm3.4 3.8l-.3-.5.6-.3zm1.6-6.4l-.6.3v-.7zm-.9 8.1l.8-.2-.1.8zm.2 1.8l.8-.3-.1.9zm2.2 3.5v-1.1l1.1.5zm3.6 2.7h-1l.4-1.1zm-.7-2.8h-1.5l.7-1.4zm3.3 5.4l-1.3-.9 1.5-.8zm-13.5-13.2l-.7-2 2.3.3zm-2.6-6l-.7-2.7 2.9.5zm7.3 12v-.6l.7.3zm5.8-2l-.6-.1.4-.6zm-6.2.1l-.7-.1.4-.7zm.5-7.7l.6.5-.8.4zm-4 3.3l.5-.5.2.7z"/><path d="M263.4 180.2l-.3-.5.8-.1zm-9.2-6.7l2.1.4-1.2 1.9zm-1.6-6l1.4.5-1.1 1.1zm-.6-4.1l1.4.6-1.1 1.1zm6.7 16.4l.6.5-.9.2zm-1.3-1.5l.6.7-.9.2zm-2.8-6.1l.7.5-.8.5zm2.7-3.3l.6-.4.1.7zm2.7 8.5l-.2-.5h.8zm-2.2-6.1l-.2-.6.8.1zm-1-3l-.3.7-.7-.6zm-3.1-5.7l.5.4-.6.3zm2.3 12l1.1.7-1.3.8zm.9-3.5l-.4 1-.9-.9zm3.3 3.9l-.3.7-.5-.6zm-6.3-6.1l.5-.5.1.7zm11.3 7.6l.3.4-.6.2zm-3 1.3l.4-.2-.1.5zm3.3 2.4v-.4l.4.1zm1.6 6l-.5-.1.3-.5zm1.2-3.1l-.2.3-.4-.3zm-4.1 1l.3.2-.4.3zm10.6 4.3l-.4.3v-.5zm-.6-3.2v.4l-.4-.1zm-3 2.9l.5.1-.3.4zm-1.3-11.8l.1-.4.4.3zm-9.2-8.7v.8l-.9-.4zm-5.1-1.1l.7.2-.4.6zm2.4 6.2l.3-.6.4.5zm3.8 4.3l-.2.7-.7-.6zm-4.4-.7l.6.1-.4.6zm.5 4.9l1.4-.2-.4 1.6z"/><path d="M259.9 183.4l1.4-.3-.3 1.6zm1.9 2.1l1.8-.6-.1 2.2zm-3.4-7.5l1.3-.7.1 1.6zm1.5 3.3l.2-1.4 1.4 1zm-1.9-6.1l-.2-1.5 1.6.6zm-1.4-11.2l-.5.6-.5-.6zm-2.4 1.2l-.4.7-.6-.8zm1.7-3l.2-.5.5.5zm1.4 6.9l.3-.4.3.4zm-2.9-2.9l.1 1.3-1.4-.6zm3.3-.9v.6l-.7-.2zm2 8.4v.6l-.6-.3zm5.3-4l-.2.7-.4-.6zm-7.7-8.3l.5.2-.4.4zm0 6.5l.3-.4.3.5zm7.6 20.1l-.1-.8.9.3zm5.2.4l-.7-.1.5-.7zm-3.2-5.7l-.2.6-.5-.5zm.2 2.9l-.1-.7.8.2zm5.2.4l-.8-.1.4-.7zm-3.2-5.7l-.3.6-.5-.5zm.6 1.4l.4.6-.8.2zm-4.8 1.8l.6-.2-.1.7zm5.2 3.8v-.6l.7.2zm3.6 5.3l-.2-.7 1 .2zm5.1.3h-.6l.4-.6zm-3.1-5.6l-.3.6-.5-.5zm1.9 6.9l-.1-.7.9.2zm5.1.3h-.6l.3-.6zm-3.1-5.5l-.3.5-.5-.4zm-11.2-1.1l-.3-.8 1 .2zm-5-3.6l-.1-.8.8.2z"/><path d="M272.6 190.9l-.2-.7.9.1zm7.6 3.6l-.7-.3.8-.5zm-22.5-13.7l-.8-1.2 1.7-.3zm15.9 7l-.7.1.3-.7zm-3.6-5.4l-.2.6-.5-.4zm-8.1-5.4l.1-.8.8.4zm-3.6-4.9l.1-.8.6.5zm6.7 9.1v-.7l.8.4zm6.1 5.8l-.5-.6.8-.3zm-16.8-21.5l-.6-.6.9-.3zm12.4 13l-.6-.1.6-.5zm-1.6-6.1l-.4.5-.4-.6z"/></g><g xmlns="http://www.w3.org/2000/svg" fill="#af6b56"><path d="M267.9 165l.6-.3v.7zm1 4.1l-.1-.6.6.2zm3.6-3.7h-.5l.2-.6zm-2.1 5.8l.3-.2-.1.5zm.1 2.5v-.3l.4.2zm2.6-1.9l-.3-.1.2-.3zm-11-12.3l.7-.1-.2.7zm.5-.8l1.5-.3-.5 1.4zm17.7 13.9l.8 1.4h-1.4zm3 5.7l.2 1.3-1.2-.5zm4.4 2.6l-1.3.4.3-1.3zm-1.8-1.9l-1.3.4.3-1.2zm9.6 10.1l-.9.2.3-.9zm-14.1-8.9l.8-.3-.7-.5zm1.4 1.8l.8-.3-.7-.6zm3 2.6l.9.4-.2-.9zm.3-1.4l.8-.4-.7-.5zm5.8 4l.8.5.1-.8zm-3-3.2l.8.4-.2-.9zm-.1 2.2l.7.3v-.7zm-4.8-1.7l.7.3-.1-.7zm-4.6-5.3l.8.3-.2-.8zm.7-3.7l1 .1-.4-.8zm2.4 2.1l.8.3v-.8zm-1.4-2.3l.9-.3-.6-.6zm-1.8 1.4l.8-.3-.6-.5z"/><path d="M279.8 176.3l1.1.1-.6.9zm-1-.4l.2 1.1-1-.3zm.4-5v.9l-.7-.4zm-2.3 5.9l.3.9-.8-.3zm2.9-2.4l-.2.8-.6-.5z"/><path d="M279.2 174.6l1.1.1-.5.8zm2.3 2.1l1 .4-.9.7zm-11.9-19.5l1.6-.2-.5 1.3zm2.9-.6l1.5-.2-.6 1.4zm.5 3.5l1.5.3-.9 1zm4.9 5.4l-1.4-.4 1.1-1zm1.4 5.7l-1.2-.4.9-.9zm-4.4-6.4l-1.3-.3.8-.9zm2.6-1.3l-1.3-.3 1-1.3zm-3.7-1.6h-1.3l.7-1.1zm3.3-.8l-1.3-.4 1-.9zm-1.8-2.4l1 .8-1.1.5zm-18.3 1l1.5-.1-.5 1.3zm-5.1 1.1l1.5-.2-.5 1.3zm2.7.8l.8-1.3.6 1.3zm2.3 3.9l.6-.9.6 1zm-3.3 0l.5-.8.4.8zm-1.3-1.9l.6-.8.3.9zm3.1.2l.4-.8.5.9zm6.7 1.7l.6-.9.3.8zm3.8-1.5l-.4-.9.9.1zm2 2.6l-.4-.9h1zm4.6.7l-.5-1.1 1.2.1zm.8-.8l-.5-1.1 1 .1zm2.6 1.6l-.4-1.1 1 .1zm-4.1 2l-.4-1.1.9.1zm-11.3-1.2l-.1-.9.8.1zm.4 3l-.3-1 .8.1zm12.4-.8l-.4-.9h.8zm4.7-.9l-.4-.9.8.1zm1.3 3.7l-.3-1 .8.2zm-3-3.3l-.4-.9h.8zm1 2.8l-.8-.4.6-.5zm1.2-5.3l-1-.3.6-.6zm-2.5 3.4l-.9.3-.1-.8zm-2 1l-.9.4v-.8zm-.7 3.4l-.7.2v-.6zm2.6-1l-.1.8-.6-.3zm-4.1-3.9l-.1.8-.5-.4zm-1.3-8l-.3.8-.5-.4zm-10.1-.3l.8-1.2.6 1.4zm-1.9-2.4l.7-.9.5.9zm2.2-.5l.6-1 .4 1zm3.8-.8l.6-.9.4 1zm-1 2.3l1.1-.2-.3 1zm-10.8.7l1.1-.2-.4 1zm8.4 2.1l.5-1 .6.9zm5.7-2.5l.5-1 .6.9z"/><path d="M268.5 158.2l.5-.9.5.9zm1.9.8l1.1-.3-.2 1zm3.2-1.3l1-.3-.2 1zm-3.9 4.5l1-.3-.2 1zm-4.5 1.9l1-.3-.2 1zm3.5-2.9l1-.3-.2 1zm-3.9.4l-.5-1 1 .1zm1.9-1.9l.6-1 .4 1z"/><path d="M271.1 157.7l.6-1 .4 1zm-4.6.2l1.4-.3-.4 1.4zm-5.4 3l.1-.6.5.3zm7.2-2.3l-.6-.2.4-.4zm-9.6 2.4l.4.5-.8.1zm-3.9 1.3l.5-.2-.1.6zm4 3.3v-.5l.6.2zm5.6 3.1l-.4-.1.3-.4zm1.1-2.5l-.2.4-.2-.3zm-3.3.5l.3.2-.4.2zm11.7 14.9l-.4-.1.2-.3zm-.4-3.9v.2l-.3-.1zm-2.9 1.8l.2.1-.2.1zm-5.1-4.1l-.5.2.1-.5zm-3.5-4.3l.1.3h-.5zm-2.1 4.2l.4.1-.1.3zm8.2-3.1l-.3.1v-.4zm-2.6-3.3l.1.4-.4-.2zm-1.5 3.3h.3l-.2.3zm10.8.5l.1.3-.4-.1zm-1.3 3.8h.3l-.1.4zm4.3-.2v.3l-.3-.1zm-.5-6.2l.2.2-.3.2zm.4 4l.3-.2.1.4zm2.1 1.8l.3.1-.2.2zm1.4 2.7l.1-.2.2.3zm-14.8-12.7l-.3.2v-.5zm-2.8-3.6l.1.3h-.4zm-1.8 3.6h.3l-.2.3zm2.1-1v.4l-.5-.2zm-4.5 1.1l.3.1-.2.3zm2.5 3.1l.2-.3.2.3z"/><path d="M264.4 169.9v.5l-.5-.2zm-5.5 1.4h.4l-.2.5zm3.1 3.6l.1-.3.4.3zm6.4-2.9l.4.1-.1.3zm1.1 4.6l.1-.3.3.2zm3.2-2.5l-.3-.1.2-.3zm-3.1-16.4l.3.4-.6.2zm-3.3 1l.5-.1-.1.5zm3.4 2.8l-.1-.5.5.2zm-3.2.7l-.3.4-.3-.6zm-1.9-2.8l.2.4-.5.1zm-1.6 4l.4-.2v.6zm3.6-3.4l-.3.5-.4-.4zm-3 2.5l.3-.3.2.4zm8.9 0l-.3.5-.4-.5zm-2.3-2.5l.3.3-.5.2zm-1.1 4.2l.4-.2-.1.5zm6.1-5.3l-.5.4-.1-.6zm-3.8-1.6l.2.4h-.6zm0 2.3h.4l-.1.3zm-8.7 1.7l-.1.4-.5-.3zm-2.8-2l.3.3-.4.2zm0 4.4l.3-.3.2.5zm-2.9-2.2l-.1.5-.5-.4zm-3.4-.4l.4.2-.5.3zm.6 2.9l.4-.3v.4zm5.2-1.5l-.1.5-.4-.4zm-2.9-1.9l.5.3-.5.2zm.1 4.3l.3-.2.1.5zm15.5-5.7l.1-.7.6.4zm3.7 1.6l-.5-.2.4-.4zm-1-4.4l-.3.4-.3-.6zm-6.2 3.8l-.4-.3.6-.2zm-13.5 6.1l.3-.5.4.6zm3.3 2.7l-.5-.3.5-.3zm.5-5.2l-.4.3-.1-.6zm-1.7.2l.3-.6.4.6zm3.2 2.6l-.5-.3.6-.3zm.6-5.2l-.5.3-.1-.6zm10.2 8.1l-.4-.4.7-.2zm3.6-1.9l-.4.3-.1-.6zm-4.6-2.5l.2.5-.6-.1zm3.1 2.7l-.6-.2.5-.5zm2.5-3.4l-.5.5-.2-.5zm-5.3-.2l.2.4-.5.2zm10.5 13.7l.3.2.1-.4zm1.1-2.7l-.2.3h.4zm2 3.1l-.3-.1.1.4zM273.3 164h.4l-.3-.4zm-1-2.2v.3l.4-.3zm3 .5l-.2.2.3.1zm2.6 6.9v-.4h-.4zm-3-.2l.4.1-.1-.3zm2.1-2.9l.1.3.4-.2zm2.6 11.6v-.3l-.3.2zm-1.3-1.7l.3.2v-.2zm12.3 9.7v-.3l-.2.3zm-3.3-.1l.4-.1-.3-.2zm1.5-2.5v.2l.2-.2zm-1.6.4l.2-.2-.4-.2zm-2.9-2.7l.2.1v-.4zm.4 5.6l.2-.4h-.3zm-2.9-2.8l.3.1-.1-.3zm3.2-1.3v.3l.3-.1zm6.9 10.6l.3-.5h-.5zm-3.5-3.3l.3.1v-.4zm3.9-1.6l-.1.4.4-.1zm-12.7-3.5l.2-.2-.4-.1zm-2.4-2.1l.3-.1-.1-.2zm2.6-1.2v.3l.2-.1zm-.8 1.5l.3.1-.1-.4zm1-3v.1l.2-.1zm2 1.8l-.3.1.3.2zm-.5-7.2l.4-.2-.4-.3zm-1.8-2.1l.3.3v-.3zm-1.1 6.8l-.2-.2-.2.3z"/></g><path xmlns="http://www.w3.org/2000/svg" d="M227.3 104.1c6.1-3.8 15.6-6.2 31 14.1 13.3 20 16 29 22.5 38.1 6.2 8.7 20.2 25.2 20.2 25.2l-19.3 25.4-27.3-19.2c-6.5-8-18.1-29.9-31.1-57.1-4.7-10.1-5.3-20.6 4-26.5z" fill="#843720"/><linearGradient xmlns="http://www.w3.org/2000/svg" id="tp-E" gradientUnits="userSpaceOnUse" x1="292.92" y1="166.241" x2="240.635" y2="147.195"><stop offset="0" stop-color="#5b1219" stop-opacity="0"/><stop offset=".998" stop-color="#5b1219"/></linearGradient><path xmlns="http://www.w3.org/2000/svg" d="M227.3 104.1c6.1-3.8 27.3 2.5 37.9 25.7 14 26 22.8 36.1 25.3 38.8 1.5.9-3.1 11.4-6 16.1-5.7 9.3-7.7 15.6-8.8 17.5-6.1-4.2-9.8-7.3-20.9-14.8-7.9-5.3-18.4-29.7-31.4-56.9-4.8-10-5.4-20.5 3.9-26.4z" fill="url(#tp-E)"/><path xmlns="http://www.w3.org/2000/svg" d="M305.1 187.3l-16.9 23.4c-.4.5-1.1.6-1.6.2l-5.5-4.3 19.1-26.1 4.8 5.2c.5.4.5 1.1.1 1.6z" fill="#c26419"/><linearGradient xmlns="http://www.w3.org/2000/svg" id="tp-F" gradientUnits="userSpaceOnUse" x1="192.234" y1="146.6" x2="271.502" y2="146.6"><stop offset=".298" stop-color="#9b4828"/><stop offset="1" stop-color="#843720"/></linearGradient><path xmlns="http://www.w3.org/2000/svg" d="M202.7 153.5h65.4c-.4-4.9-.8-8.9-1.1-11.2-.1-.9-.3-1.7-.5-2.6h-61.2l-2.6 13.8z" fill="url(#tp-F)"/><linearGradient xmlns="http://www.w3.org/2000/svg" id="tp-G" gradientUnits="userSpaceOnUse" x1="192.234" y1="173.1" x2="271.502" y2="173.1"><stop offset=".298" stop-color="#9b4828"/><stop offset="1" stop-color="#843720"/></linearGradient><path xmlns="http://www.w3.org/2000/svg" d="M197.7 179.7h72.2l-.9-13.2h-68.8l-2.5 13.2z" fill="url(#tp-G)"/><linearGradient xmlns="http://www.w3.org/2000/svg" id="tp-H" gradientUnits="userSpaceOnUse" x1="192.234" y1="113.39" x2="271.502" y2="113.39"><stop offset=".298" stop-color="#9b4828"/><stop offset="1" stop-color="#843720"/></linearGradient><path xmlns="http://www.w3.org/2000/svg" d="M229.1 100.1c-3.6.1-15 .3-21.4 26.6h54.6c-6.5-14.1-18.4-27.2-33.2-26.6z" fill="url(#tp-H)"/><linearGradient xmlns="http://www.w3.org/2000/svg" id="tp-I" gradientUnits="userSpaceOnUse" x1="192.3" y1="200.35" x2="271.6" y2="200.35"><stop offset=".298" stop-color="#9b4828"/><stop offset="1" stop-color="#843720"/></linearGradient><path xmlns="http://www.w3.org/2000/svg" d="M192.3 208.1h79.3l-.9-15.5h-75.4l-3 15.5z" fill="url(#tp-I)"/><path xmlns="http://www.w3.org/2000/svg" d="M195.2 192.6h75.4l-.8-12.9h-72.2l-2.4 12.9zm5-26.2l68.8.13-1-13.03h-65.4l-2.4 12.9zm7.5-39.7c-.8 3.4-1.6 7.2-2.2 11.5a19.71 19.71 0 0 0-.3 1.5h61.2c-.8-4.2-2.3-8.6-4.2-12.9h-54.5v-.1z" fill="#c26419"/><linearGradient xmlns="http://www.w3.org/2000/svg" id="tp-J" gradientUnits="userSpaceOnUse" x1="247.251" y1="161.533" x2="188.637" y2="148.792"><stop offset="0" stop-color="#5b1219" stop-opacity="0"/><stop offset=".998" stop-color="#5b1219"/></linearGradient><path xmlns="http://www.w3.org/2000/svg" d="M226.2 100.4s12.8-3.2 25.1 9.8c5.5 7.2 9.4 43.9 9.9 64.8.4 21-16.2 31.6-26.7 32.5-6.5.6-41.6.5-41.6.5l3.6-27.7c0-23.2 29.7-79.9 29.7-79.9z" fill="url(#tp-J)"/><path xmlns="http://www.w3.org/2000/svg" d="M233.3 159.9s4.2-26.9 3.7-41.7c-.5-14.1-9.5-19.6-19.4-19.7-14.3-.3-20.6 8.9-27.3 22s-9.3 36-9.3 36l48.1-30.1-4.2 32.8 8.4.7z" fill="#71a1bf"/><path xmlns="http://www.w3.org/2000/svg" d="M171 150.9l-8.4 54.7c-1.3 12.2-1.9 29.7 35.6 33.9 33.7 3.8 40-6.4 42.4-24.7s5.4-57 5.4-57l-75-6.9z" fill="#94cbed"/><path xmlns="http://www.w3.org/2000/svg" d="M236.7 157l-5.3 56.9c-2 15.8-6.8 25.6-28.5 26 29.6 2.3 35.5-7.7 37.8-25.1 2.3-18.3 5.4-57 5.4-57l-9.4-.8z" fill="#71a1bf"/><g xmlns="http://www.w3.org/2000/svg" fill="#843720"><path d="M253.7 198.8l-.9-.5-.1 1.2 1-.7zm-3.9 1l-.6-.3.3-.4-.7-.2v.4l-.6-.4v.7l.5-.3v.4l.2-.2v.6l.9-.3zm2.3 4l-.4.6.6.1-.2-.7zm.2-1.2l-.1-.7-.4.6.5.1zm1.8-9.6l.1-.7-.6.3.5.4zm.6 12.6l.1-.7-.6.3.5.4zm1-5.8l.3-.4-.4-.1.1.5zm-1.3 2.2h.4l-.3-.3-.1.3zm3.6-.5l.1-.4-.4.1.3.3zm-11.2 4.6l-.1 1 1.1-.5-1-.5zm1.5-4.9l-.6-1-.5.8-.7.2.4.5.3-.5h1.1zm2 4.1l-.5.9 1.2.1-.7-1zm-.6-4.1l.3.5-.2.6.6-.1-.1-.2.4-1-1 .2zm3.4 5.6l.4-1.1h-1l.6 1.1zm-8.7.8l.4-1.1-1 .1.6 1zm4.9.3l.5-.6-.7-.2.2.8zm-2.9-.4l-.4-.6-.3.5.7.1zm2.5-4.7l-.6.3.4.4.2-.7z"/><path d="M248.6 206.5l-.7.2.5.5.2-.7zm.1-2.3v-.7l-.7.4.7.3zm-.2-1.7v-.7l-.7.4.7.3zm1.6-5.3l-.6.4.6.2v-.6zm-2.4 2.1v.6l.5-.3-.5-.3zm9.1-2.4l.3-.2-.3-.2v.4zm-2.3 3.3l-.1-.4-.3.3.4.1zm-4.6 3.7l-.3.2.4.2v.2l1.4-.7-1.3-.6-.2.7zm-.1-9.3l.1-.6-.5.2.4.4zm-.8 10.8h0l-.5-.5-.1.8-.2.2.8.2v-.7zm5-10.9l.7-.1-.5-.5-.2.6zm5.9-2.4l.4-.3-.4-.2v.5zm-7.8 2.2l.3.5.4-.3-.7-.2zm1.3 2.7l.7-.8-1.1-.3.4 1.1zm-2.1-2.9l-.7-.2.3.6.4-.4zm-.8 1.5l-.7-.2v.1h-.2l.4 1.5.9-1.2-.4-.2zm-3.8 9.6l-.7.1.4.5.3-.6zm-1.7 1.2l.3-.6-.7.1.4.5zm.9-9.1l.5-1.1-1.2.3.7.8zm-1 2l.7.8.5-1.1-1.2.3zm-1.6 7.5l-1.2.3.6.9.6-1.2zm4.2-1.5l-.1.8.6-.3-.5-.5z"/><path d="M243.6 206.1l-.4-.4h.7l-.4-.7 1 .6-.4-2.1.5-.3-.6-.5 1.1-.6.1 1.1 1.2-.8-1.2-.4.2-.1-.3-.1.4-.7-1-.2.2.6-.7-.5.7-.4-1.2-.7 1.4-1.2 1-.2-.4.9.6-.1-.6.7 1.2.4-.4-1h.4l.1.1.2-.7-.7.2-.4-.5.8-.2-1.3-1.1-.4 1.4-1.9-.4 2-1.3-1.2-.9.8.1.2.5.9-1.1h-.9l.8-.4-1.3-.6.1 1.1-.4.5-.8-.6.6.1v.1-.1l.3.1-.2-.5.2-.9-1.2.3.3.4-.3.3-.2-.3-.3 3.9.7-.6.4 1.5-1.2-.7-.2 2.6v.9l-.2 1.2v.9l-.4 2.8 2-1.4zm-1.1-1.6l.6.3-.3.6-.9-.9 1.6-.7-1 .7zm1.5-3.3l-.2 1.2-.7-.6.9-.6zm1.2 2.2l-.7 1.5 1.8-.2-1.1-1.3zm1.4-7.2v1.6l1.7-.9-1.7-.7zm1.4 6.8h0l-.4-.4h-.1l-.5-.4-.2 1.2.3-.2h1l-.1-.2zm.8-1.8l.5-.3-.7-.4.2.7zm1.4-3.7l.4.4-.1-.5-.3.1zm.6 2.6h0l-.3.3 1.6.8-.3-1.7-1 .6zm2.6-2.8l-.2.4.4.1-.2-.5zm-2.8 9.5l-.3-.1.3-.2-.7-.2v.7l.3-.3.1.4.3-.3zm2.3-2.5l-.3-.4-.2.4h.5zm2.4-25.6l-.9-.5v1.2l.9-.7zm-4 1l-.6-.2.3-.4-.7-.2.1.4-.7-.4v.7l.5-.3v.4l.2-.2v.6l.9-.4zm2.4 4l-.4.6.6.1-.2-.7zm.2-1.2l-.1-.7-.4.6.5.1zm1.8-9.6l.1-.7-.6.3.5.4zm.7 12.7l.1-.7-.6.3.5.4z"/><path d="M257.2 179.8l.3-.4-.4-.1.1.5zm-1.3 2.2h.4l-.3-.3-.1.3zm3.7-.6l.1-.4-.3.2.2.2zm-11.3 4.6l-.1 1.1 1.1-.5-1-.6zm.4-5.1l-.7.2.5.5.2-.7 1.2.1-.6-1-.6.9zm3.2 4.4l-.5.9h1.2l-.7-.9zm-1.4 4.4l-.5.9h1.2l-.7-.9zm.8-8.4l.4.5-.2.6.6-.1-.2-.2.4-1-1 .2zm3.3 5.4l.4-1.1-1 .1.6 1zm-2 1.4l.7 1 .4-1.1-1.1.1zm-3-13h-1l.7 1 .3-1zm6.3 14.9l.2-.6-.7.2.5.4zm-11.8 3.3l1.5 1.1v-.3l.8.5-.1-1.1-.7.4-.1-1.5-1.4.8-.2-.2-.9 1.4 1.6-.1-.5-1zm6.4-5.7l.2.8.5-.6-.7-.2zm-1.3 2.2l-.4.5.7.1-.3-.6zm.9-1l-.4-.5-.4.5h.8zm.3-6l-.7.2.4.4.3-.6zm-.4 4.2l.2-.7-.7.2.5.5zm.2-2.8v-.7l-.7.4.7.3zm-.1-1.7v-.7l-.7.4.7.3zm1.5-5.2l-.6.4.6.2v-.6zm-1.8 2.4l-.6-.4v.6l.6-.2zm8.5-2.9l.3-.2-.3-.2v.4zm-2.4 2.9l-.3.3.5.2-.2-.5z"/><path d="M244.7 192.6l-.3-.3 1.5-.1-.3.2.3.1-.3.8 2.7-1.2-.2.5.7-.2-.6-.4v.1l-1.6-1.5.6-.2-.4-.4-.2.6-.2-.2-.1.1-.8-.7-.2.9-.5-.9.7-.4v.2l1.3-.8-1.2-.5 1.5-.7.2.3.4-.7-.3.1-1.8-1.6-.1.6-.1-.2-.5 1.1h.3v.1h-.2l.2.3-.2.7-.3.1.2.2-.9-.6h.2l-.6-1.1-.1.7v.4l-.3 2.6-.2 2.4 1.7-.4zm1.4-1.8l-.3 1.1-.5-.8.8-.3zm-1-2.1l.4-.1v.9l-.5-.4.1-.4zm-1.8 2.1l1-.7-.5 1.7-.5-1zm8.2-7.6v.6l-.4.1.3.3v.2l1.4-.7-1.3-.5zm-.1-9.1l-.5.2.3.4.2-.6zm-.8 17l-.2.7.6-.1-.4-.6zm-.2 1.8h-.9l.4.7.5-.7zm-4 2.4l-.5.3.6.3-.1-.6zm3.4-7.7l.2-.1-.6-.5-.1.8-.2.2.8.2-.1-.6zm5.7-13.2l.7-.1-.5-.5-.2.6zm5.9-2.4l.3-.2-.3-.2v.4zm-7.8 2.3l.3.6.4-.4-.7-.2zm1.3 2.6l.7-.8-1.2-.4.5 1.2zm-2.1-2.8l-.7-.2.3.6.4-.4zm-.8 1.4l-.7-.2v.1h-.2l.5 1.4.9-1.2-.5-.1zm-3.8 9.6l-.7.1.4.5.3-.6zm-.7 4.7l1.1.2-.6-.9-.5.7zm-1-3.5l.3-.7-.7.1.4.6z"/><path d="M248 176.1l-1.2.3.6.9.6-1.2zm-1.6 3.2l.6.9.6-1.1-1.2.2zm-1.5 7.5l-1.2.3.6.9.6-1.2zm4.1-1.5l-.1.8.6-.2-.5-.6z"/><path d="M245.2 186.3l-.4-.4h.7l-.4-.7 1 .6-.4-2.1.5-.3-.6-.5 1.1-.6.1 1.1 1.2-.8-1.2-.4.2-.1h-.2l.4-.7-1-.2.2.6-.7-.5.7-.4-1.2-.7 1.4-1.2 1-.2-.4.9.6-.1-.6.7 1.2.4-.4-1h.4l.1.1.2-.7-.7.2-.4-.5.8-.2-1.3-1.1-.4 1.4-1.9-.4 2-1.3-2-1.3.8.3-.3-.6 1.7-1.4-1.4-.6 1.1-.1-.5-.6.9-.6-1.4-.5.2 1.1-.2.6-.9-.4h.6l.1.1v-.1h.3l-.3-.4v-.9l-.6.3-.1.4-.2 3.1-.3 3.6 1.1-.7.1 1.7-1.2-.8-.3 3-.1.8-.1 1.9-.2 2 1.6-.8zm-.9-1.7l.6.3-.3.6-.7-.9 1.3-.7-.9.7zm1.4-3.3l-.2 1.2-.7-.6.9-.6zm1 2.1l-.7 1.5 1.8-.2-1.1-1.3zm1.4-7.3v1.6l1.7-.9-1.7-.7zm1.5 6.8h0l-.1-.1-.2-.3v.1l-.6-.4-.2 1.2.3-.2h-.1 1l-.1-.3zm.7-1.6l.5-.3-.6-.4.1.7zm-4.1-5.8l.5 1.1.9-1.1h-.1l2.3-1.6v.5l.6-.3-.6-.3v.1l-2.1-1.3-.2 1.6-.3.3.3.1-.1.8-1.2.1zm5.5 2l.4.3-.1-.5-.3.2zm.7 2.7h0l-.3.3 1.6.7-.3-1.7-1 .7zm2.3-2.5h.4l-.2-.3-.2.3zm-2.9 9.4l.3-.3-.4-.1.3-.2-.7-.2.2.8.3-.3v.3zm2.7-2.8l-.3-.4-.2.4h.5zm-7.1 11.4l.2.3h-.2l.2.6.5-.5h-.3l.4-.9-.5.1-.1-.7-1 .7.8.4zm.9-2.5l-1 .7 1.2.9-.2-1.6zm6.5-32.7l-.4.6.6.1-.2-.7zm-3.8-2.8l.6.2-.1-.7-.5.5zm6.1 4.4l.1-.7-.5.3.4.4z"/><path d="M253.7 158.8l.4-.1-.3-.3-.1.4zm-4.1 4.2l-.1 1 1.1-.5-1-.5zm3.5-.8l-.5.9 1.2.1-.7-1zm-1.4 4.5l-.4.9 1.2.1-.8-1zm.6-6.3l.5.7.3-.8-.8.1zm2.5 4.4l-1 .1.6 1 .4-1.1zm2.5 1.9l.2-.6-.6.3.4.3zm-11.9 3.7l1.6 1-.1-.3.8.5-.1-1.2-.7.5-.2-1.6-1.5.9-.2-.2-.1 1.6.9-.5-.4-.7zm7.1-7.2l.2.8.3-.4.1.4.4-.3h-.4l.2-.2-.8-.3zm-.8 1.4l.2.8.5-.6-.7-.2zm-1.4 2.8l.7.1-.4-.5-.3.4zm.3-1.6l.7.1-.4-.5-.3.4zm.2-5.8l.5.4.2-.7-.7.3zm.4 4l.2-.6-.6.3.4.3z"/><path d="M251.3 160.4l-.7.5.8.3-.1-.8zm-.2-1.8l-.7.6.8.3-.1-.9zm-1 1.2l-.1-.2-.6-.4-.2 1.3.4-.2h1.1l-.4-.4-.2-.1zm-3.1 9.5l-.4-.3 1.4-.2-.4.3.2.2v.8l2.6-1.3-.1.5.7-.2-.6-.4v.1l-1.7-1.4.6-.2-.5-.4-.2.6-.2-.2-.1.1-.8-.6-.1.8-.5-.8.6-.4v.3l1.3-.8-1.2-.5 1.4-.7.3.4.4-.7h-.1l-1.8-1.5-.2.6-.1-.2-.4 1.1.3-.1v.1l-.3.1.2.4-.2.7-.3.1.1.2-.9-.6.3-.1-.6-1v1l-.3.7-.3 2.2v1.9l1.9-.6zm1.4-1.7l-.3 1.2-.5-.8.8-.4zm-1.1-2.2l.3-.2v.9l-.5-.3.2-.4zm-2.1 2.4l.9-.6-.5.9-.4-.3zm3.2-6.6l-.4.2.4.2-.1.2 1.3-.7-1.3-.5.1.6zm1.1 11.2h-.7l.3.5.4-.5zm2.9-3.8l-.4-.5-.2.6.6-.1zm-.6 1.3l-.8.1.5.6.3-.7z"/><path d="M247.7 171.9l-.5.4.7.2-.2-.6zm.9-9.5l.4.5.3-.7-.7.2zm.3 4.4l1.1.1-.6-.8-.5.7zm-1.2-3.3l.3-.7-.7.2.4.5z"/><path d="M250.2 163.1l.5-.3-.6-.5.1.8zm.4.9l-.1.7-.2.2.8.1-.1-.5h.1l-.5-.5zm-2.9-.6l-.4-.3.9-.4-.7-.3-.1-1 .7-1.3.8-.2-1.1-.8.1.9-.8.4-.3 1-.8-1.2 1-1.2-.9-1.1-.2 1.2-.1 1.1-.1 2.2-.1.8-.1 1.1 2.2-.6v-.3zm-1-1.5l.6.3-.3.7-1-.8 1.5-.8-.8.6zm1.8-2.9l.5-.3-.6-.4.1.7zm3.6 3.7l-.1-.2.3-1-1 .1.3.5-.2.6h.7zm3.5-1.6l-.3-.5-.1.4.4.1zm-5.8 9.1l-1.1.6 1.3.8-.2-1.4zm1.6 1.1l-.3.9 1.2-.1-.9-.8zm2.3-.8l.7 1 .4-1.1-1.1.1zm.8-1.6l.4-1.1-1 .1.6 1zm2.7 3.4l.2-.6-.7.2.5.4zm-7.1-.7l-.3.5h.7l-.4-.5zm-.1 6.4h-.7l.3.5.4-.5zm2.2-4.8l-.5-.5-.1.7.6-.2zm-1.3-3.2l-.6.5.8.1-.2-.6zm-1.1 2.4l-.6-.8-.6.7 1.2.1z"/></g><linearGradient xmlns="http://www.w3.org/2000/svg" id="tp-K" gradientUnits="userSpaceOnUse" x1="200.419" y1="173.859" x2="186.936" y2="141.128"><stop offset="0" stop-color="#323671" stop-opacity="0"/><stop offset=".998" stop-color="#323671"/></linearGradient><path xmlns="http://www.w3.org/2000/svg" d="M188.5 190.2c12.4-3.9 21.9-11.2 27.7-14.8 10.3-6.3 20.5-18.4 20.5-18.4l-55.9-5.3-12.9 16-3.4 23.9c.1-.1 9.5 3.2 24-1.4z" fill="url(#tp-K)"/><g xmlns="http://www.w3.org/2000/svg" fill="#843720"><path d="M246.5 147.6l-.9-.5-.1 1.2 1-.7zm-4 1l-.6-.3.3-.4-.7-.2v.4l-.6-.4v.7l.5-.3v.4l.2-.2v.6l.9-.3zm2.4 4l-.4.6.6.1-.2-.7zm-2.2 4l-.4.6.6.1-.2-.7zm-4.5-.4l-.4.6.6.1-.2-.7zm6.3-.8l-.4.6.6.1-.2-.7zm.5-4l-.1-.7-.4.6.5.1zm1.8-9.6l.1-.7-.6.3.5.4zm.6 12.6l.1-.7-.6.3.5.4zm-.7 3.1l.1-.7-.6.3.5.4zm1.7-8.9l.3-.4-.4-.1.1.5zm-1.3 2.2h.4l-.3-.3-.1.3zm3.6-.5l.1-.4-.4.1.3.3zm-1.9 6.3l.1-.4-.4.1.3.3zm-9.3-1.7l-.1 1 1.1-.5-1-.5zm1.5-4.9l-.6-1-.5.8-.7.2.4.5.3-.5h1.1z"/><path d="M243 154.1l-.5.9 1.2.1-.7-1zm-.6-4l.3.5-.2.6.6-.1-.1-.2.4-1-1 .2zm3.4 5.5l.4-1.1h-1l.6 1.1zm2 2.3l.4-1.1h-1l.6 1.1zm1.7.5l.4-1.1h-1l.6 1.1zm-4.2-.8l.4-1.1h-1l.6 1.1zm-7.5-.6l-.9-1.5-.8 1.4 1.7.1zm2.4.2l-.9-1.5-.8 1.4 1.7.1z"/><path d="M242.2 157.4l-.9-1.5-.8 1.4 1.7.1zm2.5.2l-.7-.8-1 .6 1.7.2zm-2.7-.9l.5-.6-.7-.2.2.8zm-2.9-.4l-.4-.6-.3.5.7.1zm2.5-4.7l-.6.3.4.4.2-.7zm-.3 3.7l-.7.2.5.5.2-.7z"/><path d="M241.4 153v-.7l-.7.4.7.3zm-.1-1.7v-.7l-.7.4.7.3zm1.5-5.3l-.6.4.6.2v-.6zm-2.4 2.1v.6l.5-.3-.5-.3zm9.1-2.4l.3-.2-.3-.2v.4zm-2.3 3.3l-.1-.4-.3.3.4.1zm-4.6 3.7l-.3.2.4.2v.2l1.4-.7-1.3-.6-.2.7zm-.1-9.3l.1-.6-.5.2.4.4zm-.8 10.8h0l-.5-.5-.1.8-.2.2.8.2v-.7zm5-10.9l.7-.1-.5-.5-.2.6zm5.9-2.4l.4-.3-.4-.2v.5zm-7.8 2.2l.3.5.4-.3-.7-.2zm1.3 2.7l.7-.8-1.1-.3.4 1.1zm-2.1-2.9l-.7-.2.3.6.4-.4zm-.8 1.5l-.7-.2v.1h-.2l.4 1.5.9-1.2-.4-.2zm-3.8 9.6l-.7.1.4.5.3-.6zm-1.7 1.1l.3-.6-.7.1.4.5zm.9-9l.5-1.1-1.2.3.7.8zm-1 2l.7.8.5-1.1-1.2.3zm-1.6 7.5l-1.2.3.6.9.6-1.2z"/><path d="M240.2 154.2l-.1.8.6-.3-.5-.5zm-3.9.7l-.4-.4h.7l-.4-.7 1 .6-.4-2.1.5-.3-.6-.5 1.1-.6.1 1.1 1.2-.8-1.2-.4.2-.1-.3-.1.4-.7-1-.2.2.6-.7-.5.7-.4-1.2-.7 1.4-1.2 1-.2-.4.9.6-.1-.6.7 1.2.4-.4-1h.4l.1.1.2-.7-.7.2-.4-.5.8-.2-1.3-1.1-.4 1.4-1.9-.4 2-1.3-1.2-.9.8.1.2.5.9-1.1h-.9l.8-.4-1.3-.6.1 1.1-.4.5-.8-.6.6.1v.1-.1l.3.1-.2-.5.2-.9-1.2.3.3.4-.3.3-.3-.1-.3 3.6.8-.5.4 1.5-1.2-.8-.3 2.7.1.9-.3 1.2-.3 1.4-.3 2 2.3-1.1zm-1-1.5l.6.3-.3.6-.9-.9 1.6-.7-1 .7zm1.4-3.4l-.2 1.2-.7-.6.9-.6z"/><path d="M237.9 152.2l-.7 1.5 1.8-.2-1.1-1.3zm1.4-7.2v1.6l1.7-.9-1.7-.7zm1.4 6.8h0l-.4-.4h-.1l-.5-.4-.2 1.2.3-.2h1l-.1-.2zm.8-1.8l.5-.3-.7-.4.2.7zm1.4-3.7l.4.4-.1-.5-.3.1zm.6 2.7h0l-.3.3 1.6.8-.3-1.7-1 .6zm2.6-2.9l-.2.4.4.1-.2-.5zm-2.8 9.6l-.3-.1.3-.2-.7-.2v.7l.3-.3.1.4.3-.3zm2.3-2.6l-.3-.4-.2.4h.5zm2.4-25.6l-.9-.5v1.2l.9-.7zm-4 1l-.6-.2.3-.4-.7-.2.1.4-.7-.4v.7l.5-.3v.4l.2-.2v.6l.9-.4zm2.4 4.1l-.4.6.6.1-.2-.7zm.2-1.3l-.1-.7-.4.6.5.1zm2.5 3.1l.1-.7-.6.3.5.4zm.8-5.8l.3-.4-.4-.1.1.5zm-1.3 2.2h.4l-.3-.3-.1.3z"/><path d="M252.3 130.2l.1-.4-.3.2.2.2zm-11.3 4.6l-.1 1.1 1.1-.5-1-.6zm.4-5.1l-.7.2.5.5.2-.7 1.2.1-.6-1-.6.9zm3.2 4.4l-.5.9h1.2l-.7-.9zm-1.4 4.4l-.5.9h1.2l-.7-.9zm.8-8.4l.4.5-.2.6.6-.1-.2-.2.4-1-1 .2zm3.3 5.4l.4-1.1-1 .1.6 1zm-2 1.4l.7 1 .4-1.1-1.1.1zm-3-13h-1l.7 1 .3-1zm6.3 14.9l.2-.6-.7.2.5.4zm-11.8 3.3l1.5 1.1v-.3l.8.5-.1-1.1-.7.4-.1-1.5-1.4.8-.2-.2-.9 1.4 1.6-.1-.5-1zm6.4-5.7l.2.8.5-.6-.7-.2zm-1.3 2.2l-.4.5.7.1-.3-.6zm.9-1l-.4-.5-.4.5h.8zm.3-6l-.7.2.4.4.3-.6zm-.4 4.3l.2-.7-.7.2.5.5z"/><path d="M243 133v-.7l-.7.4.7.3zm-.2-1.7v-.7l-.7.4.7.3zm1.5-5.2l-.6.4.6.2v-.6zm-1.8 2.4l-.6-.4v.6l.6-.2zm8.5-2.9l.3-.2-.3-.2v.4zm-2.4 2.9l-.3.3.5.2-.2-.5zm-11.2 12.9l-.3-.3 1.5-.1-.3.2.3.1-.3.8 2.7-1.2-.2.5.7-.2-.6-.4v.1l-1.6-1.5.6-.2-.4-.4-.2.6-.2-.2-.1.1-.8-.7-.2.9-.5-.9.7-.4v.2l1.3-.8-1.2-.5 1.5-.7.2.3.4-.7-.3.1-1.8-1.6-.1.6-.1-.2-.5 1.1h.3v.1h-.2l.2.3-.2.7-.3.1.2.2-.9-.6h.2l-.6-1.1-.1.7v.4l-.3 2.6-.2 2.4 1.7-.4zm1.4-1.7l-.3 1.1-.5-.8.8-.3zm-1-2.2l.4-.1v.9l-.5-.4.1-.4zm-1.8 2.1l1-.7-.5 1.7-.5-1zm8.2-7.6v.6l-.4.1.3.3v.2l1.4-.7-1.3-.5z"/><path d="M244.1 122.9l-.5.2.3.4.2-.6zm-.8 17l-.2.7.6-.1-.4-.6zm-.2 1.8h-.9l.4.7.5-.7zm-4 2.4l-.5.3.6.3-.1-.6zm3.4-7.7l.2-.1-.6-.5-.1.8-.2.2.8.2-.1-.6zm5.7-13.2l.7-.1-.5-.5-.2.6zm-10.6-6.5l.7-.1-.5-.5-.2.6zm7.9 4.2l.3-.2-.3-.2v.4zm.8 2.2l.3.6.4-.4-.7-.2zm-7.7-5.6l.3.6.4-.4-.7-.2zm9 8.2l.7-.8-1.2-.4.5 1.2zm-2.1-2.8l-.7-.2.3.6.4-.4zm-.8 1.5l-.7-.2v.1h-.2l.5 1.4.9-1.2-.5-.1zm-4.9-.7l-.7-.2v.1h-.2l.5 1.4.9-1.2-.5-.1zm1.1 10.2l-.7.1.4.5.3-.6zm-.7 4.7l1.1.2-.6-.9-.5.7zm-1-3.5l.3-.7-.7.1.4.6zm1.5-10.2l-1.2.3.6.9.6-1.2zm-1.6 3.2l.6.9.6-1.1-1.2.2zm-1.5 7.5l-1.2.3.6.9.6-1.2z"/><path d="M241.7 134.1l-.1.8.6-.2-.5-.6zm-3.8 1l-.4-.4h.7l-.4-.7 1 .6-.4-2.1.5-.3-.6-.5 1.1-.6.1 1.1 1.2-.8-1.2-.4.2-.1-.3-.1.4-.7-1-.2.2.6-.7-.5.7-.4-1.2-.7 1.4-1.2 1-.2-.4.9.6-.1-.6.7 1.2.4-.4-1h.4l.1.1.2-.7-.7.2-.4-.5.8-.2-1.3-1.1-.4 1.4-1.9-.4 2-1.3-2-1.3.8.3-.3-.6 1.7-1.4-1.4-.6 1.1-.1-.5-.6.9-.6-1.4-.5.2 1.1-.2.6-.5-.5.3.1.1.1v-.1h.3l-.3-.4v-.9l-.6.3-.4.6.1 2.9-.3 3.6.8-.5.4 1.5-1.2-.8-.3 3-.1.8-.1 1.9-.2 2 1.6-.7zm-.9-1.7l.6.3-.3.6-.7-.9 1.3-.7-.9.7zm1.4-3.3l-.2 1.2-.7-.6.9-.6z"/><path d="M239.4 132.2l-.7 1.5 1.8-.2-1.1-1.3zm1.4-7.3v1.6l1.7-.9-1.7-.7zm1.5 6.8h0l-.1-.1-.2-.3v.1l-.6-.4-.2 1.2.3-.2h-.1 1l-.1-.3zm.7-1.6l.5-.3-.6-.4.1.7zm1.4-3.8l.4.3v-.5l-.4.2zm.7 2.7h0l-.3.3 1.6.7-.3-1.7-1 .7zm-7.5-11h0l-.4-.1.1 1.8 1.3-1.1-1-.6zm9.8 8.5h.4l-.2-.3-.2.3zm-2.9 9.4l.3-.3-.4-.1.3-.2-.7-.2.2.8.3-.3v.3zm2.7-2.8l-.3-.4-.2.4h.5zm-7.1 11.4l.2.3h-.2l.2.6.5-.5h-.3l.4-.9-.5.1-.1-.7-1 .7.8.4zm.9-2.5l-1 .7 1.2.9-.2-1.6zm1.2-20.8h-.7l.3.5.4-.5zm-1.8-.5l-.5.4.7.2-.2-.6zm2.1-1.7l-1.1.6 1.3.8-.2-1.4zm-2.9-.1l-1.1.6 1.3.8-.2-1.4z"/><path d="M242.8 120.5l-.3.5h.7l-.4-.5zm-.1 6.3h-.7l.3.5.4-.5zm.9-8l-.6.5.8.1-.2-.6zm-1 2.5l-.6-.8-.6.7 1.2.1z"/></g><g xmlns="http://www.w3.org/2000/svg" fill="#5b8faa"><path d="M177.4 176l.2 1.2-1.4-.4zm1.9-3.7l.7 1.1-1.6.1zm1.1 5.3l-1 1.2-.8-1.6zm8.4-3.1l-1 1.2-.8-1.5zm-3.3-1.2l-.9 1.2-.9-1.5zm-2.8 1.1l-1 1.1-.9-1.5zm0-3l-.9 1.2-.8-1.5zm3.8-.7l-1.3.9-.4-1.8z"/><path d="M179.4 172.6l-1.3 1-.4-1.7zm.2 2.1l-1.3.9-.4-1.7zm2-1.5l-.9 1.2-.9-1.5zm-4.6 1.9l-1 1.2-.8-1.5z"/><path d="M176.4 174.6l-1.1 1-.6-1.6zm8-.3l.6 1.1-1.4.1zm-8.2 1.7l-.1 1.4-1.3-.7zm9.5-2.6l.5.7-1 .2zm-5.6 2l.7-.3v.9zm5.9 4.5v-.7l.8.3zm-1.6 4.1l-.8.4-.1-1zm-1.1-6.2l.2.7-.8-.1zm-5.3 6.1l.8.1-.3.7zm4.3-.5l-.7-.7 1-.4zm5.5-3.9l-.6.4-.2-.8zm-7.3-2.4l.2.7-.8-.1zm3.7-7.2l.6 1.1-1.5.2zm1.7 1l.2 2-2.2-.7zm-1.8 2.3l-1.2 1.5-1-2zm3.4-1.7l.3 1.3-1.5-.3zm-.3-1.4l.4 1.3-1.4-.2zm-6.5 10.4l-.9.4.1-1zm-4.1-.7l-.4-.7h.9zm4.9 2.1l.2.7h-.8z"/><path d="M183.5 174.7l.1.8-.8-.2zm.7-4.8l2.8-.9-.2 3.2zm-3.1 1l2.8-.8-.3 3.2zm-3.1.8l2.9-.7-.5 3.2zm-2.9.6l2.9-.5-.7 3.1z"/><path d="M172.3 172.9l2.9-.5-.7 3.1zm-2.8.5l2.9-.3-.9 3zm12.7 4.3l-1.1-.7 1.2-.8zm3 .8l-1.1-.7 1.3-.8z"/><path d="M177.3 177.4l-1 1.1-.7-1.6zm-2.9.5l-.7-1.4 1.7-.1zm-5.8-3.1l-.6-1.3h1.8zm.7 2.2l-.6-1.5 1.8.1zm3-.8l-.7-1.4 1.8-.1zm-.9 2.4l.6.7-.9.4zm2 6.3l-.2-.7.8.1zm16.7-7.6l-.5.8-.5-.9zm-7.7 3.6l.5.7-.9.2zm2.3-1.1l.6-.3.1.9zM170 177l.5 1.5-1.8-.2zm7.1 7.3l.7-.2-.1.9zm-.3-3.6l-.7-.5.8-.6zm4.3-4.6l-.5.7-.4-.9zm-7.6-1l.4.6-.8.1zm16 6.3l.1.7-.8-.3z"/><path d="M182.3 185.6l.7.3-.7.6zm-11.8-3.1l-.3-.8h1zm-1.2 3.2l-.7.1.2-.9zm6.4-10.8l-1.6 1.4-.6-2.2zm.9-1.6l-.9 1.3-.9-1.6zm-3.5 4.1h-1.3l.5-1.3zm5.2 4.9l-.7-.1.5-.7zm-3.1 4.1l-1-.1.6-1zm5-6l-.1.9-.8-.7zm-9.9 3.9l.8.5-.9.4zm-2.2-9.4l1.3.6-1.1 1zm4.8 16.3l-.3-.9h1zm-1.4-3.9l-.7.2.2-.8zm-1.5 3.6l-.3-.7.9-.1zm10-10.9l-1.5 1.1-.4-2zm1.8.2l.5-.5.4.7zm4.4 3.5l-.5-.5.7-.2zm1.3-6.7l-.6.4-.1-.7zm-.9-2.8l-.9.4-.2-1.1zm1.9-4.6l.6 1.2-1.5.1zm1 5.3l-1 1.2-.7-1.6zm8.4-3.3l-.9 1.2-.8-1.5zm-3.3-1.2l-.9 1.2-.8-1.5zm-2.8 1.3l-1 1.2-.8-1.6z"/><path d="M191.9 168.7l-1 1.3-.8-1.6zm3.7-.9l-1.3.9-.3-1.8zm-6.8 4.3l-1.3.9-.4-1.8zm1.9-1.6l-.9 1.3-.8-1.6zm2.8.9l.7 1.1-1.5.1zm1.3-.9l.5.7-1 .2zm-5.5 2.2l.6-.3v.9zm5.9 4.3l-.1-.8.9.4z"/><path d="M193.6 181.1l-.9.4v-1zm-1.2-5.9l.3.7-.9-.1zm-1 5.5l-.6-.7.9-.3zm5.5-4.1l-.6.4-.2-.8zm-7.3-2.2l.2.8-.8-.1zm3.8-7.4l.6 1.1-1.5.2zm1.7 1l.1 2-2.2-.7zm-1.8 2.3l-1.2 1.5-1.1-2z"/><path d="M196.7 168.6l.3 1.3-1.6-.3zm-.4-1.4l.4 1.3-1.4-.2zm-6.5 10.7l-.8.4v-1.1zm.9 1.4l.2.7-.9-.1z"/><path d="M192.6 171.8l.1.8-.8-.2zm.8-5l2.8-.7-.3 3.2zm-3.2 1.2l2.8-1-.1 3.2zm-3 1l2.8-.9-.3 3.2zm4.2 6l-1.1-.7 1.2-.8zm2.9.6l-1-.7 1.3-.8zm3.2-.7l-.5.8-.5-.9zm-6 3.4l.5.6-.8.2zm2.3-1.4l.7-.3v.9zm-3.5-3.5l-.5.7-.5-.8zm9 6.1v.7l-.8-.4zm-7.9 3.5l.7.2-.6.6zm-2.1-5.3l-.1.9-.7-.7zm-1.5-1.4l-1.5 1.1-.4-2zm3.2 1.3l.4-.6.5.8zm4.4 3.2l-.5-.5.7-.2zm1.2-6.7l-.6.4v-.7zm-.9-2.8l-.9.4-.1-1.1zm5.5-.1l-.9 1.2-.9-1.5zm-1.2-2.1l-.9 1.3-.8-1.6zm1-2.6l-1.3.9-.4-1.7zm-.8 2.7l.5.8-1 .1zm.3 6.5v-.7l.9.3zm2.6-1.8l-.6.4-.2-.8z"/><path d="M200.4 166.7l.2 2.1-2.2-.7zm1.7.7l.2 1.3-1.5-.3zm-4.9 1.7l.2 1.3-1.5-.3zm4.5-3.1l.4 1.2-1.4-.1z"/><path d="M198.8 165.5l2.9-.6-.6 3.2z"/><path d="M196.1 166.1l2.9-.6-.5 3.1zm3.6 8.2l-1.1-.6 1.3-.8zm4.9-2.9l-.5.8-.5-.9zm-5.2 5.2l.7-.3v.8zm4.7.7v.7l-.8-.4zm-2.1-4.4l-.6.4-.1-.8zm-.9-2.9l-.9.5-.1-1.2zm5.7-9.3l1.2 1-1.6.7zm-1.4 3.2l1.1 1-1.5.7zm-2.6-1.2l.9 1.4-1.8.2zm2.7 1l.8-.5.1 1.1zm-1.4 3.1l.8-.5.1 1z"/><path d="M209.8 165.2h-.7l.4-.9zm1.9-3.2l.3.7-.7.1zm-8.7 1.3l2-.1-.8 2.2zm.7-1.6l1.4-.2-.5 1.5zm-1.4.2l1.3-.2-.3 1.4z"/><path d="M201.7 164.9l-.6-2.8 3.2.5zm1 2.2l-.5-2 2.1.5zm7.4-5.8l.7.6-.9.4zm4.7-1.4h.7l-.4.7zm-2.4 7.5l-.6.5-.1-.8zm-3.1-5.3l.3.7h-.7zm-3 6.2l.3.6h-.7zm0-5.5l.4 1h-1.1zm.3-5.4l1.2 1-1.5.7zm-2.1 1l1.2 1-1.6.7zm-2.5-1.2l.8 1.4-1.8.2zm2.6 1l.8-.4.1 1z"/><path d="M211.1 158.3l-.7.1.4-.9zm-1.6-2.6l.3.6-.7.2zm-2.7-.7l.3.7-.7.1zm-4.7 2.8h2.1l-.9 2.1zm.8-1.6l1.3-.1-.4 1.5zm0-.3l.1-1.4 1.4.7zm1.4 5.4l1.3-.2-.4 1.5zm-2.8-4.8l1.2-.3-.2 1.4z"/><path d="M200.7 159.4l-.5-2.8 3.2.7zm.5-3.2l-1.2-1 2.6-.8z"/><path d="M201.1 162.2l-.4-2.8 3.2.7zm8.6-3.1l-.8 1-.7-1.4zm-2.5-3l.8.5-.9.4zm-2.3-.7l.8.5-1 .4zm7 4.1l-.3-.6h.9zm-7.6 11.5l-.4-.6.9-.1zm1.3-1.1l-.3.6-.6-.6zm-.2-1.8l-.1.9-.8-.6zm3.7 3.2l.4.7h-.9zm-2.9 3l-.7-.2.6-.5zm-2-6.5l-.3.6-.4-.6zm2.9-1.2l-1.3-.1.8-1.3zm.7 2.1l.5-.6.4.8zm5.5-11.5h.7l-.4.8zm-1.6-.6h.7l-.4.8zm-3.3.1l.3.6h-.7zm-2.9.7l.4.9-1.2.1zm-31.7 24.4l-1.6.3.4-1.7zm.2-2.1l-1.3-.7 1.3-1.1z"/></g><path xmlns="http://www.w3.org/2000/svg" d="M225.3 106.2c-11.1-9.7-25.2-3-41.4 7.3-11.5 7.2-27.8 19.1-32.8 25.5-4.5 5.7-8.2 12.6-4.2 20.4 3.9 7.6 18.6 8.2 29.3 6.6 7.9-1.1 14.3-5.5 28.1-14.8 15-9.9 21.6-15 24-22.1 3.4-8.4 3.4-17.3-3-22.9z" fill="#843720"/><path xmlns="http://www.w3.org/2000/svg" d="M228.7 124.4s1.3.1.7 2.6l-1 4.8c-.3 1.1-.5 2.3.8 2 4.6-.5 9.4-2.6 9.7.7.3 1.4-1.7 1.6-.9 1.5s1.6.2 1.5 1.6c-.3 1.9-1.5 2.2-1.5 2.2s1 .9-.1 2.1l-1.3 1.2s.8.9-1.5 2.4c-2.4 1.5-5.7 1.5-7.7 1.5s-2.9.2-2.9.2l-30.8 10.2c-11.3 3.8-23.5 5.1-27.7 6.7-4.2 1.5-5.8-22.9-5.8-22.9l44.6-2.7c10.4-1.3 14.3-3.7 15.6-4.4s3-2.9 4.6-4.3c1.1-1.5 1.7-3.3 3.7-5.4z" fill="#ea9d7d"/><linearGradient xmlns="http://www.w3.org/2000/svg" id="tp-L" gradientUnits="userSpaceOnUse" x1="195.133" y1="145.716" x2="196.711" y2="158.959"><stop offset=".005" stop-color="#cc7a5e" stop-opacity="0"/><stop offset=".924" stop-color="#aa5f4b"/></linearGradient><path xmlns="http://www.w3.org/2000/svg" d="M151.6 150.2s1.3 7.2 8.1 9.7c5.7 2.1 11.2 2.9 19.2 1.4 6.3-1.3 12.27-2.9 23.27-6.7l22-7.2c1.3-.5 3.53.1 7.23-.7.9-.2 3.77-.6 5-2.3.6-.8-.3-1.2-.1-1.5.5-.4 1.8-1.1 2.2-2.2.3-.8-.6-.9-.5-1.1.8-2.4-1.9-4.1-8-2.7s-26.8 4.2-45.2 6.8c-14.6 1.9-17.9 4.2-33.2 6.5z" fill="url(#tp-L)"/><linearGradient xmlns="http://www.w3.org/2000/svg" id="tp-M" gradientUnits="userSpaceOnUse" x1="194.119" y1="147.659" x2="185.202" y2="149.885"><stop offset="0" stop-color="#cc7a5e" stop-opacity="0"/><stop offset=".924" stop-color="#aa5f4b"/></linearGradient><path xmlns="http://www.w3.org/2000/svg" d="M197.3 138.9c0 5.9 1.3 16.8 1.3 16.8l-10.7 3.7-1.3.3L184 140c0-.1 11-.9 13.3-1.1z" fill="url(#tp-M)"/><linearGradient xmlns="http://www.w3.org/2000/svg" id="tp-N" gradientUnits="userSpaceOnUse" x1="165.127" y1="136.605" x2="171.158" y2="171.402"><stop offset=".298" stop-color="#9b4828"/><stop offset="1" stop-color="#843720"/></linearGradient><path xmlns="http://www.w3.org/2000/svg" d="M193.8 166.6l-5.2-33.7s-11.9.6-24.1 3.7c-19.4 3.5-20.8 13.2-19.6 22.4.9 6.6 9.5 16.1 24.4 14.4 11.6-1.7 24.5-6.8 24.5-6.8z" fill="url(#tp-N)"/><g xmlns="http://www.w3.org/2000/svg" fill="#ad5c44"><path d="M207 152.4l.7.3-.1-.8-.6.5zm-6.9-10.3l-.4-.6-.2.6h.6zm-1.2.2h0l-.1-.2-.1-.1.3-.3.2.1v-.2l.2-.3-.3-.1v-.2l-.2.1-1.2-.5.3 2.2.6-.6.3.1v-.1h.1l-.1.1zm7.7 8.1l-.5-.3-.1.7.6-.4zm-2.4 1.1h-.7l.1.3-.3-.1.2.5.2-.2.1.1.4-.6zm-5.8-11.7l-.2-.4-.3.4h.5zm3.8 3.9h-.4l.3.4.1-.4zm4.1 2.1l-.4-.2-.1.4.5-.2zm-1.6 7.4l-.3-.4-.1-.3-.6.4.4.2-.2.5.8-.2v.3l2.2-.7-1.8-1.1-.4 1.3zm.6-3h-1.4l.8 1.2.6-1.2zm-1.1-2.2h0l.3-.5-.1.1.1-.2h-1.3l.8 1.2.2-.6zm-5-3.6l-.1-.7.3.5.5-1.3h-1.4l.2.2-.5 1.3h1zm2.8-2l-1-.9-.4 1.3 1.4-.4zm-.5 1.3h-1.4l.8 1.2.6-1.2zm1.7 9l-.3-1.3-1 .8 1.3.5zm-4-6.4l-.1.2h.1l.3 1.5 1.2-1.2-1.2-.5-.2-.2.5-.6-.6-.2.2-.1h-.3l.3-.3-.5-.1.1.5h-.3l-.7-.2.2 1-.1-.1v.5l.1-.1.1 1.1.9-1.2zm2.6 8.3l2.2-.7-1.8-1.1-.4 1.8zm-1-2.9l-.4.7.8-.1-.1.3H200l.8 1.2.3-.6.3-.1v.2l.6-.4h-.3l-.5-.5.4-.1-.7-.8-.1.2-.1-.6.3-.1-.4-.4.3-.1-.7-.5.1.6h-.2l.2.3v-.1l.3-.1-.2.4-1.4-.6.3.8v.1l-.2.1.1 1 1.3-1 .3.2zm8.7-.1l-.8-.9-.4.9h.4l-.2.9 1.6-.6-.7-.4.1.1zm-2-1l-.6-.7-.3 1 .9-.3z"/><path d="M205 149.9l-.6-.7-.3 1 .9-.3zm3.5 1.7l.9.3v-.9l-.9.6zm6-1.8l.7.2.1-.8-.8.6zm2.1-2.8l-.9.4.8.4.1-.8zm2.2-1.8l-.6-.5-.1 1.1.7-.6zm2.3 2.8l.7-.5-.7-.5v1zm-.6-3.1l-.7.5.9.4-.2-.9zm-3 2.3l.9.5-.2-1-.7.5zm-4.6 3.7l1.6-.5-1.2-.8-.4 1.3zm-2.8.9l1.5-.5-1.2-.9-.3 1.4zm9.5-4.2v-.2l-.2.2h.2l-.2.6-.2-.8-.7.5.9.4-.1.5 1.6-.6-1.2-.8-.1.2zm-20.2 2.4l.5.2-.2-.6.8-.8-.1-.1h.2l-.5-.5-.1.5-.9-.3v-.1h-.5l-.1.1v.2l.1.4.2 1.6.6-.6zm2.9-.5l-.3.5h.6l-.3-.5zm-2.9-8.7l-.1-.4.3.2-.1-.6-.2.2-.1-.4-1 .7-.5-.4-.1.7.5-.3 1.3.3zm2.1 6.6h0v.3l-.1.4.7-.4-.2-.1h-.1l-.3-.2zm1 1.3l.5-.4-.5-.1v.5z"/><path d="M199.7 140.8h0v.1l.5-.3-.3-.1.2-.3-.6-.1.2.7zm.1-.9l.4.3.1-.6-.5.3zm-.4 7.4l-.5.2.4.3.1-.5zm5.1 1.6l.4.3.2-.5-.6.2zm-6.6-5.7l.1.7.4-.4-.5-.3zm4.8 1.8l.5-.5-.6-.2.1.7zm-1.6 1.1l.1-.5-.5.2.4.3zm2 .2l-.6-.2.1.7.5-.5zm-.7-3.4l-.4-.5-.2.4.6.1zm1.7.1l-.5.1.4.3.1-.4zm6.1 6l-.1.3.6-.1-.5-.2zm-8.5 5.2l-.4-.3-.1.3-.1-.1-.2-.5-.1.2-.1-.1-.1.2v.1l-1.3-1 .1 1.7.7-.2-.7.8 1.9-.7.2-.3.2-.1zm6.3-2.8l.1-.4-.4.3.3.1zm-7.3-1.6l1.4.5-.2-.7-.1-.1-.1-.4-1 .7zm-1.2 3l.3-.1-.3-.2v.3zm2.5-1.2v-.4l-.2.3.2.1zm7.7 0l.2.3.2-.3h-.4zm-.9-1.6l-.2.3.3-.1-.1-.2zm12.3-4.2l-.4.2.3.2.1-.4zm-1.7-.8l-.2-.1v.3l.2-.2zm-9.4 5.7l-.3-.1.2.3.1-.2zm-1.1-1.5l-.2-.2-.1.3.3-.1zm-.8 2.2l-.3.1.3.2v-.3zm1.5-6.7l-.2-.2-.2.3.4-.1zm-.4 2.9l.3.2v-.4l-.3.2zm-2.1-1.1l.3.1v-.4l-.3.3zm-3.3.6l.1.3.2-.3h-.3zm2 2.2l-.2.3h.4l-.2-.3zm0-4.8l-.3.2.3.1v-.3zm-2.5-.7h-.3l.1.3.2-.3zm2.1 2.5l-.2-.2-.1.2h.3zm-4.4-5.2l-.4.2.3.1.1-.3z"/><path d="M199.4 144.4h.4l-.2-.2-.2.2zm.1-1.4l.2-.3-.3-.2.1.5zm2.4 2.1l-.3.1.2.2.1-.3zm1.9.7l.2-.2-.3-.2.1.4zm-.6 3l-.2.3h.3l-.1-.3zm3.1-.8l-.3.1.2.2.1-.3zm1.7-.1l.3.1-.2-.4-.1.3zm-1.7 3.9l.5.1v-.4l-.5.3zm8.9-4l-.5.4.5.3v-.7zm2.2-1.7l-.5-.1.2.5.3-.4zm-3.8-.5l-.2-.4-.2.4h.4zm2.7 3.2l.5.3.1-.6-.6.3zm2.3-2.2l.1.5.3-.3-.4-.2zm-3.3-.4l-.2-.4-.3.3.5.1zm-6.2 4.3l.4.2.1-.6-.5.4zm3.4-.5l.5.3.1-.6-.6.3z"/><path d="M217.4 148.6l.5-.1-.4-.4-.1.5zm-5.5-.1l-.5-.1.2.4.3-.3zm-3.8-.6l-.2-.3-.3.5.5-.2zm-.7 1.5l-.5.1.3.4.2-.5zm2.7-.7l-.4-.3-.1.4.5-.1zm2.8-.8l-.4-.3-.1.6.5-.3zm-.5-2.7l-.1-.4-.4.3.5.1zm-2.6 2.5l-.4-.1.2.5.2-.4zm15.2-.9l.8-.5-.7-.5-.1 1zm5-1l-.8.2.7.6.1-.8zm-.1 1.1l.9-.1-.3-.8-.6.9zm1.9-.3l1-.2-.5-.6-.5.8zm-4.4.5h.9l-.3-.8-.6.8zm-.4-.8h.7l-.3-.5-.4.5zm-2.4-.7l-.7.1.5.5.2-.6zm-1.4-.9h-.7l.5.5.2-.5z"/><path d="M232.6 145.6l.6.6.1-.7-.7.1zm-1.8 1.2l.7-.1-.2-.3-.5.4zm4.1-2.4l-.2.8.6-.4-.4-.4zm-13.6 1.3l.7.6.1-.8-.8.2zm2 .6l-.3-.5-.5.6.8.2-.1.5-.2-.1-.4-.4-.1 1.1.6-.3-.1.2 1.6-.5-1.2-.9-.1.1zm2.3.7l1.7.1-.8-1.3-.9 1.2zm2.8 0l1.4-.1-.7-1-.7 1.1zm3.1-1.4l-.4-.3-.1.3h.5zm.4-.3l.3.1v-.4l-.3.3zm-1.4-.4l-.4-.1.2.3.2-.2zm3.5.5v.2l.3-.3-.3.1zm.5-1l-.1-.2v.3l.1-.1zm-.1-1.1l-.2.2.2.1v-.3zm-6.5 1.1l-.3.2.3.2v-.4zm-3.6.6l-.3-.1.2.4.1-.3zm1.6 1l.1-.2h-.3l.2.2z"/><path d="M225.1 144.6l-.2-.2v.3l.2-.1zm-.9 1.9l.3.2v-.2h-.3zm5.5-1.5h-.3l.2.2.1-.2zm-1.1-1.3l-.1-.2-.1.2h.2zm-.6 1.9l-.2.1.2.2v-.3zm-3.3-1.8l-.1-.3-.2.3h.3zm4.8.3h-.2l.1.2.1-.2zm2.7-.4l-.2-.1v.2l.2-.1zm-5.4 1l-.3.2.3.1v-.3z"/></g><path xmlns="http://www.w3.org/2000/svg" d="M196.1 132.2l5.4 32.6-7.7 1.8-5.4-33.7z" fill="#c26419"/><g xmlns="http://www.w3.org/2000/svg" fill="#aa5d3c"><path d="M169 139.4l.6.8.6-1-1.2.2zm-1.7-1.1l.6.8.6-1-1.2.2zm13.5 3.6l.1-.1h-.4l.2-.6h-.8l.5.5h-.4l.3.7.5-.5.3.7.3-.7h-.6zm4.4 1.9l-.5.4.7.1-.2-.5zm-1.2.4l-.5.5h.7l-.2-.5zm-9.9 4l.6-.2-.4-.4-.2.6zm5.9-7.2l-1-1.5-.8 1.4 1.8.1zm6.3 5.4l-.3.6.7-.1-.4-.5zm-6.5 2.1l-.5-.3.1.7.4-.4zm1.9 0l-.5-.1.1.4.4-.3zm2.1-1.6h0l-.3.3.1.1-.2.3.6.2-.1-.4-.1-.5zm-.3 3.7l-.2-.2-.1.3.3-.1.3.7.2-.8-.5.1zm7.5 6.6l-.7.9 1.2.1-.5-1zm-8.9-18.2l.5-.2-.5-.5-.2.7-.8.5.9.8.1-1.3zm1.6 6.5l-.8.9h1.2l-.4-.9zm5.3 8.1l-1-.2.3 1.2.7-1zm-5.4-10.5l.2.1v-.6l-.6.3-.5-.3v1.1l.9-.6zm5.4.9l1-.5-1.1-.5.1 1zm2.6 9.5l-1.3 1.1 1.7 1-.4-2.1z"/><path d="M191.2 151.8l-.2-1.7-.4-2.6-.1.1v-.9l-.2-.9-.4-1.9-1.8 1.7 2 .6-1.1.7 1.3.8-1.8 1.2-.7-.5-.4 2.1 1.8-.9 1.2.7-.9.8-.7-.3.1 1.4.7-.7 1.1.3-1.2.9 2 .9-.3-1.8z"/><path d="M189.4 152.1l-.8.9h.8l-.3 1.4 1.7-.8-1.1-.7-.3-.8zm-9.4 1.5l.4-.4-.6-.2.2.6zm-1.7-2l.4-.4-.6-.2.2.6zm8.3 1.4l-.9-.5.2 1 .7-.5zm-3.5.3l.6-.3-.5-.4-.1.7zm4.2 1.7l.7.4.1-.7-.8.3zm-2.7-9l-.3-.5-.5.5h.8zm-4.6 4.9l.5.3-.1-.7-.4.4zm5-10.1l-.3-.7-.4.7h.7zm-1.6-.3l-.4.8h.8l-.4-.8zm.7.1l.5-1.1-.6.1v-.9l-.7.5.6.4-.5.2.7.8zm-10.8-.1l1.1-1-1.5-.3.4 1.3zm6 2.7l-.3-.6-.4.6h.7zm1-3.7l.5.5.2-.6-.7.1zm-7.4-1.6l.5.5.2-.6-.7.1zm5.5 11.6l.3.3.2-.4-.5.1z"/><path d="M181.6 147.3l.5.1-.2-.4-.3.3zm10.5 8.4l-1.4.8 1.6.5-.2-1.3zm-2.5-8.1l-.9-.6-.3 1.1 1.2-.5zm-.9 3l-1.4.5.9.6-.5.7 1.2.1-.3-.7.1-1.2zm-3.9-7.2l.6-1.4h-.2l-.3-.3-.1.3h-.6l.6 1.4zm-8.4-2.4l-.5-.4-.1.5.6-.1zm-2.7-3.6l-.5-.4-.1.5.6-.1zm-2.8-.5l-.5-.4-.1.5.6-.1zm16 11.7l.8-.3-.5-.5-.3.8zm-1.9 3.2l.4.5.2-.5h-.6zm-.8-2.2l.5-.6h-.8l.3.6zm2.3 2.4l.7-.3-.5-.4-.2.7zm-1.9-8.5l-.5-.6-.2.7.7-.1zm.2 3.9l-.6.4.6.3v-.7zm-9.4-.2l.5.4v-.7l-.5.3zm-1.6 5.8l.3.3.2-.4-.5.1z"/><path d="M176.3 145.2l-.6-.2.3.7.3-.5zm-5.3-7l.4 1.1.7-.7-1.1-.4zm5.4 3.9l-.6-.2.3.6.3-.4zm2.2-2.5l-.6-.2.3.6.3-.4zm4.7 14.9l.5.6.2-.8-.7.2zm-3-9.7l-.5.7.9.1-.4-.8zm2.4 7.9l-.7-.2.2.8.5-.6zm2.9-6.3l-1-.2.3 1.2.7-1zm.1 8.5v-.6l-.7.3.7.3zm1.9-15.6l.2-.5-1 .2.5.8-.6.5.7.4-.2.3.4-.1.9.5.2.6.4-.3.7.3-.4-2.7h-1.8zm-.9 15.7l.4.5.2-.5h-.6zm2.7.8l1.4.3-.4-1.1-1 .8zm-4.3-2.3l-.4.6.6.1-.2-.7zm-.7 1.6l.6.1-.1-.7-.5.6zm-.6 1.6l.5-.2-.4-.5-.1.7zm4.5-18.9l-1.4-.8-.3 1.7 1.7-.9z"/><path d="M188.4 145l.4-.5-.2-.1-.1-.7.2-.3h-.3l-.2-1.7-.5.4.2-.3-.8-.1.2.6-.2.2-.1-.7.1.1-.2-1.7-1.2.8 1.2.7-.8.5.6.4-.6.4 1.8 1.1-1.1.4-.1-.1v1l.7-.3.4.3.1-1.2.3.2.2.6zm-2.9-.3l-.2.3-.1-.3-.4.2.4.2-.3.4h1.1l-.5-.8zm.8-7.3l.6-.4-.5-.3-.1.7zm1.7-1.9l-1.1.5.4.2-.7.6 2.6 1.5-.5-3-.6.5-.1-.3zm-2-.5l-.2-.6-1.2 1.5 2.1.6-.5-1.1.7.5.1-.8.2.6.4-.7 1 .2-.3-1-.6.5.7-1.6h-2.1l.6 1.7-.9.2zm2.6 7.4l1 .2-.3-1.2-.7 1zm-8.5-4.6l1.2-.5-.8-.6-.4 1.1zm6.7 1.7l-.7.1.5.5.2-.6z"/><path d="M184.2 136.7l1.3 1.4.3-1.9-1.6.5zm-2.1-.7l.7.9-.6-.2.2 1.1.7-.4.2.2.1-.2.3 1.1.8-1.2-1.1-.1.7-1.2.3.4 1.9-3.3-1.9.1-.9.2-3 .3 1.5 2.7.1-.4zm1.8-.3l-1.8.3 1.2-1.6.6 1.3zm-2.1 5.8l.5.5.2-.6-.7.1zm-3 2.2h.6l-.4-.4-.2.4zm2.9.4l.2-.3h-.4l.2.3zm-2.7 2.4l.4.2-.1-.4-.3.2zm5.8-4.8l-.6-.4.5-.2-.5-.4-.2.6-.3-.2-.2 1.4 1.3-.8zm1.2 8.6l1.4-.7-1-.7-.4 1.4zm.9-4.1l-.2-.5-.5.4.5.3 1.3.8-.2-1.5-.9.5zm-1-7.5l.6-.4-.5-.3-.1.7-.1-.4-1.6 1 1.8 1.1-.1-1.7zm-30.1 5.1l.7.6.3-1.2-1 .6zm4.5 1.8l.2-.1-.4-.1.3-.6-.8-.1.4.6-.4-.1.2.7.5-.3.2.7.4-.6-.6-.1zm-1.4 2.9l.7.1-.2-.6-.5.5zm-.1-8.6l-.6.4.7.1-.1-.5zm-1.8 12.2l.6-.3-.5-.4-.1.7zm1.7-11.4l-.9 1.3 1.7.3-.8-1.6zm1.3-2.3l-.9 1.3 1.7.3-.8-1.6zm5.9 7.7l-.3.6.7-.1-.4-.5zm-.6 5.6l.3-.5h-.5l.2.5zm-2.8-2.8l.3.3.1-.4-.4.1zm5 4.1l.3-.3-.3-.2v.5zm.4-12.1l-1 .3.8.9.2-1.2zm-6 2.9l.6-.2-.5-.4-.1.6-.8.6 1 .6-.2-1.2zm3.7 0l-.8.6 1.1.5-.3-1.1zm-9.7-4.9l-1.1.5 1.6 1.3-.5-1.8zm2.2-.1l-.8.5 1 .6-.2-1.1zm16.4-1.1l-.8.6 1 .6-.2-1.2zm-1.8-1l-1.2.9 1.5.9-.3-1.8zm4-1l-1.1.1.8 1.2.3-.8.1 1 1-.9.2.2-.2-.1-.1 1.2 1-.7-.4-.3 1.1-1.5.4 2.1-1.4.3.1.1-.9.1.9 1.6.4-1 .5.6.2-.7.5.4-.2.6.7-.2-.1-.1v-.4l1 .4-.3-1.2-.7.6v-.6l-.9.4.2-1 1.4-1.5-1.8-.5.5-1.2-3.3.4.7 1.1-.6.3zm1.1.4l-.3-.1-.1-.6.4.7zm-13.8 4.5v1l.9-.4.2.1v-.6l-.6.2-.5-.3zm13 1l1-.6-1.2-.4.2 1zm-5.6 1.7l1-.5-1.2-.5.2 1zm-3.9-3.2l1-.5-1.2-.5.2 1zm-3.9-1.1l1-.5-1.1-.5.1 1zm-4.8 5.6l-1.2-.3.2 1.1 1-.8zm12.2 3.8l.6-.2-.5-.4-.1.6zm5.5-13.1l.4.2-.1-.2.1-.1-.1-.1-.3-.8-.4.3-.4-.3-.1 1.2.9-.2zm-9.8 8.4l.5-.7-.8-.1.3.8zm2.9-.6l-.8-.2.2.7.6-.5zm2.3-3.1l-.5.3.5.3v-.6zm-1.8.6l-.5.3.5.3v-.6zm-6.2 2.7l.7-.2-.4-.4-.3.6z"/><path d="M167.4 142.8l.7-.3-.5-.4-.2.7zm-2.8.3h.6l-.4-.7-.2.7zm-1.5 1.3l-.3.3-.4.2.2.1-.1.1h.8l-.2-.7zm-2.6-3.9l-.3.3-.4.1.2.1-.1.1.3.1h.5l-.2-.7zm.9.9h0l.3.6.2.3.8-1.2-1.5.1.2.2zm0 5.3l-.4-.5-.2.8.6-.3zm-.8-2.5h-.7l.4.6.3-.6zm1.8 9.4l.3.3.1-.4-.4.1zm2.7-3.8l-.1.3.4-.1-.3-.2zm8.4-12.9l1.6-.1-.3.7h1.2l-.6-.8h.3l-1.3-1.4.9.4.3-1.3-1.7.7.2.1-.6 1.7zm-15.8 1.6l-1.3.5.6 1.3.7-1.8zm1.8-.6l-1.6.5 1.7 1.2-.1-1.7zm-2.1 9.4l.4-.3-.5-.3.1.6zm16-5.9l-.6.2.6.4v-.6zm1.9 0l-.6-.5.2.8.4-.3zm-3.1-5.1l-.6-.6.1.8.5-.2z"/><path d="M176.8 137.5h.7l-.4-.6-.3.6zm-18.3 14.1l.6.3-.1-.7-.5.4zm.4-2.1l-.7-.1.4.7.3-.6zm14.7-6.7l.8.9.4-.9h-1.2zm-15.4 5.3l-.7-.1.3.6.4-.5zm2.9-4.6l-.3-1.2-.6.7.1-.6-.9.5.5.5-.2.6.7-.2-.1-.1.1-.4.7.2zm5.5-2.9l-.5-.3-.1.7.6-.4zm4.2-2.6l-.7.6.8.5-.1-1.1zm-1.3-1l-.7.6.8.5-.1-1.1zm-3.3 2.6l.6-.4-.5-.3-.1.7zm-.6-1.4l.6-.4-.5-.3-.1.7zm-7.6 4.2l-.9-.6-.1 1.2 1-.6zm3.3-2.3l-.1 1.2 1-.6-.9-.6zm.6-1.5l-.1 1.2 1-.6-.9-.6zm6.7-1.8l-.3-.2v-.8l-1 .5.5.3-.2.8 1-.6zm-1.7 4.9l-.7.1.5.5.2-.6zm1.7.1l-.7.1.6.6.1-.7zm-4.5-2.2l1.5 1.2v-1.9l-1.5.7zm7.9-4.5l1.2 1.7.6-2-1.8.3zm-6.5 1.3l1.2 1.7.6-2-1.8.3zm4.2-.9l1.2 1.6.6-2-1.8.4z"/><path d="M168 135.8l1.2 1.6.6-2-1.8.4zm-4.1 1l1.2 1.6.5-2-1.7.4zm-2 .5l1.3 1.6.5-2-1.8.4zm-1.8.4l1.2 1.6.4-2.1-1.6.5zm2.9 3.3l.3.2.1.2.1-.1.4.3-.1-1 .1-.3-1.2.2.3.5zm-.9 4.5h-.7l.4.6.3-.6zm-5.9-3l1.1-.9-1.1-.5v1.4zm-1.8-1.3l1-.8-1.1-.5.1 1.3zm-.5 8.4l.5-.2-.4-.3-.1.5zm3.3.1l-.4.1.2.3.2-.4zm-2.5 2.5l.4.1-.2-.3-.2.2zm7.6-10h.5l-.3-.4-.2.4zm2.9.1l.1.4.2-.3-.3-.1zm11.3-4.7l-.6 1.2h.6v.5l.8-.5.1.3.5-.5-.6-.1v.1l-.2-.1-.6-.9zm-1.7 2.1h1.5l-.9-1.2-.6 1.2zm-27.5 7.4l-1 .2.8.9.2-1.1z"/><path d="M154.7 141.6l-.5.4h-1.1l.8 1.3.4-.9.8.4-.4-1.2zm-1.9-1.2l-1.2 1.1 1.3.6-.1-1.7z"/><path d="M154.4 141.4l-.4-.8-.3.4-.4-.3-.1 1.2.8-.3.5.2-.1-.4zm-4.4 6.1l.6.3-.2-.7-.4.4zm-1.3.8l.6.3-.2-.7-.4.4zm-2.9.9l-.2.7.6-.2-.4-.5zm1.2-.1l.7-.4-.5-.3-.2.7zm-1.5 1.9h.6l-.4-.7-.2.7zm6.3-8.8l-1.7.4 1.4 1.1.3-1.5zm0 3.4h.8l-.5-.6-.3.6zm5 .9l-.6-.1.2.7.4-.6zm-4.7 3.3l.6.3-.1-.5-.5.2zm1-2.5l.2.8.5-.5-.7-.3zm2.3-3.5l-.4-.6-.2.6h.6zm-8 6l.5-.4-.5-.3v.7zm.6-3.7l-.6-.2v.8l.6-.6zm9.2-.8l-.5-.3v.7l.5-.4zm-7.6.6l-.5.6.8.3-.3-.9z"/><path d="M146.4 147.9l-.7.2.6.5.1-.7zm1.6.7l.2-.7-.7.2.5.5zm6.4-2.6l-.9-.9.3-.1-.1.2.8.5-.2-1.1-.3.4-.3-.4.5-.1-1.6-1.5-.5 1.7h1.1l-.3.5h.4l-.3 1 1.4-.2zm-4-.2l.3-1.2-1.1-.3-.1-1.5-.9.9.7.4-1.5.6.8 1.2.4-1.3 1.2.4-.3.2.1-.3-.6.2.5.3.5.5h-.1l1 .8.3-1.5-1.2.6zm4.3 1.6l1 .7-.2-1.1-.8.4zm.6-.9l-.1-.6-.4.4.5.2zm3.4-1.6l.6-.4-.6-.3v.7zm-2.5 3.1l.6.3v-.6l-.6.3zm.4 1.1h.7l-.4-.7-.3.7zm-1.1-4.7l.5-.3-.7-.3.2.6zm5.4 2.7l.6.5v-.7l-.6.2zm19.1 8.8l.4-.4-.6-.2.2.6z"/></g><g xmlns="http://www.w3.org/2000/svg" fill="#9b5735"><path d="M205.7 107.5l-.9-.5.7-.5zm-4.3 6.6v-.6l.4.3zm4.4-5l-1.4.3.3-1.2zm1.4-1l-.8-.4.6-.5zm-3.6-.2l-.7.6-.3-.8zm3.1 1.8l-.3.5-.3-.5zm3.7-2.6l-.7.9-.6-.9zm-5.1 3.5l.3.4-.4.2z"/><path d="M205.7 108l.5-.2-.1.5zm-2.7 1.9l-.4.2-.1-.4zm.1 4l-.5-.3.4-.2zm-.8-1.9h.6l-.2.4zm.4-1.3l.5.1-.2.3zm1.2-2.4l.5.1-.2.4zm-1.7-2.9l-.9-.1.4-.7zm4.3 1.8l-1-.2.6-.7zm-3.4-.3v-.9l.8.2zm2-.3l.1-1 .7.4zm2.4-1.2l-.7.8-.3-.8zm-2.8.8l-.7-1.6h1.5z"/><path d="M207.9 104.1l-.4 1.7-1.2-1zm-3.7 4.1l-.9-1.1 1.2-.5zm-.2-4.9l-1 2.6-1.8-1.7zm2.8-.8l-1.1 2.5-1.7-1.8z"/><path d="M209.4 101.8l-1.2 2.5-1.6-1.9zm-4.2 6l.2-.5.4.2zm1.7-.5l.1-.6.4.3zm1.1-.8l-.6-1 1-.1zm-2.1 2.8l.6-.1-.2.5zm-1.1-1.7l-1.1-.9 1.1-.6zm-2.3-.8l-.3-1.1.9.1zm1.9 9.5l.3-.5.3.4z"/><path d="M199.5 116.9l.2-.5.3.5zm-7.5-2.1l-.8-.4.7-.5zm-.7-.8l-1.4.1.4-1.2zm5.3-2.2l-.7-.6.8-.3zm-2.9 3.5l-.9-.3.5-.6zm4.2-.8l-.9-.3.6-.6zm2.4-2.5l-.9-.3.5-.6zm2.6-5.9l-.9-.3.5-.6zm5.7 3.9l-.8.6-.2-.9zm-9 4.1l-.8.5-.2-.7zm-1.2-4.1l-.7.7-.3-.9zm-8.6 5.9l-.8.6-.2-.7zm10.2-.8v-.6l.4.1zm.8-10.4l.3 1.3-1.1-.1zm1.4.4l-.9.6-.2-1zm-4.6 8.2l-.4.6-.3-.5z"/><path d="M198.3 112.3l-.2.6-.4-.5zm1.4-1.4l-.5-.1.3-.5zm-1.2.9l-.6-.1.3-.4zm-3.8 1.9l.1-.5.4.1zm1.9-1.2v-.5l.5.2zm-1.2.2l.4.5-.6.2zm-1 2l.3.5-.6.2zm.4-2.6l-.1.9-.8-.5zm-2.7 3.2l.5-.2v.5zm6-9.7l1.8-.8v1.8zm3.5 1.2l-1.5.5.1-1.5z"/><path d="M202.1 107.4l-1 .2.2-.8zm0-.6l-.8-.9 1-.4zm-1.6 1.2l-.7.1.2-.6zm3.1.2l-.3-.4.5-.1zm-3.1 3.2l.4-.3.1.6zm1.1-1.3l.6.2-.3.5zm-2.7-1.4l.1.5-.5-.2zm4.2-1.7l-.5.2.1-.5z"/><path d="M199.2 105.3l.8 2.6-2.4-.3zm-10.9 8.2l-1-.1.5-.8zm4.6 1l-1-.1.4-.7zm2.3-3.1l-.1-.6.6.1zm1.5-.9l-.2-.7.6.2zm.4-2.1v-.6l.4.2zm1.9 2l-.7-.2.3-.7zm-2.9 0l-.1-.7.5.2zm-6.7 4.7v-1l.7.3zm6.1-6.1l.7-.7.3.8z"/><path d="M197.8 109.4l-.7-.8 1-.4zm-2.9-.4l.8-.6.3.9zm1.3-1.3l.8-.6.2.8zm-4.1 4.9v-1l.8.3z"/><path d="M196.7 108.5l-.1-1 .8.3zm-3.2 2.6l-.6.8-.4-.9zm2 .9l.6-.3-.1.6zm1.4-.3l.6-.2-.1.6zm-4.5 7.2v-.5l.4.3zm3.9-3.4l.4.4-.5.1zm-2.1 3.2l-.6-.2.4-.3zm-.9-1.9h.6l-.1.4zm3.3 2.8l.4-.5.3.4zm-6.1 2.2l.3-.6.3.5zm-1.6-2.5l-.9-.3.6-.6zm-7.3 4.4l-.9-.3.5-.6zm-11.1 2.1l-.9-.3.5-.6zm2.4-1.6l-.9-.3.6-.6zm18.4-7.4l-.9-.2.6-.6zm.6 1.3l-.8.6-.2-.8z"/><path d="M178.7 122.6l-.8.6-.2-.8zm1.8-.8l-.8.5-.2-.7zm10.5-1.9v-.6l.4.2zm-3.3-4.3l-.3.6-.4-.5zm1.7 1.6l-.3.5-.4-.5zm.1-.6l-.5-.1.3-.4zm-1.8.7v-.5l.4.2zm3.9-4.5l-.7.2.2-.6zm3 .2l-.3-.4h.5zm-3.1 3.2l.5-.3.1.6zm-3.5.3l.5-.2v.6zm2.7-4.2l-.9-1.4 1.5-.2zm5.8-3.2l-1.6-.9 1.3-.9zm-.5.7l-1.8.2.5-1.5zm-.4 1.6l-1.3-.7 1-.8zm-1.8-1.7l-.3 1.7-1.3-.8z"/><path d="M191 113.5l-1-1 1.2-.5zm-.8-3.6l-.5 2.7-2-1.3zm2.3-1.5l-.3 2.8-2.1-1.4z"/><path d="M194.9 107.2l-.4 2.8-2.1-1.4zm-3.2 8v-.6l.5.2zm1.5-.6v-.6l.5.2zm1.8-1.4l-.6-.3.4-.5zm-1-1.1l-.6-.9 1-.2zm-3.8 3.3l.6-.2-.1.5zm-7.5 12.1l.1.6-.5-.1zm-3.7-.7l.3.6-.6-.1zm7.4-6.4l.1-1 .7.4zm-4-.2l.4.5-.5.1zm-.1 5.3h-.5l.2-.5zm-.9-3.8l.5-.2-.1.4zm2 .7l-.5.4-.1-.4zm-4.3.5l.1.6-.5-.1zm2.5-6l.2.6-.5-.1zm2.9.6l.8-.5.1.8z"/><path d="M186.6 117.9l.8-.5.1.8zm-3.2 2.5l.1-.9.7.3zm-.7-1.8l.4.4-.4.2zm3.1.6l-.3-.5h.7zm.3.5l.4-.3.1.5zm2 2.1l.4-.6.4.6zm-2.2 2.1l.6.1-.4.4zm-.2-4.4l-.1.5-.4-.3zm.8 1.5l-.3.6-.3-.4zm1.3-5.8l-1.2-.7 1.1-.8zm.9-.4l-.3-.9h1zm4.3-1.8l-.4.2.1-.5zm1.9-.2l-.1-.3h.3zm-1.6 2.5l.2-.4.2.4zm10.1-7.3l-1.2.2.2-.9zm-.8 1l-1.1.2.1-1zm-3.4-1.5l-.1 1.2-1-.6zm-2 .4l-.2 2.4-1.8-1.1z"/><path d="M200.8 107.3l-.2 2.4-1.8-1.1zm11.1-1.3l-.6-.7.7-.2zm3.4-3.2l-1.4-.1.7-1.1zm-2.1 4.5l-.7-.7.8-.3zm-3.1-1.2l-.8.4v-.9zm7.8-2.1l-.5.5-.1-.6zm.2-1.6l-.8.7-.3-1zm-6.9 6.8l.2.5h-.5z"/><path d="M212.2 106.7l.6.1-.3.4zm-3.1 1.2l-.5.1.1-.3zm-.5.7l.5.2-.3.4zm1.8-1.9l.5.2-.3.3zm2.4-.6l-.9-.5.7-.5zm-2.7-1l.1-.9.7.4zm1.6 0l.3-.9.6.6zm2.6-.4l-.9.4v-.9z"/><path d="M211.3 104.4l-.1-1.7 1.4.5zm3.8-.7l-1.1 1.4-.7-1.4z"/><path d="M210.8 106.5l-.8-1.3 1.3-.1zm1.2-4.9l-1.4 2-1-1.8zm2.5 0l-1.5 1.6-.8-1.7zm2.3.4l-1.4 1.2-.5-1.5zm-5 4.4l.2-.4.4.3zm1.3 0l.3-.6.3.4zm1.2-.5l-.2-1.1 1.1.2zm1.7-2.4h.5l-.2.5z"/><path d="M211.5 106.2l-.9-1.1 1.2-.4zm-2.1-1.4l-.1-1.1 1 .3z"/><path d="M209.9 104.2l-.8-.4.7-.5zm-1.1.9l-1 .1.4-.8z"/><path d="M209.1 104.7l-.6-1 1-.1zm-1.9.6h-.7l.3-.5zm2.8 1.1l-.1-.6.5.2zm-3.8 2.3l.4-.2.1.5zm1.5-.9l.5.3-.5.3zm-2.2-2.2l-.3.6-.2-.3zm4.4-.4l-.5-.2.2-.3zm0 .8l-1.2.1.5-.9z"/><path d="M208.9 106.8l-1.1-.1.4-.9zm-1.3-2l-.9 2.2-1.4-1.5zm-9.6.8l-.5 2.3-1.6-1.2zm-11.8 8.6l-.9-.3.6-.7z"/><path d="M187.7 111.2l-.4 2.8-2.1-1.2zm-7.9 8.4l-.6-.7.8-.3zm6.9-4.6l-.8-.5.6-.5zm-1.8-1.9l-.2 1.3-1-.6zm1.3.8l-1 .4v-1zm-3.5 5.1l-.5-.2.3-.3zm-1.2.7l-.5-.3.4-.3zm-3 1.2l.2-.5.4.3zm1.2-.6l.1-.5.4.2zm2-5.3l1.6-1.1.2 1.8zm3.8 1.1l-1.7.3.4-1.4z"/><path d="M185.4 116.7h-.8l.2-.8zm.4-1.2l-.6-1 1-.1zm1 .9l.6.3-.5.3zm-2.5-1.7v.5l-.5-.2zm4.3-1.2h-.5l.1-.5zm-6.1 1.7l.4 1.6-1.5-.3zm-2.6 5.7v-.6l.5.2zm.2-2.6v-.5l.5.2z"/><path d="M187.9 116.9v-.6l.5.2zm-5.7 1.5l-.9-.2.5-.7zm-1-.8l-.6-.8.9-.3zm-2.6 1.9l.7-.1-.2.5zm1.5.1l.5-.1-.1.5zm5.6-2.2l-1.1.1.3-.9zm-2.7-.9l-.3 1.2-.8-.6zm-14.1 8l-.3 1.2-.9-.7zm17.5-6.8l-.4-.2.3-.3zm-.5-.6l-.7-.4.5-.5zm4.1-5.4l-.7 2.2-1.5-1.3zm-19.4 13.1l-.6-.6.7-.3zm2.6-1.4l-.9-.2.5-.6zm11.3-5.4l-.7.6-.3-.7zm1.4.5l-.6-.1.3-.4zm-11.2 4.5l-.8-.8.9-.3z"/><path d="M181.4 119.6l-.1-.6.6.2zm1.4-1l-.1-.6.5.1zm2.4-.4h-.8l.3-.8zm-3 .3l-.1-.5.5.1zm-1-2.4l.6-.7.3.8zm2.6 1.3l-.8-.7.9-.5zm-17.4 9.4l.7-.7.3.9zm12.1-5.7l-.1-.9.8.2z"/><path d="M179.8 119.6l-.6.8-.4-.7zm-2.4 1.4l-1.1-1.4 1.5-.3zm-7.3 3.9l-1.6-.9 1.2-.9zm11.8-5.2l-1.4-.7 1-.8zm1 6.3l.4-.5.3.5zm-6.1 4.1l.3-.5.3.4zm1.1-5.6l-.9-.2.5-.6zm-.6-1.4l-.9-.3.6-.6zm-6.7 5.8l-.9-.3.5-.6zm9.3-3.8l.1-.6.4.2zm-8.2 7.6l.1.6-.5-.1zm3.6-7.1l.1-1 .7.4zm-3.9-.2l.3.5-.4.1zm-.2 5.3h-.5l.2-.5zm-.9-3.8l.6-.2-.1.4zm2 .7l-.4.4-.2-.4z"/><path d="M172.3 125.6l.1-.9.7.3zm1.1 1.2l.1-.9.7.3zm1.3-2.4l-.2-.5h.6zm.3.5l.5-.3.1.5zm.1-1.6l.5-.3.1.5zm2 3.7l.4-.6.3.6zm-2.2 2.1l.5.1-.3.4zm-.2-4.4l-.1.5-.5-.3zm.8 1.5l-.3.6-.3-.4zm-5-1.3l-.5-.2.4-.4z"/><path d="M170.4 124.8l-.1-.6.5.2z"/><path d="M170.8 124.9l-1.4-.7 1-.8zm9.2-6.6l-.2 1.7-1.3-.8zm-2.7 3.9l-1-1.1 1.3-.4z"/><path d="M176.6 118.5l-.3 2.7-2.2-1.3zm2.3-1.5l-.3 2.8-2.1-1.4z"/><path d="M180.8 115.6l-.2 2.7-2.2-1zm-.5 5l-.5-.9.8-.2zm-8.5 1l-.2 2.3-1.8-.8zm2.5-1.7l-.2 2.8-2.2-1.1z"/><path d="M176.5 120.2l-.7 2.4-1.6-1.4zm-18.4 16.7l-.9-.3.5-.6zm2.6-3.3l-1-.2.5-.6zm2.3-1.8l-.9-.2.5-.6zm5.6-2l-.7.7-.3-.8zm1.8-.9l-.8.6-.2-.7zm3.2 1.2l.2.6-.5-.1zm-4.3 3.9l.2.5h-.5zm2.9-6.8l.4.4-.5.2zm.2 5.3h-.5l.2-.5zm-1.2-3.8l.6-.2-.1.4zm2.1.6l-.4.4-.2-.3zm-4.3.8l.2.6h-.5zm3.3-4.6l.4.4-.3.2z"/><path d="M169.5 126.8l-.7-.6.8-.4zm2.9-.8l-.5-.2.3-.3zm-1.2.7l-.5-.2.4-.3zm-2.8 1.5v-.5l.5.2zm1.1-.7l.1-.6.4.3zm.2.5v-.5l.5.1zm0-2.5v-.6l.5.2zm2.1-.1l-.9-.2.5-.6z"/><path d="M168.4 126.8l.6-.2-.1.5zm1.4-.1l.5-.1v.5zm-10.8 5.7l-.2 1.3-.9-.7zm1.8.3l-.8-.6.7-.4zm2.4-1.6l-.9-.2.4-.7zm1.5-.6l-.9-.7.9-.4zm6.4-3.9l-.1-.5.5.1zm1.4-1l-.2-.6.5.1zm-.7-.1l-.1-.5.5.1zm-15.1 9.4l.6-.7.3.8zm11.6-6.5l-.1-.9.8.1z"/><path d="M169.5 126.8l-.6.8-.4-.7zm-2.3 1.5L166 127l1.5-.4zm-6.9 4.4l-1.7-.7 1.1-1zm11.3-6l-1.5-.5 1-1zm1.5 6.2l.3-.5.3.4zm-6.7 2.3l.3-.5.3.5zm1.6-3.4l-1-.2.5-.6zm-.7-1.4l-.9-.2.5-.6zm-6.3 6.3l-1-.2.5-.6zm9-4.4v-.6l.4.1zm-4.5.7v-.9l.7.3zm-4 .2l.4.4-.4.1zm-5.8 5.5h-.5l.2-.4zm4.9-4l.5-.2v.4zm2 .6l-.4.4-.2-.3zm-.1-2v-.9l.7.3z"/><path d="M163.7 134.4v-.9l.7.3zm1.1-2.4l-.3-.6h.7zm.3.4l.4-.3.2.4zm0-1.6l.4-.4.2.5zm.6 3l.4-.7.3.6zm-2 2.2l.5.1-.3.4zm-.6-4.4v.5l-.5-.2zm2.6 2.1l-.3.6-.3-.4zm-5.1-1l-.5-.2.3-.4z"/><path d="M160.5 132.6l-.1-.5.5.1z"/><path d="M160.9 132.7l-1.4-.6.9-.9zm8.7-7.3l-.1 1.7-1.3-.6zm-2.4 4.1l-1-1 1.2-.5zm-1-3.6l-.1 2.7-2.2-1.1z"/><path d="M168.4 124.2l-.1 2.8-2.2-1.2zm1.7 3.5l-.6-.8.8-.3zm-8.5 1.6l.1 2.4-1.9-.8zm2.4-1.8v2.8l-2.2-1zm2.2.1l-.4 2.4-1.7-1.2z"/></g><g xmlns="http://www.w3.org/2000/svg" fill="#602317"><path d="M280.6 188.4v1.2l.9-.7-.9-.5zm-3.6 1.8l.4-.5-.7-.1v.4l-.7-.4.1.7.5-.3.1.4.3-.2v.6l.6-.4-.6-.2zm3.5 3.9l-.4.6.6.1-.2-.7zm-.6-1.3l.6.1-.2-.6-.4.5zm6.8-13.8l.6.2-.1-.7-.5.5zm-7.8 11.6h0l-.3.4 1.7.6-.5-1.7-.9.7zm-8.5-11.4h0l-.3.4 1.7.6-.5-1.7-.9.7zm12.9 15.7l-.6.4.6.3v-.7zm.4-6.9l.2-.6-.7.1.5.5zm-.2 1.8l.3-.5h-.4l.1.5zm-1.1 2.4h.4l-.2-.1h.3l-.2-.5-.5.5h.3l-.1.1zm4.3-1l-.7-.3v-.2l-.3.3.2.1v.5l.8-.4zm-4.4 13.6l-1.2.2.5.8.7-1zm-.2-12.2l-.3-1.1-.7.9 1 .2zm2.1 6.8l.8-.9h-1.2l.4.9zm-5.8 2.1v1.2l.9-.8-.9-.4zm-3.4-14.6h-.2l.2.5.5-.5h-.3l.2-.9-.5.1-.1-.7-1 .8 1 .5.2.2zm2.6 16.8l1.6 1.2-.1-2-1.5.8zm11.1-16.6l-.7-.1.4.6.3-.5zm-2.3-1.3h-.7l.4.6.3-.6zm-6.4 10.3l.6.8.4-.8h-1zm8.9-5.2l.2-.7-.5.3.3.4zm-3.6 7.1l.7-.2-.5-.6-.2.8zm-7.2 1.1l-.6-.1-.6-.9v-.4l-.2.2-.4-.6-.4.7-.8-.4v1l.5-.2-2 2.5 2 1.5.3-2.1 2.2-1.2z"/><path d="M281.6 193.5l.6.2-.1-.6-.5.4zm4.1-5.2h.7l-.4-.5-.3.5zm-8.7 5.9l-.7.5.8.2-.1-.7zm-.4-1.7l-.7.5.8.2-.1-.7zm-.4 1.1l-.2-.2v.1l-.6-.4-.1 1.3.3-.3v.1l1.1-.2-.4-.3-.1-.1zm1.6-5.1l-.1-.6-.6.4.7.2zm-1.6 2l-.6-.4v.6l.6-.2zm8.5-4l-.3-.2v.4l.3-.2zm-2.4 3.4l-.2.3.5.1-.3-.4zm-2.9 15.2l1.1.7.2-1.6-1.3.9zm2.5-1.2l-1.1-.3.1 1.1 1-.8zm-.1-1.6l1.2-.4.6.2-.3-1.1-.6.6-.7-.8-.2 1.5zm-4.8-17l.1-.6-.4.1.3.5zm7.1 10.5l.5.5.2-.8-.7.3zm3.7-2.8l.1.7.5-.3-.6-.4zm-2.9-1.2l-.7-.2.2.8.5-.6zm-2.6 3.5l-.3.6h.7l-.4-.6zm5.7-.1l.2-.7-.6.3.4.4zm-8.3-1.9l-.6.3.6.5v-.8zm4.1-.2l-.3.6h.6l-.3-.6zm.4-10.4l-.1.6.6-.2-.5-.4zm-4.5 2.6l.4-.5-.7-.1.3.6zm1.2 2l.6-.8-1.2-.1.6.9zm-2.4-2.7l-.7-.1.3.5.4-.4zm-1.3 1.6h-.2l.5 1.4.8-1.2h-.4l-.7-.2zm-1-8.8h-.2l.5 1.4.8-1.2h-.4l-.7-.2zm6.6 25.9l-.7-.4v.7l.7-.3zm4.2-14.9l-.6.6 1 .3-.4-.9z"/><path d="M288.4 189.9l.5-.6h-.8l.3.6zm-11.3-9.9l.2-.6-.7.1.5.5zm-.2 1.8l.3-.5h-.4l.1.5zm5.2-2.7l-.7-.1.4.6.3-.5zm-2.3-1.3h-.7l.4.6.3-.6zm-.7 2.5h.7l-.4-.5-.3.5zm-1-1.8l-.3-.2v.4l.3-.2zm-.5-3.9l-.1.6.6-.2-.5-.4zm2.8 5.8l-.6.6 1 .3-.4-.9zm.5-2.7l.5-.6h-.8l.3.6zm1.7 16.9l.8-.9-1.2-.1.4 1zm-4.1.6l-.2.7.6-.1-.4-.6zm-.5 6.5l.4-.7-1.2.2.6.7.1 1.3 1.5-.9-1.4-.6zm4.4-4.3l.5-.3-.7-.4.2.7zm-3.1 6l.9.8.3-1.4-1.2.6zm10.7-11.1l-.5.4.7.1-.2-.5z"/><path d="M283.1 200.5l-.2-.6-.5.4.7.2zm1.3.2l-.6.2.6.4v-.6zm-9.7-2.1l.7-1.7-1.7.5 1 1.2zm7.1-3.4l-.2-1.1-.3.4-.3-.3-.1.4h.3l-.2.3.8.3zm-8.3 2.1l.1.1.3-.7-.6.2h-.1l-.6-2 .5-.3-.6-.5 1-.7.2 1 1.1-1-1.2-.2.2-.1-.2-.1.4-.8h-1.1l.2.5-.8-.4.6-.5-1.2-.6 1.3-1.4.9-.3-.3 1 .5-.1-.5.7 1.2.1-.6-1h.4l.1.1.2-.7-.6.3-.4-.5.7-.2-1.5-1-.3 1.4-2-.1 1.8-1.5-1-.7h.7l.2.4.8-1.2-.9.1.8-.5-1.4-.5.2 1.1-.4.6-.9-.4.6.1.1.1v-.1h.3l-.2-.4.1-.9-1.2.4.4.3-.2.4-.2-.1.2 3.3.6-.4.5 1.5-1.1-.4.3 5.4 1.1-.7-.9.7.7.3-.2.7-.6-.5c0 .4.1.9 0 1.3l1.3-.3-.5-.4.7-.1-.4-.7 1 .4-.4.8-.1-.2-.2.8-.9 1.2 1.8 1.3.2-3.4zm-2.1-4l.8-.7v1.2l-.8-.5zm2.1-5l.4-1.2-1.2.4.8.8zm7.3 12.1l.9-.3-.7-.7-.1.1-.1-.1v.1l-1.1.5.7-1.9-.8.1.3-.7-1.1.2.4-1.4-1.9.8 1.4.6v-.1l.3.5-.3.1-.2-.6-.6.6h.4l-.7.1.9 1.4-.1.2.4.1.4.6-.1.3h.7l-.3-.6v-.4l.8.9.5-.4zm-4.8 2.3l1.2.8.2-2.4-1.4 1.6z"/><path d="M273.5 191.3l.4-1.2-1.2.4.8.8zm-2.4 7.9l1.2-1.6-1.2.4v1.2zm5.5-2.6l-.7-.4v.7l.7-.3zm-3.6-.6l1.9-.4-1.4-1.2-.5 1.6zm2.8-8.3l-1.7-.5.2 1.6 1.5-1.1zm-.7 4.9l.2-.6 1.1-.1-.8-.9-.4.8-.6.2.5.6zm1.7-1.3l.1.7.5-.3-.6-.4zm1.9 1.5l-.1-.1.2-1-1 .2.3.4-.2.6.8-.1z"/><path d="M278.2 187.9l-.3.3.5.3-.2-.6zm2.6 0h.4l-.3-.3-.1.3zm-2.6 7.1v.2l1.2-.8-1.4-.5v.6l-.3.3.5.2zm-.2-2.3l-1.4.5.3.2-.5.2.5.4.1-.6.5.6.5-1.3zm3.3 8.9l-1.4.5.9.9.5-1.4zm.1-3.9l-.5 1.1h1.5l-1-1.1zm-6-3.2l-.7 1.6.3-.1-.5.2.4.5.2-.7 1.7-.1-1.4-1.4zm4.9-27.1l.9-.7-1-.4.1 1.1zm-.7 5l.6.1-.2-.6-.4.5zm-.2-1.9l.6.1-.2-.6-.4.5zm1.7-10.3l-.5.3.5.3v-.6zm-1.7 7.5l-.8.7h-.1l-.3.3 1.7.7-.5-1.7zm3.4 5.8v-.7l-.6.4.6.3zm.7-6.3h-.4l.1.5.3-.5zm-1.3 2.4l-.1.4h.4l-.3-.4zm3.4-1l-.3.3.3.2v-.5zm-10.8 5.9l.1 1 1.1-.6-1.2-.4zm2.9 0h1.2l-.8-.9-.4.9zm-.3-5l.3.4-.1.6.6-.1-.1-.1.2-1-.9.2zm3.7 5.3l.2-1.2-1 .2.8 1z"/><path d="M273.1 177.1l.2-1.2-1 .2.8 1zm1.8-12.4l.3-1.2-1 .2.7 1zm-.1 20.1l-.7-.7 1.8.8-.1-.3.9.3-.4-1.1-.7.5-.4-1.6-1.3 1-.9.4.2.8.1.2 1.5-.3zm2.9-10.2l.2.7.3-.4.1.3.3-.4h-.4l.1-.2h-.6zm-1.2-3.5l-.5.3.5.4v-.7zm0 4.3l.1-.7-.5.3.4.4zm-.1-3.6l-.7.5.8.2-.1-.7zm-.8-1.1l.8.2-.1-.7-.7.5z"/><path d="M277.4 165.4l-.6.4.7.1-.1-.5zm-2.2 3l.5-.2-.6-.4.1.6zm9.3-4l-.3-.1v.4l.3-.3zm-2.5 3.3l-.2.3.4.1-.2-.4zm-4.3 4.5l-.3.3.4.2.1.2 1.2-.9-1.4-.5v.7zm-1.2-9.6l.5.4.1-.5-.6.1zm7.4 16.5l-.6-.5.1.7.5-.2zm-3.5 3.4l-.8.2.5.6.3-.8zm-7.3-4.77l-3.3-1.4.1 3.1 3.2-1.7zm.24 3.97l-3.3-1.4.1 3.1 3.2-1.7zm-.84 3.2l-2.2-1 .1 2.1 2.1-1.1zm.8 1.8l.7.3-.1-.6-.6.3zm3.2-10.3l-.1-.5.1-.1-.6-.5v.7l-.2.2.8.2zm-4.4 2.4l.1 1 1.1-.6-1.2-.4zm2.9.1l.2.7.3-.4.1.3.3-.4h-.4l.1-.2h-.6zm-1.2.9l.1-.7-.5.3.4.4zm0 1l-.1-.5.1-.1-.6-.5v.7l-.2.2.8.2zm7.5-18.9l-.2.6.7-.1-.5-.5zm-1.5.7l-.7-.1.3.5.4-.4zm.3 1.3l.6 1 .6-.8-1.2-.2zm-1.8-1.5l-.7-.1.3.5.4-.4zm-.6 1.4l-.7-.1h-.3l.6 1.4.8-1.3h-.4zm-3 9.9l-.6.2.4.5.2-.7zm-1.7 1.2l.2-.7-.6.2.4.5zm.2-9l.3-1.2-1.2.4.9.8zm-.1 2.8l.4-1.2-1.2.4.8.8zm-1.7 6.8l-1.2.4.7.8.5-1.2zm4.1-1.7v.7l.5-.3-.5-.4z"/><path d="M270.04 173.75l-.3.7c0 .4 0 .9.1 1.3l1.9-.6-.5-.4.7-.1-.4-.7 1.2.4-.5-2 .5-.3-.6-.5 1-.7.2 1 1.1-1-1.2-.2.2-.1-.2-.1.4-.8h-1.1l.2.5-.8-.4.6-.5-1.2-.6 1.3-1.4.9-.3-.3 1 .5-.1-.5.7 1.2.1-.6-1h.4l.1.1.2-.7-.6.3-.4-.5.7-.2-1.5-1-.3 1.4-2-.2 1.6-1.1-2.6-1.3.5-.4-.2.3 1.2.1-.5-.9 1.3-1.2-2.1-1h.5l.1.1v-.3h.3l-.3-.3-.1-.9-1.1.6.4.2-.1.3-.46-.1.4 3.4h-.14l.23 2.95.77-.65.5 1.5-1.5-.2.2 3.2.1 1.2v1l.6.4zm1.8-3.7v1.2l-.7-.5.7-.7zm-.3 2.8l-.9.7.7.3-.2.7-1-.8 1.4-.9z"/><path d="M272.5 173.6l1.9-.3-1.4-1.3-.5 1.6zm3-8.3l-1.7-.6.1 1.6 1.6-1zm-.9 4.9l.2-.6 1.1-.1-.8-.9-.4.8-.6.2.5.6zm1.5 1.5l-.4-.3-.2-.1-.2-.2v.1l-.6-.4-.1 1.3.3-.3v.1l1.2-.2zm-.3-3.7l.5-.3.1.4.1-.2v.6l.6-.4-.7-.2.3-.5-.7-.1.1.4-.7-.4.4.7zm.5.8l.1.7.5-.3-.6-.4zm1.8-2.7v-.5l-.4.2.4.3zm2.8-.3l-.3-.3-.1.3h.4zm-.3 6.1l-.1.4h.4l-.3-.4zm-5.7 9l.6.1-.2-.6-.4.5zm-.2-1.9l.6.1-.2-.6-.4.5zm0-2.8l-.8.7h-.1l-.3.3 1.7.7-.5-1.7zm1.7 7l.2-1.2-1 .2.8 1zm-3-.1l.2-1.2-1 .2.8 1zm-1.1 1.4l.2-1.2-1 .2.8 1zm3.6-4.1l-.1.4h.4l-.3-.4zm2.4 2.7l-.9.9 1.4.6-.5-1.5zm-9-42.1l-.9-.4.3 1.2.6-.8zm-1.4-2l-.7-1.6-.9 1.1v.2l1.6.3zm6.1 13.9l-1-.5v1l1-.5zm-1.7 8.7l-.6-.6.8-.7-1.5-.3.3 1.1-.2.7 1.2-.2z"/><path d="M268.54 155.45l.2 2.2.1 1.3-.2.4v.8l.7-.1-.5 1.2 1.6-.6-.9-.9 1.3-.8-.4-.3 1.3-.3-.4.2.3.1-.1.8.1-.1-.4.2-.3-1.1-1.5 1.1 2 .9-.2-.6.7.1-.4-1 2.2-1.6v.5l.7-.4-.6-.2v.1l-2-1.1.6-.4-.4-.3v.6l-.2-.1v.1l-.8-.5-.1.9-.7-.8.5-.6v.3l1.1-1-1.3-.3 1.3-.9.3.3.2-.7-.3.4-2.1-1.3v.6l-.1-.1-.2 1.2h.3v.1h-.3l.2.4v.7l-.2.1.2.1-1-.4.2-.1-.8-.9.3 1.8zm3.4 1.5l-.1 1.2-.6-.7.7-.5zm-1.4-2l.3-.1.1.9-.6-.2.2-.6zm-.9 2l-.4.9-.4-.3.8-.6zm4.76-1.05l.7-.1-.4-.4-.3.5zm.2-1.7l.7-.1-.4-.4-.3.5zm-.1-4.7l.1-.7-.6.3.5.4z"/><path d="M274.8 152.5l-.6.3.4.3.2-.6zm-.2-2.2l-.1-.8-.7.5.8.3zm-.4-2.4l-.6.6.8.2-.2-.8zm-6.7-5.1l.4-1.3-.9.2c.1.3.1.6.2.8l.3.3zm9.2 13.9l-.5-.4v.7l.5-.3zm-.3 1.5l-.8.1.6.5.2-.6zm-6.5-19.2l-1.2.2.9.9.3-1.1zm-2.7-2.4l.5.5.2-.4-.7-.1.3-.3-1.8-.3c.2.5.2 1 .4 1.5l1.1-.9z"/><path d="M267.5 142.8l1.2-.2-.8-.9-.4 1.1zm3.9 3.8l1.2.3-.5-1 .4-.1.1.1.1-.7-.6.3-.5-.5-.3 1 .6-.1-.5.7zm1.3 4.9l-.7.3.4.4.3-.7zm.7 3.2l-.4.8 1.1-.1-.7-.7zm-2.2-1.9l.2-.7-.7.3.5.4zm-.4-9.2l.1-1.2-.9.7.8.5zm.2 3l.4-1.1-1.1.4.7.7zm-1.1 6.6l-1 .5.9.7.1-1.2z"/><path d="M273.6 151.6l.1.8.6-.3-.7-.5zm.4 1.7l.1.8-.2.2h.8l-.2-.5.1-.1-.6-.4zm-4-.3l-.4-.2.8-.1-.6-.6 1.1.4-.6-2.2-1.4 1.2.7.2-.2.7-1-.8v1.8l1.6-.4z"/><path d="M270.6 151.5l1.9-.4-1.5-1.1-.4 1.5zm-3.7-10.3l1.3-1.4-1.6-.5c.1.3.2.9.3 1.2v.7zm-1.3-5.7l1.1-1 .2.2.2-.4h-.6l-1.3-.2.4 1.4zm0-5.2l-1.6-.3.3 1.4 1.3-1.1zm3.5 13.1l-1.9-.4c.2.8.2 1.6.4 2.4l1.5-2zm1.7 6.3l-.4-.2.6-.5.2 1.1 1.1-.9-1.2-.3.1-.1-.3-.2.3-.7h-1l.2.5-1-.6-.1 1.2-1.3-.7 1.9-1.6-2.2-.9.6 5c-.1.2 0 .6 0 .8l2.5-1.9zm1.8-1.7l.2-.7-.7.3.5.4zm1.6 1.5l-.4-.3-.4-.4v.1l-.5-.3-.2 1.2.4-.2v.1l1.1-.2zm-4.3-6.3l.4-1.3-1.2.6.8.7zm-5-9.9l.4.2-.2-.5-.2.3zm1.7 2.4h-.4l.2.4.2-.4zm7.8 23.1l-1 .8 1.3.5-.3-1.3zm1.6 1.9l1.2-.3-1-.7-.2 1zm-.5.7h.6l-.4-.6-.2.6zm.4 4.9l-.7.1.3.4.4-.5zm1.3-4.8l.5-.2-.5-.5v.7z"/><path d="M275.3 158.4l-.4.6h.8l-.4-.6zm-.1 4.4l-.1.6.6-.3-.5-.3zm-.6-2.4l-.7-.6-.4.8 1.1-.2zm0 1.4l.4-.5h-.7l.3.5-1.2-.6-.1-.3-.2.2h-.1v.1l-.2.2.2.1v1.3l-.2.4h.3v.8l-1.1.2.6 1.1.8-1.2h-.1l2.2-1.7-.9-.6zm16.4 24.8h-.7l.4.6.3-.6z"/></g></g></svg>